%FSLAX42Y42*%
%MOMM*%
G71*
G01*
G75*
%ADD10C,0.20*%
%ADD11R,1.90X2.29*%
%ADD12R,1.52X1.52*%
%ADD13R,0.28X1.78*%
%ADD14R,1.78X0.28*%
%ADD15R,1.78X0.28*%
%ADD16O,1.78X0.28*%
%ADD17C,1.00*%
%ADD18C,0.40*%
%ADD19C,0.50*%
%ADD20C,0.80*%
%ADD21C,0.70*%
%ADD22C,0.20*%
%ADD23C,0.25*%
%ADD24C,0.30*%
%ADD25C,1.00*%
%ADD26C,0.70*%
%ADD27C,0.65*%
%ADD28O,2.00X1.50*%
%ADD29C,2.00*%
%ADD30C,4.00*%
%ADD31O,1.75X2.00*%
%ADD32R,1.75X2.00*%
%ADD33O,2.00X1.70*%
%ADD34O,2.00X1.70*%
%ADD35R,2.00X1.70*%
%ADD36C,1.52*%
%ADD37R,1.70X2.00*%
%ADD38O,1.70X2.00*%
%ADD39O,1.60X2.00*%
%ADD40R,1.60X2.00*%
%ADD41R,1.70X2.00*%
%ADD42O,1.70X2.00*%
%ADD43C,1.50*%
%ADD44R,2.00X1.75*%
%ADD45O,2.00X1.75*%
%ADD46O,2.00X1.60*%
%ADD47R,2.00X1.60*%
%ADD48O,2.00X1.60*%
%ADD49R,1.75X2.00*%
%ADD50O,1.75X2.00*%
%ADD51C,3.50*%
%ADD52C,3.50*%
%ADD53C,2.25*%
%ADD54C,3.50*%
%ADD55C,2.50*%
%ADD56C,1.75*%
%ADD57C,1.50*%
%ADD58R,1.75X2.20*%
%ADD59R,1.75X2.20*%
%ADD60C,3.00*%
%ADD61R,5.00X2.50*%
%ADD62R,2.50X5.00*%
%ADD63C,2.00*%
%ADD64R,2.00X2.00*%
%ADD65O,2.00X2.50*%
%ADD66C,1.27*%
%ADD67R,0.91X0.91*%
%ADD68R,0.91X1.27*%
%ADD69O,0.61X3.05*%
%ADD70O,0.61X6.10*%
%ADD71O,3.81X0.80*%
%ADD72C,0.30*%
%ADD73C,0.25*%
%ADD74C,0.31*%
%ADD75C,0.54*%
%ADD76C,0.35*%
%ADD77R,2.11X2.49*%
%ADD78R,1.73X1.73*%
%ADD79R,0.48X1.98*%
%ADD80R,1.98X0.48*%
%ADD81R,1.98X0.48*%
%ADD82O,1.98X0.48*%
%ADD83O,2.20X1.70*%
%ADD84C,2.20*%
%ADD85C,4.20*%
%ADD86O,1.95X2.20*%
%ADD87R,1.95X2.20*%
%ADD88O,2.20X1.90*%
%ADD89O,2.20X1.90*%
%ADD90R,2.20X1.90*%
%ADD91C,1.73*%
%ADD92R,1.90X2.20*%
%ADD93O,1.90X2.20*%
%ADD94O,1.80X2.20*%
%ADD95R,1.80X2.20*%
%ADD96R,1.90X2.20*%
%ADD97O,1.90X2.20*%
%ADD98C,1.70*%
%ADD99R,2.20X1.95*%
%ADD100O,2.20X1.95*%
%ADD101O,2.20X1.80*%
%ADD102R,2.20X1.80*%
%ADD103O,2.20X1.80*%
%ADD104R,1.95X2.20*%
%ADD105O,1.95X2.20*%
%ADD106C,3.70*%
%ADD107C,3.70*%
%ADD108C,2.45*%
%ADD109C,3.70*%
%ADD110C,2.70*%
%ADD111C,1.95*%
%ADD112C,1.70*%
%ADD113R,1.95X2.40*%
%ADD114R,1.95X2.40*%
%ADD115C,3.20*%
%ADD116R,5.20X2.70*%
%ADD117R,2.70X5.20*%
%ADD118C,2.53*%
%ADD119C,2.20*%
%ADD120R,2.20X2.20*%
%ADD121O,2.20X2.70*%
%ADD122C,1.47*%
%ADD123R,1.12X1.12*%
%ADD124R,1.12X1.47*%
%ADD125O,0.81X3.25*%
%ADD126O,0.81X6.30*%
%ADD127O,4.01X1.00*%
%ADD128C,0.15*%
%ADD129C,0.17*%
D128*
X18378Y27053D02*
X18458D01*
X18418Y27013D02*
Y27093D01*
X18378Y26807D02*
X18458D01*
X18418Y26767D02*
Y26847D01*
X18543Y28497D02*
X18643D01*
X18593Y28447D02*
Y28547D01*
X18543Y27481D02*
X18643D01*
X18593Y27431D02*
Y27531D01*
X28716Y27871D02*
X29036D01*
X28876Y27711D02*
Y28031D01*
X33435Y27871D02*
X33755D01*
X33595Y27711D02*
Y28031D01*
X29662Y27998D02*
X29762D01*
X29712Y27948D02*
Y28048D01*
X29939Y27998D02*
X30039D01*
X29989Y27948D02*
Y28048D01*
X30216Y27998D02*
X30316D01*
X30266Y27948D02*
Y28048D01*
X30492Y27998D02*
X30592D01*
X30542Y27948D02*
Y28048D01*
X30769Y27998D02*
X30869D01*
X30819Y27948D02*
Y28048D01*
X31046Y27998D02*
X31146D01*
X31096Y27948D02*
Y28048D01*
X31323Y27998D02*
X31423D01*
X31373Y27948D02*
Y28048D01*
X31600Y27998D02*
X31700D01*
X31650Y27948D02*
Y28048D01*
X31877Y27998D02*
X31977D01*
X31927Y27948D02*
Y28048D01*
X32154Y27998D02*
X32254D01*
X32204Y27948D02*
Y28048D01*
X32430Y27998D02*
X32530D01*
X32480Y27948D02*
Y28048D01*
X32707Y27998D02*
X32807D01*
X32757Y27948D02*
Y28048D01*
X29525Y27744D02*
X29625D01*
X29575Y27694D02*
Y27794D01*
X29801Y27744D02*
X29901D01*
X29851Y27694D02*
Y27794D01*
X30078Y27744D02*
X30178D01*
X30128Y27694D02*
Y27794D01*
X30355Y27744D02*
X30455D01*
X30405Y27694D02*
Y27794D01*
X30632Y27744D02*
X30732D01*
X30682Y27694D02*
Y27794D01*
X30909Y27744D02*
X31009D01*
X30959Y27694D02*
Y27794D01*
X31186Y27744D02*
X31286D01*
X31236Y27694D02*
Y27794D01*
X31463Y27744D02*
X31563D01*
X31513Y27694D02*
Y27794D01*
X31740Y27744D02*
X31840D01*
X31790Y27694D02*
Y27794D01*
X32016Y27744D02*
X32116D01*
X32066Y27694D02*
Y27794D01*
X32293Y27744D02*
X32393D01*
X32343Y27694D02*
Y27794D01*
X32570Y27744D02*
X32670D01*
X32620Y27694D02*
Y27794D01*
X32847Y27744D02*
X32947D01*
X32897Y27694D02*
Y27794D01*
X34914Y20363D02*
X35004D01*
X34959Y20318D02*
Y20408D01*
X34914Y20109D02*
X35004D01*
X34959Y20064D02*
Y20154D01*
X34914Y20617D02*
X35004D01*
X34959Y20572D02*
Y20662D01*
X26417Y17795D02*
X26517D01*
X26467Y17745D02*
Y17845D01*
X26417Y18303D02*
X26517D01*
X26467Y18253D02*
Y18353D01*
X26163Y18303D02*
X26263D01*
X26213Y18253D02*
Y18353D01*
X26417Y18557D02*
X26517D01*
X26467Y18507D02*
Y18607D01*
X26163Y18557D02*
X26263D01*
X26213Y18507D02*
Y18607D01*
X26417Y18811D02*
X26517D01*
X26467Y18761D02*
Y18861D01*
X26163Y18811D02*
X26263D01*
X26213Y18761D02*
Y18861D01*
X26417Y19065D02*
X26517D01*
X26467Y19015D02*
Y19115D01*
X26163Y19065D02*
X26263D01*
X26213Y19015D02*
Y19115D01*
X26417Y19319D02*
X26517D01*
X26467Y19269D02*
Y19369D01*
X26163Y19319D02*
X26263D01*
X26213Y19269D02*
Y19369D01*
X26417Y19573D02*
X26517D01*
X26467Y19523D02*
Y19623D01*
X26163Y19827D02*
X26263D01*
X26213Y19777D02*
Y19877D01*
X26417Y20081D02*
X26517D01*
X26467Y20031D02*
Y20131D01*
X26417Y20335D02*
X26517D01*
X26467Y20285D02*
Y20385D01*
X26163Y20335D02*
X26263D01*
X26213Y20285D02*
Y20385D01*
X26417Y20589D02*
X26517D01*
X26467Y20539D02*
Y20639D01*
X26417Y20843D02*
X26517D01*
X26467Y20793D02*
Y20893D01*
X26163Y20843D02*
X26263D01*
X26213Y20793D02*
Y20893D01*
X26417Y21097D02*
X26517D01*
X26467Y21047D02*
Y21147D01*
X26163Y21097D02*
X26263D01*
X26213Y21047D02*
Y21147D01*
X26417Y21351D02*
X26517D01*
X26467Y21301D02*
Y21401D01*
X26163Y21351D02*
X26263D01*
X26213Y21301D02*
Y21401D01*
X26417Y21605D02*
X26517D01*
X26467Y21555D02*
Y21655D01*
X26163Y21605D02*
X26263D01*
X26213Y21555D02*
Y21655D01*
X26417Y21859D02*
X26517D01*
X26467Y21809D02*
Y21909D01*
X26417Y22367D02*
X26517D01*
X26467Y22317D02*
Y22417D01*
X26163Y22367D02*
X26263D01*
X26213Y22317D02*
Y22417D01*
X26417Y22621D02*
X26517D01*
X26467Y22571D02*
Y22671D01*
X26163Y22621D02*
X26263D01*
X26213Y22571D02*
Y22671D01*
X26417Y22875D02*
X26517D01*
X26467Y22825D02*
Y22925D01*
X26163Y22875D02*
X26263D01*
X26213Y22825D02*
Y22925D01*
X26417Y23129D02*
X26517D01*
X26467Y23079D02*
Y23179D01*
X26163Y23129D02*
X26263D01*
X26213Y23079D02*
Y23179D01*
X26417Y23383D02*
X26517D01*
X26467Y23333D02*
Y23433D01*
X26163Y23383D02*
X26263D01*
X26213Y23333D02*
Y23433D01*
X26417Y23637D02*
X26517D01*
X26467Y23587D02*
Y23687D01*
X26163Y17795D02*
X26263D01*
X26213Y17745D02*
Y17845D01*
X26417Y18049D02*
X26517D01*
X26467Y17999D02*
Y18099D01*
X26417Y19827D02*
X26517D01*
X26467Y19777D02*
Y19877D01*
X26163Y21859D02*
X26263D01*
X26213Y21809D02*
Y21909D01*
X26163Y23637D02*
X26263D01*
X26213Y23587D02*
Y23687D01*
X26163Y20081D02*
X26263D01*
X26213Y20031D02*
Y20131D01*
X26163Y22113D02*
X26263D01*
X26213Y22063D02*
Y22163D01*
X26417Y17541D02*
X26517D01*
X26467Y17491D02*
Y17591D01*
X26163Y19573D02*
X26263D01*
X26213Y19523D02*
Y19623D01*
X26163Y20589D02*
X26263D01*
X26213Y20539D02*
Y20639D01*
X26417Y22113D02*
X26517D01*
X26467Y22063D02*
Y22163D01*
X26417Y23891D02*
X26517D01*
X26467Y23841D02*
Y23941D01*
X26163Y23891D02*
X26263D01*
X26213Y23841D02*
Y23941D01*
X26163Y18049D02*
X26263D01*
X26213Y17999D02*
Y18099D01*
X26163Y17541D02*
X26263D01*
X26213Y17491D02*
Y17591D01*
X32121Y17926D02*
X32198D01*
X32160Y17888D02*
Y17964D01*
X32106Y17406D02*
X32182D01*
X32144Y17368D02*
Y17444D01*
X32116Y17675D02*
X32193D01*
X32154Y17637D02*
Y17713D01*
X32104Y18168D02*
X32180D01*
X32142Y18130D02*
Y18206D01*
X26848Y17926D02*
X26925D01*
X26886Y17888D02*
Y17964D01*
X26864Y17675D02*
X26940D01*
X26902Y17637D02*
Y17713D01*
X26871Y17406D02*
X26947D01*
X26909Y17368D02*
Y17444D01*
X34580Y24659D02*
X34680D01*
X34630Y24609D02*
Y24709D01*
X34834Y24659D02*
X34934D01*
X34884Y24609D02*
Y24709D01*
X15640Y16605D02*
X15740D01*
X15690Y16555D02*
Y16655D01*
X17164Y16605D02*
X17264D01*
X17214Y16555D02*
Y16655D01*
X17164Y15843D02*
X17264D01*
X17214Y15793D02*
Y15893D01*
X15640Y15843D02*
X15740D01*
X15690Y15793D02*
Y15893D01*
X15921Y18064D02*
X16001D01*
X15961Y18024D02*
Y18104D01*
X16175Y18064D02*
X16255D01*
X16215Y18024D02*
Y18104D01*
X16429Y18064D02*
X16509D01*
X16469Y18024D02*
Y18104D01*
X16683Y18064D02*
X16763D01*
X16723Y18024D02*
Y18104D01*
X16683Y18826D02*
X16763D01*
X16723Y18786D02*
Y18866D01*
X16429Y18826D02*
X16509D01*
X16469Y18786D02*
Y18866D01*
X16175Y18826D02*
X16255D01*
X16215Y18786D02*
Y18866D01*
X15921Y18826D02*
X16001D01*
X15961Y18786D02*
Y18866D01*
X17296Y18368D02*
X17376D01*
X17336Y18328D02*
Y18408D01*
X17296Y18114D02*
X17376D01*
X17336Y18074D02*
Y18154D01*
X29394Y12394D02*
X29474D01*
X29434Y12354D02*
Y12434D01*
X29394Y14426D02*
X29474D01*
X29434Y14386D02*
Y14466D01*
X29394Y14172D02*
X29474D01*
X29434Y14132D02*
Y14212D01*
X29394Y13918D02*
X29474D01*
X29434Y13878D02*
Y13958D01*
X29394Y13664D02*
X29474D01*
X29434Y13624D02*
Y13704D01*
X29394Y13410D02*
X29474D01*
X29434Y13370D02*
Y13450D01*
X29394Y13156D02*
X29474D01*
X29434Y13116D02*
Y13196D01*
X29394Y12902D02*
X29474D01*
X29434Y12862D02*
Y12942D01*
X29394Y12648D02*
X29474D01*
X29434Y12608D02*
Y12688D01*
X28174Y12649D02*
X28254D01*
X28214Y12609D02*
Y12689D01*
X28174Y12903D02*
X28254D01*
X28214Y12863D02*
Y12943D01*
X28174Y13157D02*
X28254D01*
X28214Y13117D02*
Y13197D01*
X28174Y13411D02*
X28254D01*
X28214Y13371D02*
Y13451D01*
X28174Y13665D02*
X28254D01*
X28214Y13625D02*
Y13705D01*
X28174Y13919D02*
X28254D01*
X28214Y13879D02*
Y13959D01*
X28174Y14173D02*
X28254D01*
X28214Y14133D02*
Y14213D01*
X28174Y14427D02*
X28254D01*
X28214Y14387D02*
Y14467D01*
X28936Y14427D02*
X29016D01*
X28976Y14387D02*
Y14467D01*
X28936Y14173D02*
X29016D01*
X28976Y14133D02*
Y14213D01*
X28936Y13919D02*
X29016D01*
X28976Y13879D02*
Y13959D01*
X28936Y13665D02*
X29016D01*
X28976Y13625D02*
Y13705D01*
X28936Y13411D02*
X29016D01*
X28976Y13371D02*
Y13451D01*
X28936Y13157D02*
X29016D01*
X28976Y13117D02*
Y13197D01*
X28936Y12903D02*
X29016D01*
X28976Y12863D02*
Y12943D01*
X28936Y12649D02*
X29016D01*
X28976Y12609D02*
Y12689D01*
X25955Y12394D02*
X26035D01*
X25995Y12354D02*
Y12434D01*
X25955Y14426D02*
X26035D01*
X25995Y14386D02*
Y14466D01*
X25955Y14172D02*
X26035D01*
X25995Y14132D02*
Y14212D01*
X25955Y13918D02*
X26035D01*
X25995Y13878D02*
Y13958D01*
X25955Y13664D02*
X26035D01*
X25995Y13624D02*
Y13704D01*
X25955Y13410D02*
X26035D01*
X25995Y13370D02*
Y13450D01*
X25955Y13156D02*
X26035D01*
X25995Y13116D02*
Y13196D01*
X25955Y12902D02*
X26035D01*
X25995Y12862D02*
Y12942D01*
X25955Y12648D02*
X26035D01*
X25995Y12608D02*
Y12688D01*
X25491Y12629D02*
X25571D01*
X25531Y12589D02*
Y12669D01*
X25491Y12883D02*
X25571D01*
X25531Y12843D02*
Y12923D01*
X25491Y13137D02*
X25571D01*
X25531Y13097D02*
Y13177D01*
X25491Y13391D02*
X25571D01*
X25531Y13351D02*
Y13431D01*
X25491Y13645D02*
X25571D01*
X25531Y13605D02*
Y13685D01*
X25491Y13899D02*
X25571D01*
X25531Y13859D02*
Y13939D01*
X25491Y14153D02*
X25571D01*
X25531Y14113D02*
Y14193D01*
X25491Y14407D02*
X25571D01*
X25531Y14367D02*
Y14447D01*
X24729Y14407D02*
X24809D01*
X24769Y14367D02*
Y14447D01*
X24729Y14153D02*
X24809D01*
X24769Y14113D02*
Y14193D01*
X24729Y13899D02*
X24809D01*
X24769Y13859D02*
Y13939D01*
X24729Y13645D02*
X24809D01*
X24769Y13605D02*
Y13685D01*
X24729Y13391D02*
X24809D01*
X24769Y13351D02*
Y13431D01*
X24729Y13137D02*
X24809D01*
X24769Y13097D02*
Y13177D01*
X24729Y12883D02*
X24809D01*
X24769Y12843D02*
Y12923D01*
X24729Y12629D02*
X24809D01*
X24769Y12589D02*
Y12669D01*
X21300Y14426D02*
X21380D01*
X21340Y14386D02*
Y14466D01*
X21300Y14172D02*
X21380D01*
X21340Y14132D02*
Y14212D01*
X21300Y13918D02*
X21380D01*
X21340Y13878D02*
Y13958D01*
X21300Y13664D02*
X21380D01*
X21340Y13624D02*
Y13704D01*
X21300Y13410D02*
X21380D01*
X21340Y13370D02*
Y13450D01*
X21300Y13156D02*
X21380D01*
X21340Y13116D02*
Y13196D01*
X21300Y12902D02*
X21380D01*
X21340Y12862D02*
Y12942D01*
X21300Y12648D02*
X21380D01*
X21340Y12608D02*
Y12688D01*
X22062Y12648D02*
X22142D01*
X22102Y12608D02*
Y12688D01*
X22062Y12902D02*
X22142D01*
X22102Y12862D02*
Y12942D01*
X22062Y13156D02*
X22142D01*
X22102Y13116D02*
Y13196D01*
X22062Y13410D02*
X22142D01*
X22102Y13370D02*
Y13450D01*
X22062Y13664D02*
X22142D01*
X22102Y13624D02*
Y13704D01*
X22062Y13918D02*
X22142D01*
X22102Y13878D02*
Y13958D01*
X22062Y14172D02*
X22142D01*
X22102Y14132D02*
Y14212D01*
X22062Y14426D02*
X22142D01*
X22102Y14386D02*
Y14466D01*
X18626Y14420D02*
X18706D01*
X18666Y14380D02*
Y14460D01*
X18626Y14166D02*
X18706D01*
X18666Y14126D02*
Y14206D01*
X18626Y13912D02*
X18706D01*
X18666Y13872D02*
Y13952D01*
X18626Y13658D02*
X18706D01*
X18666Y13618D02*
Y13698D01*
X18626Y13404D02*
X18706D01*
X18666Y13364D02*
Y13444D01*
X18626Y13150D02*
X18706D01*
X18666Y13110D02*
Y13190D01*
X18626Y12896D02*
X18706D01*
X18666Y12856D02*
Y12936D01*
X18626Y12642D02*
X18706D01*
X18666Y12602D02*
Y12682D01*
X17864Y12642D02*
X17944D01*
X17904Y12602D02*
Y12682D01*
X17864Y12896D02*
X17944D01*
X17904Y12856D02*
Y12936D01*
X17864Y13150D02*
X17944D01*
X17904Y13110D02*
Y13190D01*
X17864Y13404D02*
X17944D01*
X17904Y13364D02*
Y13444D01*
X17864Y13658D02*
X17944D01*
X17904Y13618D02*
Y13698D01*
X17864Y13912D02*
X17944D01*
X17904Y13872D02*
Y13952D01*
X17864Y14166D02*
X17944D01*
X17904Y14126D02*
Y14206D01*
X17864Y14420D02*
X17944D01*
X17904Y14380D02*
Y14460D01*
X28047Y19275D02*
X28147D01*
X28097Y19225D02*
Y19325D01*
X28301Y19275D02*
X28401D01*
X28351Y19225D02*
Y19325D01*
X28555Y19275D02*
X28655D01*
X28605Y19225D02*
Y19325D01*
X28809Y19275D02*
X28909D01*
X28859Y19225D02*
Y19325D01*
X29063Y19275D02*
X29163D01*
X29113Y19225D02*
Y19325D01*
X29317Y19275D02*
X29417D01*
X29367Y19225D02*
Y19325D01*
X29571Y19275D02*
X29671D01*
X29621Y19225D02*
Y19325D01*
X29825Y19275D02*
X29925D01*
X29875Y19225D02*
Y19325D01*
X30079Y19275D02*
X30179D01*
X30129Y19225D02*
Y19325D01*
X30333Y19275D02*
X30433D01*
X30383Y19225D02*
Y19325D01*
X30587Y19275D02*
X30687D01*
X30637Y19225D02*
Y19325D01*
X30841Y19275D02*
X30941D01*
X30891Y19225D02*
Y19325D01*
X31095Y19275D02*
X31195D01*
X31145Y19225D02*
Y19325D01*
X31349Y19275D02*
X31449D01*
X31399Y19225D02*
Y19325D01*
X31603Y19275D02*
X31703D01*
X31653Y19225D02*
Y19325D01*
X31857Y19275D02*
X31957D01*
X31907Y19225D02*
Y19325D01*
X27391Y16278D02*
X27711D01*
X27551Y16118D02*
Y16438D01*
X27391Y19275D02*
X27711D01*
X27551Y19115D02*
Y19435D01*
X34884Y19275D02*
X35204D01*
X35044Y19115D02*
Y19435D01*
X34884Y16278D02*
X35204D01*
X35044Y16118D02*
Y16438D01*
X15919Y17661D02*
X16019D01*
X15969Y17611D02*
Y17711D01*
X16669Y17661D02*
X16769D01*
X16719Y17611D02*
Y17711D01*
X15919Y17211D02*
X16019D01*
X15969Y17161D02*
Y17261D01*
X16669Y17211D02*
X16769D01*
X16719Y17161D02*
Y17261D01*
X30303Y13372D02*
X30403D01*
X30353Y13322D02*
Y13422D01*
X31053Y13372D02*
X31153D01*
X31103Y13322D02*
Y13422D01*
X30303Y14323D02*
X30403D01*
X30353Y14273D02*
Y14373D01*
X31053Y14323D02*
X31153D01*
X31103Y14273D02*
Y14373D01*
X31504Y13372D02*
X31604D01*
X31554Y13322D02*
Y13422D01*
X32254Y13372D02*
X32354D01*
X32304Y13322D02*
Y13422D01*
X31504Y14323D02*
X31604D01*
X31554Y14273D02*
Y14373D01*
X32254Y14323D02*
X32354D01*
X32304Y14273D02*
Y14373D01*
X32706Y14323D02*
X32806D01*
X32756Y14273D02*
Y14373D01*
X33456Y14323D02*
X33556D01*
X33506Y14273D02*
Y14373D01*
X32706Y13873D02*
X32806D01*
X32756Y13823D02*
Y13923D01*
X33456Y13873D02*
X33556D01*
X33506Y13823D02*
Y13923D01*
X31504Y13873D02*
X31604D01*
X31554Y13823D02*
Y13923D01*
X32254Y13873D02*
X32354D01*
X32304Y13823D02*
Y13923D01*
X30303Y13873D02*
X30403D01*
X30353Y13823D02*
Y13923D01*
X31053Y13873D02*
X31153D01*
X31103Y13823D02*
Y13923D01*
X31504Y12922D02*
X31604D01*
X31554Y12872D02*
Y12972D01*
X32254Y12922D02*
X32354D01*
X32304Y12872D02*
Y12972D01*
X30303Y12922D02*
X30403D01*
X30353Y12872D02*
Y12972D01*
X31053Y12922D02*
X31153D01*
X31103Y12872D02*
Y12972D01*
X34653Y25883D02*
X34753D01*
X34703Y25833D02*
Y25933D01*
X31627Y19813D02*
X31707D01*
X31667Y19773D02*
Y19853D01*
X19695Y16618D02*
X19795D01*
X19745Y16568D02*
Y16668D01*
X34614Y23590D02*
X34714D01*
X34664Y23540D02*
Y23640D01*
X27628Y23795D02*
X27728D01*
X27678Y23745D02*
Y23845D01*
X27628Y21774D02*
X27728D01*
X27678Y21724D02*
Y21824D01*
X27628Y22448D02*
X27728D01*
X27678Y22398D02*
Y22498D01*
X27628Y23122D02*
X27728D01*
X27678Y23072D02*
Y23172D01*
X18494Y23852D02*
X18594D01*
X18544Y23802D02*
Y23902D01*
X18240Y23598D02*
X18340D01*
X18290Y23548D02*
Y23648D01*
X18494Y23598D02*
X18594D01*
X18544Y23548D02*
Y23648D01*
X18240Y23344D02*
X18340D01*
X18290Y23294D02*
Y23394D01*
X18494Y23344D02*
X18594D01*
X18544Y23294D02*
Y23394D01*
X18240Y23090D02*
X18340D01*
X18290Y23040D02*
Y23140D01*
X18494Y23090D02*
X18594D01*
X18544Y23040D02*
Y23140D01*
X18240Y22836D02*
X18340D01*
X18290Y22786D02*
Y22886D01*
X18494Y22836D02*
X18594D01*
X18544Y22786D02*
Y22886D01*
X18240Y22582D02*
X18340D01*
X18290Y22532D02*
Y22632D01*
X18494Y22582D02*
X18594D01*
X18544Y22532D02*
Y22632D01*
X18240Y22328D02*
X18340D01*
X18290Y22278D02*
Y22378D01*
X18494Y22328D02*
X18594D01*
X18544Y22278D02*
Y22378D01*
X18240Y22074D02*
X18340D01*
X18290Y22024D02*
Y22124D01*
X18240Y21566D02*
X18340D01*
X18290Y21516D02*
Y21616D01*
X18494Y21566D02*
X18594D01*
X18544Y21516D02*
Y21616D01*
X18240Y21312D02*
X18340D01*
X18290Y21262D02*
Y21362D01*
X18494Y21312D02*
X18594D01*
X18544Y21262D02*
Y21362D01*
X18240Y21058D02*
X18340D01*
X18290Y21008D02*
Y21108D01*
X18494Y21058D02*
X18594D01*
X18544Y21008D02*
Y21108D01*
X18494Y20804D02*
X18594D01*
X18544Y20754D02*
Y20854D01*
X18494Y20550D02*
X18594D01*
X18544Y20500D02*
Y20600D01*
X18494Y20296D02*
X18594D01*
X18544Y20246D02*
Y20346D01*
X18240Y20042D02*
X18340D01*
X18290Y19992D02*
Y20092D01*
X18494Y20042D02*
X18594D01*
X18544Y19992D02*
Y20092D01*
X18240Y19788D02*
X18340D01*
X18290Y19738D02*
Y19838D01*
X18494Y19788D02*
X18594D01*
X18544Y19738D02*
Y19838D01*
X18240Y19534D02*
X18340D01*
X18290Y19484D02*
Y19584D01*
X18494Y19534D02*
X18594D01*
X18544Y19484D02*
Y19584D01*
X18240Y19280D02*
X18340D01*
X18290Y19230D02*
Y19330D01*
X18494Y19280D02*
X18594D01*
X18544Y19230D02*
Y19330D01*
X18240Y19026D02*
X18340D01*
X18290Y18976D02*
Y19076D01*
X18494Y18772D02*
X18594D01*
X18544Y18722D02*
Y18822D01*
X18240Y18518D02*
X18340D01*
X18290Y18468D02*
Y18568D01*
X18494Y18518D02*
X18594D01*
X18544Y18468D02*
Y18568D01*
X18240Y18264D02*
X18340D01*
X18290Y18214D02*
Y18314D01*
X18494Y18264D02*
X18594D01*
X18544Y18214D02*
Y18314D01*
X18240Y18010D02*
X18340D01*
X18290Y17960D02*
Y18060D01*
X18494Y18010D02*
X18594D01*
X18544Y17960D02*
Y18060D01*
X18240Y17756D02*
X18340D01*
X18290Y17706D02*
Y17806D01*
X19187Y16618D02*
X19287D01*
X19237Y16568D02*
Y16668D01*
X19187Y16872D02*
X19287D01*
X19237Y16822D02*
Y16922D01*
X24775Y16872D02*
X24875D01*
X24825Y16822D02*
Y16922D01*
X25029Y16618D02*
X25129D01*
X25079Y16568D02*
Y16668D01*
X25490Y24802D02*
X25590D01*
X25540Y24752D02*
Y24852D01*
X25490Y24548D02*
X25590D01*
X25540Y24498D02*
Y24598D01*
X25236Y24802D02*
X25336D01*
X25286Y24752D02*
Y24852D01*
X25236Y24548D02*
X25336D01*
X25286Y24498D02*
Y24598D01*
X24982Y24802D02*
X25082D01*
X25032Y24752D02*
Y24852D01*
X24220Y24548D02*
X24320D01*
X24270Y24498D02*
Y24598D01*
X23966Y24802D02*
X24066D01*
X24016Y24752D02*
Y24852D01*
X23712Y24548D02*
X23812D01*
X23762Y24498D02*
Y24598D01*
X23458Y24802D02*
X23558D01*
X23508Y24752D02*
Y24852D01*
X21680Y24548D02*
X21780D01*
X21730Y24498D02*
Y24598D01*
X21426Y24802D02*
X21526D01*
X21476Y24752D02*
Y24852D01*
X21426Y24548D02*
X21526D01*
X21476Y24498D02*
Y24598D01*
X20664Y24548D02*
X20764D01*
X20714Y24498D02*
Y24598D01*
X20410Y24802D02*
X20510D01*
X20460Y24752D02*
Y24852D01*
X20410Y24548D02*
X20510D01*
X20460Y24498D02*
Y24598D01*
X20156Y24802D02*
X20256D01*
X20206Y24752D02*
Y24852D01*
X19902Y24802D02*
X20002D01*
X19952Y24752D02*
Y24852D01*
X19902Y24548D02*
X20002D01*
X19952Y24498D02*
Y24598D01*
X19648Y24802D02*
X19748D01*
X19698Y24752D02*
Y24852D01*
X19648Y24548D02*
X19748D01*
X19698Y24498D02*
Y24598D01*
X19394Y24802D02*
X19494D01*
X19444Y24752D02*
Y24852D01*
X23458Y24548D02*
X23558D01*
X23508Y24498D02*
Y24598D01*
X23204Y24548D02*
X23304D01*
X23254Y24498D02*
Y24598D01*
X19441Y16618D02*
X19541D01*
X19491Y16568D02*
Y16668D01*
X19394Y24548D02*
X19494D01*
X19444Y24498D02*
Y24598D01*
X24474Y24548D02*
X24574D01*
X24524Y24498D02*
Y24598D01*
X24220Y24802D02*
X24320D01*
X24270Y24752D02*
Y24852D01*
X29595Y19813D02*
X29675D01*
X29635Y19773D02*
Y19853D01*
X22950Y24802D02*
X23050D01*
X23000Y24752D02*
Y24852D01*
X29849Y19813D02*
X29929D01*
X29889Y19773D02*
Y19853D01*
X22696Y24802D02*
X22796D01*
X22746Y24752D02*
Y24852D01*
X30103Y19813D02*
X30183D01*
X30143Y19773D02*
Y19853D01*
X22696Y24548D02*
X22796D01*
X22746Y24498D02*
Y24598D01*
X30357Y19813D02*
X30437D01*
X30397Y19773D02*
Y19853D01*
X22442Y24802D02*
X22542D01*
X22492Y24752D02*
Y24852D01*
X30611Y19813D02*
X30691D01*
X30651Y19773D02*
Y19853D01*
X22442Y24548D02*
X22542D01*
X22492Y24498D02*
Y24598D01*
X30865Y19813D02*
X30945D01*
X30905Y19773D02*
Y19853D01*
X22188Y24802D02*
X22288D01*
X22238Y24752D02*
Y24852D01*
X31119Y19813D02*
X31199D01*
X31159Y19773D02*
Y19853D01*
X22188Y24548D02*
X22288D01*
X22238Y24498D02*
Y24598D01*
X31373Y19813D02*
X31453D01*
X31413Y19773D02*
Y19853D01*
X21934Y24802D02*
X22034D01*
X21984Y24752D02*
Y24852D01*
X19695Y16872D02*
X19795D01*
X19745Y16822D02*
Y16922D01*
X19949Y16618D02*
X20049D01*
X19999Y16568D02*
Y16668D01*
X19949Y16872D02*
X20049D01*
X19999Y16822D02*
Y16922D01*
X20203Y16618D02*
X20303D01*
X20253Y16568D02*
Y16668D01*
X20457Y16618D02*
X20557D01*
X20507Y16568D02*
Y16668D01*
X20457Y16872D02*
X20557D01*
X20507Y16822D02*
Y16922D01*
X20711Y16872D02*
X20811D01*
X20761Y16822D02*
Y16922D01*
X20965Y16618D02*
X21065D01*
X21015Y16568D02*
Y16668D01*
X20965Y16872D02*
X21065D01*
X21015Y16822D02*
Y16922D01*
X21219Y16618D02*
X21319D01*
X21269Y16568D02*
Y16668D01*
X21219Y16872D02*
X21319D01*
X21269Y16822D02*
Y16922D01*
X21727Y16618D02*
X21827D01*
X21777Y16568D02*
Y16668D01*
X21727Y16872D02*
X21827D01*
X21777Y16822D02*
Y16922D01*
X21981Y16618D02*
X22081D01*
X22031Y16568D02*
Y16668D01*
X21981Y16872D02*
X22081D01*
X22031Y16822D02*
Y16922D01*
X22235Y16618D02*
X22335D01*
X22285Y16568D02*
Y16668D01*
X19077Y12648D02*
X19157D01*
X19117Y12608D02*
Y12688D01*
X19077Y12902D02*
X19157D01*
X19117Y12862D02*
Y12942D01*
X19077Y13156D02*
X19157D01*
X19117Y13116D02*
Y13196D01*
X19077Y13410D02*
X19157D01*
X19117Y13370D02*
Y13450D01*
X19077Y13664D02*
X19157D01*
X19117Y13624D02*
Y13704D01*
X19077Y13918D02*
X19157D01*
X19117Y13878D02*
Y13958D01*
X19077Y14172D02*
X19157D01*
X19117Y14132D02*
Y14212D01*
X19077Y14426D02*
X19157D01*
X19117Y14386D02*
Y14466D01*
X22516Y12648D02*
X22596D01*
X22556Y12608D02*
Y12688D01*
X22516Y12902D02*
X22596D01*
X22556Y12862D02*
Y12942D01*
X22516Y13156D02*
X22596D01*
X22556Y13116D02*
Y13196D01*
X22516Y13410D02*
X22596D01*
X22556Y13370D02*
Y13450D01*
X22516Y13664D02*
X22596D01*
X22556Y13624D02*
Y13704D01*
X22516Y13918D02*
X22596D01*
X22556Y13878D02*
Y13958D01*
X22516Y14172D02*
X22596D01*
X22556Y14132D02*
Y14212D01*
X22516Y14426D02*
X22596D01*
X22556Y14386D02*
Y14466D01*
X23204Y24802D02*
X23304D01*
X23254Y24752D02*
Y24852D01*
X24474Y24802D02*
X24574D01*
X24524Y24752D02*
Y24852D01*
X24728Y24548D02*
X24828D01*
X24778Y24498D02*
Y24598D01*
X24728Y24802D02*
X24828D01*
X24778Y24752D02*
Y24852D01*
X19441Y16872D02*
X19541D01*
X19491Y16822D02*
Y16922D01*
X21172Y24548D02*
X21272D01*
X21222Y24498D02*
Y24598D01*
X21172Y24802D02*
X21272D01*
X21222Y24752D02*
Y24852D01*
X22235Y16872D02*
X22335D01*
X22285Y16822D02*
Y16922D01*
X22489Y16618D02*
X22589D01*
X22539Y16568D02*
Y16668D01*
X22489Y16872D02*
X22589D01*
X22539Y16822D02*
Y16922D01*
X22743Y16872D02*
X22843D01*
X22793Y16822D02*
Y16922D01*
X22997Y16618D02*
X23097D01*
X23047Y16568D02*
Y16668D01*
X22997Y16872D02*
X23097D01*
X23047Y16822D02*
Y16922D01*
X23251Y16618D02*
X23351D01*
X23301Y16568D02*
Y16668D01*
X23251Y16872D02*
X23351D01*
X23301Y16822D02*
Y16922D01*
X23505Y16618D02*
X23605D01*
X23555Y16568D02*
Y16668D01*
X23759Y16872D02*
X23859D01*
X23809Y16822D02*
Y16922D01*
X24013Y16618D02*
X24113D01*
X24063Y16568D02*
Y16668D01*
X24013Y16872D02*
X24113D01*
X24063Y16822D02*
Y16922D01*
X24267Y16618D02*
X24367D01*
X24317Y16568D02*
Y16668D01*
X24267Y16872D02*
X24367D01*
X24317Y16822D02*
Y16922D01*
X24521Y16618D02*
X24621D01*
X24571Y16568D02*
Y16668D01*
X24521Y16872D02*
X24621D01*
X24571Y16822D02*
Y16922D01*
X25283Y16618D02*
X25383D01*
X25333Y16568D02*
Y16668D01*
X33050Y24998D02*
X33150D01*
X33100Y24948D02*
Y25048D01*
X34907Y25629D02*
X35007D01*
X34957Y25579D02*
Y25679D01*
X33050Y25252D02*
X33150D01*
X33100Y25202D02*
Y25302D01*
X33050Y24744D02*
X33150D01*
X33100Y24694D02*
Y24794D01*
X25283Y16872D02*
X25383D01*
X25333Y16822D02*
Y16922D01*
X33050Y26788D02*
X33150D01*
X33100Y26738D02*
Y26838D01*
X34907Y26645D02*
X35007D01*
X34957Y26595D02*
Y26695D01*
X33050Y27042D02*
X33150D01*
X33100Y26992D02*
Y27092D01*
X33050Y26534D02*
X33150D01*
X33100Y26484D02*
Y26584D01*
X34907Y25883D02*
X35007D01*
X34957Y25833D02*
Y25933D01*
X25537Y16618D02*
X25637D01*
X25587Y16568D02*
Y16668D01*
X33050Y25893D02*
X33150D01*
X33100Y25843D02*
Y25943D01*
X34907Y26137D02*
X35007D01*
X34957Y26087D02*
Y26187D01*
X33050Y26147D02*
X33150D01*
X33100Y26097D02*
Y26197D01*
X33050Y25639D02*
X33150D01*
X33100Y25589D02*
Y25689D01*
X34653Y26391D02*
X34753D01*
X34703Y26341D02*
Y26441D01*
X20918Y24548D02*
X21018D01*
X20968Y24498D02*
Y24598D01*
X20918Y24802D02*
X21018D01*
X20968Y24752D02*
Y24852D01*
X19077Y12394D02*
X19157D01*
X19117Y12354D02*
Y12434D01*
X22516Y12394D02*
X22596D01*
X22556Y12354D02*
Y12434D01*
X34868Y23590D02*
X34968D01*
X34918Y23540D02*
Y23640D01*
X27374Y23795D02*
X27474D01*
X27424Y23745D02*
Y23845D01*
X27374Y21774D02*
X27474D01*
X27424Y21724D02*
Y21824D01*
X27374Y22448D02*
X27474D01*
X27424Y22398D02*
Y22498D01*
X27374Y23122D02*
X27474D01*
X27424Y23072D02*
Y23172D01*
X23966Y24548D02*
X24066D01*
X24016Y24498D02*
Y24598D01*
X21934Y24548D02*
X22034D01*
X21984Y24498D02*
Y24598D01*
X20156Y24548D02*
X20256D01*
X20206Y24498D02*
Y24598D01*
X19140Y24548D02*
X19240D01*
X19190Y24498D02*
Y24598D01*
X27374Y24049D02*
X27474D01*
X27424Y23999D02*
Y24099D01*
X27628Y24049D02*
X27728D01*
X27678Y23999D02*
Y24099D01*
X27882Y24049D02*
X27982D01*
X27932Y23999D02*
Y24099D01*
X27374Y22028D02*
X27474D01*
X27424Y21978D02*
Y22078D01*
X27628Y22028D02*
X27728D01*
X27678Y21978D02*
Y22078D01*
X27882Y22028D02*
X27982D01*
X27932Y21978D02*
Y22078D01*
X20203Y16872D02*
X20303D01*
X20253Y16822D02*
Y16922D01*
X21473Y16872D02*
X21573D01*
X21523Y16822D02*
Y16922D01*
X23759Y16618D02*
X23859D01*
X23809Y16568D02*
Y16668D01*
X25537Y16872D02*
X25637D01*
X25587Y16822D02*
Y16922D01*
X27374Y22702D02*
X27474D01*
X27424Y22652D02*
Y22752D01*
X27628Y22702D02*
X27728D01*
X27678Y22652D02*
Y22752D01*
X27882Y22702D02*
X27982D01*
X27932Y22652D02*
Y22752D01*
X18494Y21820D02*
X18594D01*
X18544Y21770D02*
Y21870D01*
X18494Y19026D02*
X18594D01*
X18544Y18976D02*
Y19076D01*
X18494Y17756D02*
X18594D01*
X18544Y17706D02*
Y17806D01*
X27374Y23376D02*
X27474D01*
X27424Y23326D02*
Y23426D01*
X27628Y23376D02*
X27728D01*
X27678Y23326D02*
Y23426D01*
X27882Y23376D02*
X27982D01*
X27932Y23326D02*
Y23426D01*
X18494Y22074D02*
X18594D01*
X18544Y22024D02*
Y22124D01*
X18240Y20550D02*
X18340D01*
X18290Y20500D02*
Y20600D01*
X21473Y16618D02*
X21573D01*
X21523Y16568D02*
Y16668D01*
X23505Y16872D02*
X23605D01*
X23555Y16822D02*
Y16922D01*
X23712Y24802D02*
X23812D01*
X23762Y24752D02*
Y24852D01*
X21680Y24802D02*
X21780D01*
X21730Y24752D02*
Y24852D01*
X34360Y23590D02*
X34460D01*
X34410Y23540D02*
Y23640D01*
X27882Y23795D02*
X27982D01*
X27932Y23745D02*
Y23845D01*
X27882Y21774D02*
X27982D01*
X27932Y21724D02*
Y21824D01*
X27882Y22448D02*
X27982D01*
X27932Y22398D02*
Y22498D01*
X27882Y23122D02*
X27982D01*
X27932Y23072D02*
Y23172D01*
X34653Y26645D02*
X34753D01*
X34703Y26595D02*
Y26695D01*
X34653Y25629D02*
X34753D01*
X34703Y25579D02*
Y25679D01*
X18240Y23852D02*
X18340D01*
X18290Y23802D02*
Y23902D01*
X18240Y21820D02*
X18340D01*
X18290Y21770D02*
Y21870D01*
X18240Y20804D02*
X18340D01*
X18290Y20754D02*
Y20854D01*
X18240Y20296D02*
X18340D01*
X18290Y20246D02*
Y20346D01*
X18240Y18772D02*
X18340D01*
X18290Y18722D02*
Y18822D01*
X18240Y17502D02*
X18340D01*
X18290Y17452D02*
Y17552D01*
X18494Y17502D02*
X18594D01*
X18544Y17452D02*
Y17552D01*
X20711Y16618D02*
X20811D01*
X20761Y16568D02*
Y16668D01*
X22743Y16618D02*
X22843D01*
X22793Y16568D02*
Y16668D01*
X24775Y16618D02*
X24875D01*
X24825Y16568D02*
Y16668D01*
X25029Y16872D02*
X25129D01*
X25079Y16822D02*
Y16922D01*
X22950Y24548D02*
X23050D01*
X23000Y24498D02*
Y24598D01*
X20664Y24802D02*
X20764D01*
X20714Y24752D02*
Y24852D01*
X19140Y24802D02*
X19240D01*
X19190Y24752D02*
Y24852D01*
X24982Y24548D02*
X25082D01*
X25032Y24498D02*
Y24598D01*
X34653Y26137D02*
X34753D01*
X34703Y26087D02*
Y26187D01*
X34360Y23844D02*
X34460D01*
X34410Y23794D02*
Y23894D01*
X34614Y23844D02*
X34714D01*
X34664Y23794D02*
Y23894D01*
X34868Y23844D02*
X34968D01*
X34918Y23794D02*
Y23894D01*
X34907Y26391D02*
X35007D01*
X34957Y26341D02*
Y26441D01*
X15675Y12323D02*
X15995D01*
X15835Y12163D02*
Y12483D01*
X34675Y12323D02*
X34995D01*
X34835Y12163D02*
Y12483D01*
X33456Y12922D02*
X33556D01*
X33506Y12872D02*
Y12972D01*
X32706Y12922D02*
X32806D01*
X32756Y12872D02*
Y12972D01*
X33456Y13372D02*
X33556D01*
X33506Y13322D02*
Y13422D01*
X32706Y13372D02*
X32806D01*
X32756Y13322D02*
Y13422D01*
X34667Y28324D02*
X34987D01*
X34827Y28164D02*
Y28484D01*
X21305Y25836D02*
X21405D01*
X21355Y25786D02*
Y25886D01*
X20797Y25836D02*
X20897D01*
X20847Y25786D02*
Y25886D01*
X26626Y25814D02*
X26726D01*
X26676Y25764D02*
Y25864D01*
X26118Y25814D02*
X26218D01*
X26168Y25764D02*
Y25864D01*
X23916Y25836D02*
X24016D01*
X23966Y25786D02*
Y25886D01*
X23408Y25836D02*
X23508D01*
X23458Y25786D02*
Y25886D01*
X17236Y25780D02*
X17336D01*
X17286Y25730D02*
Y25830D01*
X17236Y25272D02*
X17336D01*
X17286Y25222D02*
Y25322D01*
X17477Y26339D02*
X17577D01*
X17527Y26289D02*
Y26389D01*
X17477Y27355D02*
X17577D01*
X17527Y27305D02*
Y27405D01*
X17812Y26339D02*
X17912D01*
X17862Y26289D02*
Y26389D01*
X17812Y27355D02*
X17912D01*
X17862Y27305D02*
Y27405D01*
X17141Y26339D02*
X17241D01*
X17191Y26289D02*
Y26389D01*
X17141Y27355D02*
X17241D01*
X17191Y27305D02*
Y27405D01*
X16806Y26339D02*
X16906D01*
X16856Y26289D02*
Y26389D01*
X16806Y27355D02*
X16906D01*
X16856Y27305D02*
Y27405D01*
X15672Y28327D02*
X15992D01*
X15832Y28167D02*
Y28487D01*
X18302Y26246D02*
X18402D01*
X18352Y26196D02*
Y26296D01*
X19826Y26246D02*
X19926D01*
X19876Y26196D02*
Y26296D01*
X19826Y25484D02*
X19926D01*
X19876Y25434D02*
Y25534D01*
X18302Y25484D02*
X18402D01*
X18352Y25434D02*
Y25534D01*
X26374Y25042D02*
X26474D01*
X26424Y24992D02*
Y25092D01*
X27390Y25042D02*
X27490D01*
X27440Y24992D02*
Y25092D01*
X28282Y25070D02*
X28362D01*
X28322Y25030D02*
Y25110D01*
X28028Y25070D02*
X28108D01*
X28068Y25030D02*
Y25110D01*
X17117Y24421D02*
X17197D01*
X17157Y24381D02*
Y24461D01*
X16863Y24421D02*
X16943D01*
X16903Y24381D02*
Y24461D01*
X17827Y22022D02*
X17907D01*
X17867Y21982D02*
Y22062D01*
X17573Y22022D02*
X17653D01*
X17613Y21982D02*
Y22062D01*
X17827Y24399D02*
X17907D01*
X17867Y24359D02*
Y24439D01*
X17573Y24399D02*
X17653D01*
X17613Y24359D02*
Y24439D01*
X16125Y26705D02*
X16445D01*
X16285Y26545D02*
Y26865D01*
X16125Y24201D02*
X16445D01*
X16285Y24041D02*
Y24361D01*
X16108Y25870D02*
X16208D01*
X16158Y25820D02*
Y25920D01*
X16108Y25593D02*
X16208D01*
X16158Y25543D02*
Y25643D01*
X16108Y25316D02*
X16208D01*
X16158Y25266D02*
Y25366D01*
X16108Y25039D02*
X16208D01*
X16158Y24989D02*
Y25089D01*
X16362Y26007D02*
X16462D01*
X16412Y25957D02*
Y26057D01*
X16362Y25730D02*
X16462D01*
X16412Y25680D02*
Y25780D01*
X16362Y25453D02*
X16462D01*
X16412Y25403D02*
Y25503D01*
X16362Y25176D02*
X16462D01*
X16412Y25126D02*
Y25226D01*
X16362Y24899D02*
X16462D01*
X16412Y24849D02*
Y24949D01*
X16117Y23019D02*
X16437D01*
X16277Y22859D02*
Y23179D01*
X16117Y20514D02*
X16437D01*
X16277Y20354D02*
Y20674D01*
X16100Y22183D02*
X16200D01*
X16150Y22133D02*
Y22233D01*
X16100Y21906D02*
X16200D01*
X16150Y21856D02*
Y21956D01*
X16100Y21629D02*
X16200D01*
X16150Y21579D02*
Y21679D01*
X16100Y21352D02*
X16200D01*
X16150Y21302D02*
Y21402D01*
X16354Y22320D02*
X16454D01*
X16404Y22270D02*
Y22370D01*
X16354Y22043D02*
X16454D01*
X16404Y21993D02*
Y22093D01*
X16354Y21767D02*
X16454D01*
X16404Y21717D02*
Y21817D01*
X16354Y21490D02*
X16454D01*
X16404Y21440D02*
Y21540D01*
X16354Y21213D02*
X16454D01*
X16404Y21163D02*
Y21263D01*
X23615Y19920D02*
X23691D01*
X23653Y19882D02*
Y19958D01*
X29669Y23080D02*
X29769D01*
X29719Y23030D02*
Y23130D01*
X29676Y23801D02*
X29776D01*
X29726Y23751D02*
Y23851D01*
X29653Y24330D02*
X29753D01*
X29703Y24280D02*
Y24380D01*
X29630Y24858D02*
X29730D01*
X29680Y24808D02*
Y24908D01*
X34571Y22727D02*
X34671D01*
X34621Y22677D02*
Y22777D01*
X34571Y22155D02*
X34671D01*
X34621Y22105D02*
Y22205D01*
X34578Y21586D02*
X34678D01*
X34628Y21536D02*
Y21636D01*
X18086Y16143D02*
X18186D01*
X18136Y16093D02*
Y16193D01*
X17017Y19585D02*
X17117D01*
X17067Y19535D02*
Y19635D01*
X16863Y22034D02*
X16943D01*
X16903Y21994D02*
Y22074D01*
X17117Y22034D02*
X17197D01*
X17157Y21994D02*
Y22074D01*
X21828Y26636D02*
X21948D01*
X21888Y26576D02*
Y26696D01*
X21320Y26636D02*
X21440D01*
X21380Y26576D02*
Y26696D01*
X21574Y26636D02*
X21694D01*
X21634Y26576D02*
Y26696D01*
X21474Y28414D02*
X21794D01*
X21634Y28254D02*
Y28574D01*
X24487Y26638D02*
X24607D01*
X24547Y26578D02*
Y26698D01*
X24233Y26638D02*
X24353D01*
X24293Y26578D02*
Y26698D01*
X23979Y26638D02*
X24099D01*
X24039Y26578D02*
Y26698D01*
X24133Y28416D02*
X24453D01*
X24293Y28256D02*
Y28576D01*
X27139Y26608D02*
X27259D01*
X27199Y26548D02*
Y26668D01*
X26885Y26608D02*
X27005D01*
X26945Y26548D02*
Y26668D01*
X26631Y26608D02*
X26751D01*
X26691Y26548D02*
Y26668D01*
X26785Y28386D02*
X27105D01*
X26945Y28226D02*
Y28546D01*
X19405Y27415D02*
X19555D01*
X19480Y27340D02*
Y27490D01*
X19567Y27415D02*
X19717D01*
X19642Y27340D02*
Y27490D01*
X19476Y27420D02*
X19626D01*
X19551Y27345D02*
Y27495D01*
X19405Y28015D02*
X19555D01*
X19480Y27940D02*
Y28090D01*
X19580Y28015D02*
X19730D01*
X19655Y27940D02*
Y28090D01*
X18904Y27766D02*
X19054D01*
X18979Y27691D02*
Y27841D01*
X18904Y27665D02*
X19054D01*
X18979Y27590D02*
Y27740D01*
X18904Y27715D02*
X19054D01*
X18979Y27640D02*
Y27790D01*
X19481Y28015D02*
X19631D01*
X19556Y27940D02*
Y28090D01*
X28262Y19817D02*
X28342D01*
X28302Y19777D02*
Y19857D01*
X28516Y19817D02*
X28596D01*
X28556Y19777D02*
Y19857D01*
X28770Y19817D02*
X28850D01*
X28810Y19777D02*
Y19857D01*
X29024Y19817D02*
X29104D01*
X29064Y19777D02*
Y19857D01*
X29278Y19817D02*
X29358D01*
X29318Y19777D02*
Y19857D01*
X17963Y28214D02*
X18113D01*
X18038Y28139D02*
Y28289D01*
X16663Y28214D02*
X16813D01*
X16738Y28139D02*
Y28289D01*
X17028Y28214D02*
X17148D01*
X17088Y28154D02*
Y28274D01*
X17328Y28214D02*
X17448D01*
X17388Y28154D02*
Y28274D01*
X17628Y28214D02*
X17748D01*
X17688Y28154D02*
Y28274D01*
X16663Y28278D02*
X16813D01*
X16738Y28203D02*
Y28353D01*
X16663Y28125D02*
X16813D01*
X16738Y28050D02*
Y28200D01*
X17961Y28214D02*
X18111D01*
X18036Y28139D02*
Y28289D01*
X17961Y28278D02*
X18111D01*
X18036Y28203D02*
Y28353D01*
X17961Y28125D02*
X18111D01*
X18036Y28050D02*
Y28200D01*
X17585Y20083D02*
X17656D01*
X17621Y20047D02*
Y20118D01*
X17588Y18942D02*
X17659D01*
X17623Y18907D02*
Y18978D01*
X24382Y25958D02*
X24453D01*
X24418Y25922D02*
Y25993D01*
X28875Y21630D02*
X28946D01*
X28911Y21594D02*
Y21665D01*
X28728Y21475D02*
X28799D01*
X28764Y21439D02*
Y21510D01*
X20661Y25168D02*
X20732D01*
X20697Y25132D02*
Y25203D01*
X28327Y22897D02*
X28398D01*
X28362Y22862D02*
Y22933D01*
X28327Y22252D02*
X28398D01*
X28362Y22216D02*
Y22288D01*
X28306Y23593D02*
X28377D01*
X28342Y23558D02*
Y23629D01*
X22221Y20916D02*
X22292D01*
X22256Y20880D02*
Y20951D01*
X21941Y20713D02*
X22012D01*
X21977Y20677D02*
Y20748D01*
X22579Y20306D02*
X22650D01*
X22614Y20271D02*
Y20342D01*
X33468Y17403D02*
X33539D01*
X33503Y17368D02*
Y17439D01*
X33808Y24652D02*
X33879D01*
X33844Y24617D02*
Y24688D01*
X33816Y18168D02*
X33887D01*
X33851Y18132D02*
Y18203D01*
X33993Y17924D02*
X34065D01*
X34029Y17888D02*
Y17959D01*
X33640Y17675D02*
X33711D01*
X33676Y17639D02*
Y17710D01*
X33988Y26011D02*
X34059D01*
X34024Y25976D02*
Y26047D01*
X26015Y16809D02*
X26086D01*
X26051Y16773D02*
Y16844D01*
X17702Y16981D02*
X17773D01*
X17737Y16946D02*
Y17017D01*
X17704Y17350D02*
X17776D01*
X17740Y17314D02*
Y17385D01*
X30227Y26910D02*
X30298D01*
X30262Y26875D02*
Y26946D01*
X31331Y26918D02*
X31403D01*
X31367Y26882D02*
Y26953D01*
X30867Y27454D02*
X30938D01*
X30902Y27418D02*
Y27489D01*
X30318Y27307D02*
X30389D01*
X30354Y27271D02*
Y27342D01*
X31344Y27317D02*
X31415D01*
X31380Y27281D02*
Y27352D01*
X31324Y25092D02*
X31395D01*
X31359Y25056D02*
Y25127D01*
X31108Y25275D02*
X31179D01*
X31144Y25239D02*
Y25310D01*
X29655Y26176D02*
X29726D01*
X29691Y26141D02*
Y26212D01*
X29542Y25583D02*
X29613D01*
X29577Y25547D02*
Y25618D01*
X27484Y12282D02*
X27555D01*
X27520Y12246D02*
Y12317D01*
X27484Y12693D02*
X27555D01*
X27520Y12658D02*
Y12729D01*
X27484Y13107D02*
X27555D01*
X27520Y13072D02*
Y13143D01*
X27484Y13519D02*
X27555D01*
X27520Y13483D02*
Y13554D01*
X27484Y13928D02*
X27555D01*
X27520Y13892D02*
Y13963D01*
X27484Y14342D02*
X27555D01*
X27520Y14306D02*
Y14377D01*
X27484Y14751D02*
X27555D01*
X27520Y14715D02*
Y14786D01*
X27479Y15152D02*
X27550D01*
X27515Y15116D02*
Y15187D01*
X24049Y12271D02*
X24120D01*
X24084Y12235D02*
Y12306D01*
X24049Y12687D02*
X24120D01*
X24084Y12652D02*
Y12723D01*
X24049Y13096D02*
X24120D01*
X24084Y13061D02*
Y13132D01*
X24049Y13919D02*
X24120D01*
X24084Y13884D02*
Y13955D01*
X24049Y13508D02*
X24120D01*
X24084Y13472D02*
Y13543D01*
X24049Y14326D02*
X24120D01*
X24084Y14290D02*
Y14361D01*
X24049Y14737D02*
X24120D01*
X24084Y14702D02*
Y14773D01*
X24044Y15149D02*
X24115D01*
X24079Y15113D02*
Y15184D01*
X20603Y12283D02*
X20674D01*
X20638Y12248D02*
Y12319D01*
X20603Y12692D02*
X20674D01*
X20638Y12657D02*
Y12728D01*
X20603Y13106D02*
X20674D01*
X20638Y13071D02*
Y13142D01*
X20603Y13518D02*
X20674D01*
X20638Y13482D02*
Y13553D01*
X20603Y13924D02*
X20674D01*
X20638Y13889D02*
Y13960D01*
X20603Y14338D02*
X20674D01*
X20638Y14303D02*
Y14374D01*
X20603Y14745D02*
X20674D01*
X20638Y14709D02*
Y14780D01*
X20593Y15154D02*
X20664D01*
X20628Y15118D02*
Y15189D01*
X17187Y12269D02*
X17258D01*
X17222Y12234D02*
Y12305D01*
X17187Y12676D02*
X17258D01*
X17222Y12640D02*
Y12711D01*
X17187Y13087D02*
X17258D01*
X17222Y13052D02*
Y13123D01*
X17187Y13504D02*
X17258D01*
X17222Y13468D02*
Y13539D01*
X17187Y13905D02*
X17258D01*
X17222Y13870D02*
Y13941D01*
X17187Y14319D02*
X17258D01*
X17222Y14284D02*
Y14355D01*
X17187Y14741D02*
X17258D01*
X17222Y14705D02*
Y14776D01*
X17187Y15147D02*
X17258D01*
X17222Y15112D02*
Y15183D01*
X17077Y23410D02*
X17148D01*
X17113Y23375D02*
Y23446D01*
X17252Y23316D02*
X17323D01*
X17288Y23281D02*
Y23352D01*
X19249Y26887D02*
X19320D01*
X19284Y26852D02*
Y26923D01*
X16745Y22956D02*
X16816D01*
X16780Y22920D02*
Y22991D01*
X21288Y21109D02*
X21359D01*
X21324Y21073D02*
Y21145D01*
X21933Y21713D02*
X22005D01*
X21969Y21678D02*
Y21749D01*
X23361Y21170D02*
X23432D01*
X23397Y21134D02*
Y21205D01*
X21974Y19628D02*
X22045D01*
X22010Y19593D02*
Y19664D01*
X22480Y19453D02*
X22551D01*
X22515Y19417D02*
Y19488D01*
X23278Y19450D02*
X23349D01*
X23313Y19414D02*
Y19485D01*
X23615Y20670D02*
X23686D01*
X23651Y20634D02*
Y20705D01*
X23551Y21294D02*
X23623D01*
X23587Y21259D02*
Y21330D01*
X22579Y21983D02*
X22650D01*
X22614Y21947D02*
Y22018D01*
X21735Y21957D02*
X21806D01*
X21771Y21922D02*
Y21993D01*
X21334Y21978D02*
X21405D01*
X21370Y21942D02*
Y22013D01*
X23104Y21983D02*
X23176D01*
X23140Y21947D02*
Y22018D01*
X21128Y20532D02*
X21199D01*
X21164Y20497D02*
Y20568D01*
X21273Y21518D02*
X21344D01*
X21309Y21482D02*
Y21553D01*
X23615Y20469D02*
X23687D01*
X23651Y20434D02*
Y20505D01*
X23567Y21569D02*
X23638D01*
X23602Y21533D02*
Y21604D01*
X22810Y21985D02*
X22881D01*
X22845Y21950D02*
Y22021D01*
X21956Y21970D02*
X22027D01*
X21992Y21934D02*
Y22006D01*
X21093Y21350D02*
X21164D01*
X21128Y21315D02*
Y21386D01*
X21060Y20670D02*
X21131D01*
X21095Y20634D02*
Y20705D01*
X21824Y19440D02*
X21895D01*
X21860Y19405D02*
Y19476D01*
X29132Y26585D02*
X29203D01*
X29168Y26550D02*
Y26621D01*
X22713Y19453D02*
X22784D01*
X22749Y19417D02*
Y19488D01*
X28664Y25005D02*
X28736D01*
X28700Y24970D02*
Y25041D01*
X31063Y26754D02*
X31134D01*
X31099Y26718D02*
Y26789D01*
X30595Y25577D02*
X30666D01*
X30630Y25541D02*
Y25612D01*
X15566Y15430D02*
X15637D01*
X15601Y15394D02*
Y15465D01*
X21044Y20271D02*
X21116D01*
X21080Y20235D02*
Y20306D01*
X17966Y25206D02*
X18037D01*
X18002Y25170D02*
Y25242D01*
X28306Y24335D02*
X28377D01*
X28342Y24299D02*
Y24370D01*
X34011Y22775D02*
X34082D01*
X34047Y22740D02*
Y22811D01*
X28355Y26115D02*
X28426D01*
X28390Y26080D02*
Y26151D01*
X28837Y26077D02*
X28908D01*
X28873Y26042D02*
Y26113D01*
X19305Y25412D02*
X19376D01*
X19341Y25377D02*
Y25448D01*
X16455Y19925D02*
X16526D01*
X16490Y19890D02*
Y19961D01*
X17575Y19255D02*
X17646D01*
X17610Y19219D02*
Y19290D01*
X16853Y21141D02*
X16925D01*
X16889Y21106D02*
Y21177D01*
X17328Y21141D02*
X17399D01*
X17364Y21106D02*
Y21177D01*
M02*
