%FSLAX42Y42*%
%MOMM*%
G71*
G01*
G75*
%ADD10C,0.20*%
%ADD11R,1.90X2.29*%
%ADD12R,1.52X1.52*%
%ADD13R,0.28X1.78*%
%ADD14R,1.78X0.28*%
%ADD15R,1.78X0.28*%
%ADD16O,1.78X0.28*%
%ADD17C,1.00*%
%ADD18C,0.40*%
%ADD19C,0.50*%
%ADD20C,0.80*%
%ADD21C,0.70*%
%ADD22C,0.20*%
%ADD23C,0.25*%
%ADD24C,0.30*%
%ADD25C,1.00*%
%ADD26C,0.70*%
%ADD27C,0.65*%
%ADD28O,2.00X1.50*%
%ADD29C,2.00*%
%ADD30C,4.00*%
%ADD31O,1.75X2.00*%
%ADD32R,1.75X2.00*%
%ADD33O,2.00X1.70*%
%ADD34O,2.00X1.70*%
%ADD35R,2.00X1.70*%
%ADD36C,1.52*%
%ADD37R,1.70X2.00*%
%ADD38O,1.70X2.00*%
%ADD39O,1.60X2.00*%
%ADD40R,1.60X2.00*%
%ADD41R,1.70X2.00*%
%ADD42O,1.70X2.00*%
%ADD43C,1.50*%
%ADD44R,2.00X1.75*%
%ADD45O,2.00X1.75*%
%ADD46O,2.00X1.60*%
%ADD47R,2.00X1.60*%
%ADD48O,2.00X1.60*%
%ADD49R,1.75X2.00*%
%ADD50O,1.75X2.00*%
%ADD51C,3.50*%
%ADD52C,3.50*%
%ADD53C,2.25*%
%ADD54C,3.50*%
%ADD55C,2.50*%
%ADD56C,1.75*%
%ADD57C,1.50*%
%ADD58R,1.75X2.20*%
%ADD59R,1.75X2.20*%
%ADD60C,3.00*%
%ADD61R,5.00X2.50*%
%ADD62R,2.50X5.00*%
%ADD63C,2.00*%
%ADD64R,2.00X2.00*%
%ADD65O,2.00X2.50*%
%ADD66C,1.27*%
%ADD67R,0.91X0.91*%
%ADD68R,0.91X1.27*%
%ADD69O,0.61X3.05*%
%ADD70O,0.61X6.10*%
%ADD71O,3.81X0.80*%
%ADD72C,0.30*%
%ADD73C,0.25*%
%ADD74C,0.31*%
%ADD75C,0.54*%
%ADD76C,0.35*%
D22*
X30449Y26702D02*
X30454Y26677D01*
X30468Y26657D01*
X30488Y26643D01*
X30513Y26638D01*
X30537Y26643D01*
X30557Y26657D01*
X30571Y26677D01*
X30576Y26702D01*
X30133D02*
X30449D01*
X30133Y26683D02*
Y26702D01*
Y25342D02*
Y25360D01*
Y25342D02*
X30893D01*
Y25360D01*
Y26683D02*
Y26702D01*
X30576D02*
X30893D01*
D23*
X16921Y23314D02*
X16945Y23319D01*
X16966Y23333D01*
X16979Y23353D01*
X16984Y23378D01*
X16979Y23402D01*
X16966Y23423D01*
X16945Y23436D01*
X16921Y23441D01*
Y23505D02*
X17937D01*
Y23251D02*
Y23505D01*
X16921Y23251D02*
X17937D01*
X16921D02*
Y23314D01*
Y23441D02*
Y23505D01*
X24900Y19299D02*
Y19451D01*
X24824D01*
X24798Y19426D01*
Y19375D01*
X24824Y19349D01*
X24900D01*
X24849D02*
X24798Y19299D01*
X24646Y19451D02*
X24697Y19426D01*
X24747Y19375D01*
Y19324D01*
X24722Y19299D01*
X24671D01*
X24646Y19324D01*
Y19349D01*
X24671Y19375D01*
X24747D01*
X24595Y19426D02*
X24570Y19451D01*
X24519D01*
X24493Y19426D01*
Y19400D01*
X24519Y19375D01*
X24493Y19349D01*
Y19324D01*
X24519Y19299D01*
X24570D01*
X24595Y19324D01*
Y19349D01*
X24570Y19375D01*
X24595Y19400D01*
Y19426D01*
X24570Y19375D02*
X24519D01*
X25530Y19697D02*
Y19849D01*
X25454D01*
X25429Y19824D01*
Y19773D01*
X25454Y19747D01*
X25530D01*
X25479D02*
X25429Y19697D01*
X25276Y19849D02*
X25327Y19824D01*
X25378Y19773D01*
Y19722D01*
X25352Y19697D01*
X25302D01*
X25276Y19722D01*
Y19747D01*
X25302Y19773D01*
X25378D01*
X25225Y19722D02*
X25200Y19697D01*
X25149D01*
X25124Y19722D01*
Y19824D01*
X25149Y19849D01*
X25200D01*
X25225Y19824D01*
Y19798D01*
X25200Y19773D01*
X25124D01*
X25926Y18333D02*
Y18485D01*
X25850D01*
X25825Y18460D01*
Y18409D01*
X25850Y18384D01*
X25926D01*
X25876D02*
X25825Y18333D01*
X25672Y18485D02*
X25723Y18460D01*
X25774Y18409D01*
Y18358D01*
X25749Y18333D01*
X25698D01*
X25672Y18358D01*
Y18384D01*
X25698Y18409D01*
X25774D01*
X25622Y18485D02*
X25520D01*
Y18460D01*
X25622Y18358D01*
Y18333D01*
X24961Y18356D02*
Y18508D01*
X24885D01*
X24860Y18483D01*
Y18432D01*
X24885Y18406D01*
X24961D01*
X24910D02*
X24860Y18356D01*
X24707Y18508D02*
X24758Y18483D01*
X24809Y18432D01*
Y18381D01*
X24783Y18356D01*
X24733D01*
X24707Y18381D01*
Y18406D01*
X24733Y18432D01*
X24809D01*
X24555Y18508D02*
X24606Y18483D01*
X24656Y18432D01*
Y18381D01*
X24631Y18356D01*
X24580D01*
X24555Y18381D01*
Y18406D01*
X24580Y18432D01*
X24656D01*
X18088Y18881D02*
Y19034D01*
X18012D01*
X17986Y19008D01*
Y18958D01*
X18012Y18932D01*
X18088D01*
X18037D02*
X17986Y18881D01*
X17834Y19034D02*
X17885Y19008D01*
X17936Y18958D01*
Y18907D01*
X17910Y18881D01*
X17859D01*
X17834Y18907D01*
Y18932D01*
X17859Y18958D01*
X17936D01*
X17682Y19034D02*
X17783D01*
Y18958D01*
X17732Y18983D01*
X17707D01*
X17682Y18958D01*
Y18907D01*
X17707Y18881D01*
X17758D01*
X17783Y18907D01*
X18037Y19815D02*
Y19967D01*
X17961D01*
X17936Y19942D01*
Y19891D01*
X17961Y19865D01*
X18037D01*
X17987D02*
X17936Y19815D01*
X17783Y19967D02*
X17834Y19942D01*
X17885Y19891D01*
Y19840D01*
X17860Y19815D01*
X17809D01*
X17783Y19840D01*
Y19865D01*
X17809Y19891D01*
X17885D01*
X17733Y19942D02*
X17707Y19967D01*
X17656D01*
X17631Y19942D01*
Y19916D01*
X17656Y19891D01*
X17682D01*
X17656D01*
X17631Y19865D01*
Y19840D01*
X17656Y19815D01*
X17707D01*
X17733Y19840D01*
X25187Y25902D02*
Y26003D01*
X25213Y26029D01*
X25263D01*
X25289Y26003D01*
Y25902D01*
X25263Y25877D01*
X25213D01*
X25238Y25927D02*
X25187Y25877D01*
X25213D02*
X25187Y25902D01*
X25136Y25877D02*
X25086D01*
X25111D01*
Y26029D01*
X25136Y26003D01*
X24854Y25882D02*
Y26034D01*
X24778D01*
X24753Y26009D01*
Y25958D01*
X24778Y25932D01*
X24854D01*
X24804D02*
X24753Y25882D01*
X24601Y26034D02*
X24651Y26009D01*
X24702Y25958D01*
Y25907D01*
X24677Y25882D01*
X24626D01*
X24601Y25907D01*
Y25932D01*
X24626Y25958D01*
X24702D01*
X24550Y25882D02*
X24499D01*
X24524D01*
Y26034D01*
X24550Y26009D01*
X29741Y27144D02*
X29767Y27169D01*
X29818D01*
X29843Y27144D01*
Y27042D01*
X29818Y27017D01*
X29767D01*
X29741Y27042D01*
X29691Y27144D02*
X29665Y27169D01*
X29615D01*
X29589Y27144D01*
Y27119D01*
X29615Y27093D01*
X29640D01*
X29615D01*
X29589Y27068D01*
Y27042D01*
X29615Y27017D01*
X29665D01*
X29691Y27042D01*
X29538Y27144D02*
X29513Y27169D01*
X29462D01*
X29437Y27144D01*
Y27042D01*
X29462Y27017D01*
X29513D01*
X29538Y27042D01*
Y27144D01*
X21715Y26250D02*
X21740Y26275D01*
X21791D01*
X21817Y26250D01*
Y26148D01*
X21791Y26123D01*
X21740D01*
X21715Y26148D01*
X21664Y26250D02*
X21639Y26275D01*
X21588D01*
X21563Y26250D01*
Y26224D01*
X21588Y26199D01*
X21614D01*
X21588D01*
X21563Y26174D01*
Y26148D01*
X21588Y26123D01*
X21639D01*
X21664Y26148D01*
X16737Y23860D02*
X16762Y23885D01*
X16813D01*
X16838Y23860D01*
Y23758D01*
X16813Y23733D01*
X16762D01*
X16737Y23758D01*
X16686Y23860D02*
X16661Y23885D01*
X16610D01*
X16584Y23860D01*
Y23834D01*
X16610Y23809D01*
X16584Y23784D01*
Y23758D01*
X16610Y23733D01*
X16661D01*
X16686Y23758D01*
Y23784D01*
X16661Y23809D01*
X16686Y23834D01*
Y23860D01*
X16661Y23809D02*
X16610D01*
X27090Y26240D02*
X27115Y26265D01*
X27166D01*
X27191Y26240D01*
Y26138D01*
X27166Y26113D01*
X27115D01*
X27090Y26138D01*
X27039Y26113D02*
X26988D01*
X27014D01*
Y26265D01*
X27039Y26240D01*
X26912D02*
X26887Y26265D01*
X26836D01*
X26810Y26240D01*
Y26138D01*
X26836Y26113D01*
X26887D01*
X26912Y26138D01*
Y26240D01*
X27565Y25737D02*
X27590Y25762D01*
X27641D01*
X27666Y25737D01*
Y25635D01*
X27641Y25610D01*
X27590D01*
X27565Y25635D01*
X27514Y25610D02*
X27463D01*
X27489D01*
Y25762D01*
X27514Y25737D01*
X27285Y25610D02*
X27387D01*
X27285Y25711D01*
Y25737D01*
X27311Y25762D01*
X27362D01*
X27387Y25737D01*
X23295Y26324D02*
X23320Y26349D01*
X23371D01*
X23397Y26324D01*
Y26222D01*
X23371Y26197D01*
X23320D01*
X23295Y26222D01*
X23244Y26197D02*
X23193D01*
X23219D01*
Y26349D01*
X23244Y26324D01*
X23016Y26349D02*
X23066Y26324D01*
X23117Y26273D01*
Y26222D01*
X23092Y26197D01*
X23041D01*
X23016Y26222D01*
Y26247D01*
X23041Y26273D01*
X23117D01*
X19272Y25280D02*
X19297Y25305D01*
X19348D01*
X19373Y25280D01*
Y25178D01*
X19348Y25153D01*
X19297D01*
X19272Y25178D01*
X19119Y25153D02*
X19221D01*
X19119Y25254D01*
Y25280D01*
X19145Y25305D01*
X19195D01*
X19221Y25280D01*
X19068D02*
X19043Y25305D01*
X18992D01*
X18967Y25280D01*
Y25178D01*
X18992Y25153D01*
X19043D01*
X19068Y25178D01*
Y25280D01*
X32576Y26570D02*
Y26722D01*
X32500D01*
X32475Y26697D01*
Y26646D01*
X32500Y26621D01*
X32576D01*
X32525D02*
X32475Y26570D01*
X32424Y26697D02*
X32398Y26722D01*
X32348D01*
X32322Y26697D01*
Y26672D01*
X32348Y26646D01*
X32373D01*
X32348D01*
X32322Y26621D01*
Y26595D01*
X32348Y26570D01*
X32398D01*
X32424Y26595D01*
X32271Y26697D02*
X32246Y26722D01*
X32195D01*
X32170Y26697D01*
Y26672D01*
X32195Y26646D01*
X32221D01*
X32195D01*
X32170Y26621D01*
Y26595D01*
X32195Y26570D01*
X32246D01*
X32271Y26595D01*
X32576Y25902D02*
Y26054D01*
X32500D01*
X32475Y26029D01*
Y25978D01*
X32500Y25953D01*
X32576D01*
X32525D02*
X32475Y25902D01*
X32424Y26029D02*
X32398Y26054D01*
X32348D01*
X32322Y26029D01*
Y26003D01*
X32348Y25978D01*
X32373D01*
X32348D01*
X32322Y25953D01*
Y25927D01*
X32348Y25902D01*
X32398D01*
X32424Y25927D01*
X32195Y25902D02*
Y26054D01*
X32271Y25978D01*
X32170D01*
X32576Y26905D02*
Y27058D01*
X32500D01*
X32475Y27032D01*
Y26981D01*
X32500Y26956D01*
X32576D01*
X32525D02*
X32475Y26905D01*
X32424Y27032D02*
X32398Y27058D01*
X32348D01*
X32322Y27032D01*
Y27007D01*
X32348Y26981D01*
X32373D01*
X32348D01*
X32322Y26956D01*
Y26931D01*
X32348Y26905D01*
X32398D01*
X32424Y26931D01*
X32170Y27058D02*
X32271D01*
Y26981D01*
X32221Y27007D01*
X32195D01*
X32170Y26981D01*
Y26931D01*
X32195Y26905D01*
X32246D01*
X32271Y26931D01*
X32576Y25221D02*
Y25374D01*
X32500D01*
X32475Y25348D01*
Y25297D01*
X32500Y25272D01*
X32576D01*
X32525D02*
X32475Y25221D01*
X32424Y25348D02*
X32398Y25374D01*
X32348D01*
X32322Y25348D01*
Y25323D01*
X32348Y25297D01*
X32373D01*
X32348D01*
X32322Y25272D01*
Y25247D01*
X32348Y25221D01*
X32398D01*
X32424Y25247D01*
X32170Y25374D02*
X32221Y25348D01*
X32271Y25297D01*
Y25247D01*
X32246Y25221D01*
X32195D01*
X32170Y25247D01*
Y25272D01*
X32195Y25297D01*
X32271D01*
X32576Y25559D02*
Y25711D01*
X32500D01*
X32475Y25686D01*
Y25635D01*
X32500Y25610D01*
X32576D01*
X32525D02*
X32475Y25559D01*
X32424Y25686D02*
X32398Y25711D01*
X32348D01*
X32322Y25686D01*
Y25661D01*
X32348Y25635D01*
X32373D01*
X32348D01*
X32322Y25610D01*
Y25584D01*
X32348Y25559D01*
X32398D01*
X32424Y25584D01*
X32271Y25711D02*
X32170D01*
Y25686D01*
X32271Y25584D01*
Y25559D01*
X32576Y26237D02*
Y26390D01*
X32500D01*
X32475Y26364D01*
Y26313D01*
X32500Y26288D01*
X32576D01*
X32525D02*
X32475Y26237D01*
X32424Y26364D02*
X32398Y26390D01*
X32348D01*
X32322Y26364D01*
Y26339D01*
X32348Y26313D01*
X32373D01*
X32348D01*
X32322Y26288D01*
Y26263D01*
X32348Y26237D01*
X32398D01*
X32424Y26263D01*
X32271Y26364D02*
X32246Y26390D01*
X32195D01*
X32170Y26364D01*
Y26339D01*
X32195Y26313D01*
X32170Y26288D01*
Y26263D01*
X32195Y26237D01*
X32246D01*
X32271Y26263D01*
Y26288D01*
X32246Y26313D01*
X32271Y26339D01*
Y26364D01*
X32246Y26313D02*
X32195D01*
X28926Y25851D02*
Y26003D01*
X28850D01*
X28825Y25978D01*
Y25927D01*
X28850Y25902D01*
X28926D01*
X28875D02*
X28825Y25851D01*
X28774Y25978D02*
X28748Y26003D01*
X28698D01*
X28672Y25978D01*
Y25953D01*
X28698Y25927D01*
X28723D01*
X28698D01*
X28672Y25902D01*
Y25877D01*
X28698Y25851D01*
X28748D01*
X28774Y25877D01*
X28621D02*
X28596Y25851D01*
X28545D01*
X28520Y25877D01*
Y25978D01*
X28545Y26003D01*
X28596D01*
X28621Y25978D01*
Y25953D01*
X28596Y25927D01*
X28520D01*
X28934Y26326D02*
Y26478D01*
X28858D01*
X28832Y26453D01*
Y26402D01*
X28858Y26377D01*
X28934D01*
X28883D02*
X28832Y26326D01*
X28705D02*
Y26478D01*
X28781Y26402D01*
X28680D01*
X28629Y26453D02*
X28604Y26478D01*
X28553D01*
X28527Y26453D01*
Y26351D01*
X28553Y26326D01*
X28604D01*
X28629Y26351D01*
Y26453D01*
X21324Y27398D02*
Y27550D01*
X21248D01*
X21222Y27525D01*
Y27474D01*
X21248Y27449D01*
X21324D01*
X21273D02*
X21222Y27398D01*
X21095D02*
Y27550D01*
X21172Y27474D01*
X21070D01*
X20918Y27550D02*
X21019D01*
Y27474D01*
X20968Y27500D01*
X20943D01*
X20918Y27474D01*
Y27423D01*
X20943Y27398D01*
X20994D01*
X21019Y27423D01*
X21964Y27398D02*
Y27550D01*
X21888D01*
X21862Y27525D01*
Y27474D01*
X21888Y27449D01*
X21964D01*
X21913D02*
X21862Y27398D01*
X21735D02*
Y27550D01*
X21812Y27474D01*
X21710D01*
X21558Y27550D02*
X21608Y27525D01*
X21659Y27474D01*
Y27423D01*
X21634Y27398D01*
X21583D01*
X21558Y27423D01*
Y27449D01*
X21583Y27474D01*
X21659D01*
X26594Y27375D02*
Y27527D01*
X26518D01*
X26493Y27502D01*
Y27451D01*
X26518Y27426D01*
X26594D01*
X26544D02*
X26493Y27375D01*
X26366D02*
Y27527D01*
X26442Y27451D01*
X26340D01*
X26290Y27502D02*
X26264Y27527D01*
X26214D01*
X26188Y27502D01*
Y27477D01*
X26214Y27451D01*
X26188Y27426D01*
Y27401D01*
X26214Y27375D01*
X26264D01*
X26290Y27401D01*
Y27426D01*
X26264Y27451D01*
X26290Y27477D01*
Y27502D01*
X26264Y27451D02*
X26214D01*
X27262Y27383D02*
Y27535D01*
X27186D01*
X27161Y27510D01*
Y27459D01*
X27186Y27434D01*
X27262D01*
X27212D02*
X27161Y27383D01*
X27034D02*
Y27535D01*
X27110Y27459D01*
X27008D01*
X26958Y27408D02*
X26932Y27383D01*
X26882D01*
X26856Y27408D01*
Y27510D01*
X26882Y27535D01*
X26932D01*
X26958Y27510D01*
Y27484D01*
X26932Y27459D01*
X26856D01*
X23905Y27411D02*
Y27563D01*
X23828D01*
X23803Y27538D01*
Y27487D01*
X23828Y27461D01*
X23905D01*
X23854D02*
X23803Y27411D01*
X23651Y27563D02*
X23752D01*
Y27487D01*
X23701Y27512D01*
X23676D01*
X23651Y27487D01*
Y27436D01*
X23676Y27411D01*
X23727D01*
X23752Y27436D01*
X23498Y27411D02*
X23600D01*
X23498Y27512D01*
Y27538D01*
X23524Y27563D01*
X23574D01*
X23600Y27538D01*
X24623Y27398D02*
Y27550D01*
X24547D01*
X24522Y27525D01*
Y27474D01*
X24547Y27449D01*
X24623D01*
X24573D02*
X24522Y27398D01*
X24369Y27550D02*
X24471D01*
Y27474D01*
X24420Y27500D01*
X24395D01*
X24369Y27474D01*
Y27423D01*
X24395Y27398D01*
X24446D01*
X24471Y27423D01*
X24319Y27525D02*
X24293Y27550D01*
X24242D01*
X24217Y27525D01*
Y27500D01*
X24242Y27474D01*
X24268D01*
X24242D01*
X24217Y27449D01*
Y27423D01*
X24242Y27398D01*
X24293D01*
X24319Y27423D01*
X19366Y26466D02*
Y26618D01*
X19289D01*
X19264Y26593D01*
Y26542D01*
X19289Y26517D01*
X19366D01*
X19315D02*
X19264Y26466D01*
X19112Y26618D02*
X19213D01*
Y26542D01*
X19162Y26567D01*
X19137D01*
X19112Y26542D01*
Y26491D01*
X19137Y26466D01*
X19188D01*
X19213Y26491D01*
X19061D02*
X19035Y26466D01*
X18985D01*
X18959Y26491D01*
Y26593D01*
X18985Y26618D01*
X19035D01*
X19061Y26593D01*
Y26567D01*
X19035Y26542D01*
X18959D01*
X18802Y25826D02*
Y25978D01*
X18725D01*
X18700Y25953D01*
Y25902D01*
X18725Y25877D01*
X18802D01*
X18751D02*
X18700Y25826D01*
X18548Y25978D02*
X18599Y25953D01*
X18649Y25902D01*
Y25851D01*
X18624Y25826D01*
X18573D01*
X18548Y25851D01*
Y25877D01*
X18573Y25902D01*
X18649D01*
X18497Y25953D02*
X18472Y25978D01*
X18421D01*
X18395Y25953D01*
Y25851D01*
X18421Y25826D01*
X18472D01*
X18497Y25851D01*
Y25953D01*
X30643Y26931D02*
Y26804D01*
X30618Y26778D01*
X30567D01*
X30542Y26804D01*
Y26931D01*
X30491Y26778D02*
X30440D01*
X30465D01*
Y26931D01*
X30491Y26905D01*
X17997Y23497D02*
X18123D01*
X18149Y23471D01*
Y23420D01*
X18123Y23395D01*
X17997D01*
X18022Y23344D02*
X17997Y23319D01*
Y23268D01*
X18022Y23243D01*
X18047D01*
X18073Y23268D01*
Y23293D01*
Y23268D01*
X18098Y23243D01*
X18123D01*
X18149Y23268D01*
Y23319D01*
X18123Y23344D01*
X30857Y12727D02*
Y12879D01*
X30780D01*
X30755Y12854D01*
Y12803D01*
X30780Y12778D01*
X30857D01*
X30806D02*
X30755Y12727D01*
X30628D02*
Y12879D01*
X30704Y12803D01*
X30603D01*
X30552Y12727D02*
X30501D01*
X30526D01*
Y12879D01*
X30552Y12854D01*
X32137Y12747D02*
Y12900D01*
X32060D01*
X32035Y12874D01*
Y12823D01*
X32060Y12798D01*
X32137D01*
X32086D02*
X32035Y12747D01*
X31908D02*
Y12900D01*
X31984Y12823D01*
X31883D01*
X31730Y12747D02*
X31832D01*
X31730Y12849D01*
Y12874D01*
X31756Y12900D01*
X31807D01*
X31832Y12874D01*
X33346Y12750D02*
Y12902D01*
X33270D01*
X33244Y12877D01*
Y12826D01*
X33270Y12801D01*
X33346D01*
X33295D02*
X33244Y12750D01*
X33117D02*
Y12902D01*
X33193Y12826D01*
X33092D01*
X33041Y12877D02*
X33016Y12902D01*
X32965D01*
X32939Y12877D01*
Y12851D01*
X32965Y12826D01*
X32990D01*
X32965D01*
X32939Y12801D01*
Y12775D01*
X32965Y12750D01*
X33016D01*
X33041Y12775D01*
X22406Y21198D02*
X22431Y21223D01*
X22482D01*
X22508Y21198D01*
Y21096D01*
X22482Y21071D01*
X22431D01*
X22406Y21096D01*
X22254Y21071D02*
X22355D01*
X22254Y21172D01*
Y21198D01*
X22279Y21223D01*
X22330D01*
X22355Y21198D01*
X22203Y21071D02*
X22152D01*
X22177D01*
Y21223D01*
X22203Y21198D01*
X23043Y20004D02*
X23069Y20029D01*
X23120D01*
X23145Y20004D01*
Y19902D01*
X23120Y19877D01*
X23069D01*
X23043Y19902D01*
X22891Y19877D02*
X22993D01*
X22891Y19979D01*
Y20004D01*
X22917Y20029D01*
X22967D01*
X22993Y20004D01*
X22739Y19877D02*
X22840D01*
X22739Y19979D01*
Y20004D01*
X22764Y20029D01*
X22815D01*
X22840Y20004D01*
X22434Y22049D02*
X22459Y22074D01*
X22510D01*
X22535Y22049D01*
Y21947D01*
X22510Y21922D01*
X22459D01*
X22434Y21947D01*
X22282Y21922D02*
X22383D01*
X22282Y22023D01*
Y22049D01*
X22307Y22074D01*
X22358D01*
X22383Y22049D01*
X22231D02*
X22205Y22074D01*
X22155D01*
X22129Y22049D01*
Y22023D01*
X22155Y21998D01*
X22180D01*
X22155D01*
X22129Y21973D01*
Y21947D01*
X22155Y21922D01*
X22205D01*
X22231Y21947D01*
X23043Y19674D02*
X23069Y19699D01*
X23120D01*
X23145Y19674D01*
Y19572D01*
X23120Y19547D01*
X23069D01*
X23043Y19572D01*
X22891Y19547D02*
X22993D01*
X22891Y19648D01*
Y19674D01*
X22917Y19699D01*
X22967D01*
X22993Y19674D01*
X22764Y19547D02*
Y19699D01*
X22840Y19623D01*
X22739D01*
X23341Y20233D02*
X23315Y20258D01*
Y20309D01*
X23341Y20334D01*
X23442D01*
X23468Y20309D01*
Y20258D01*
X23442Y20233D01*
X23468Y20080D02*
Y20182D01*
X23366Y20080D01*
X23341D01*
X23315Y20106D01*
Y20157D01*
X23341Y20182D01*
X23315Y19928D02*
Y20030D01*
X23391D01*
X23366Y19979D01*
Y19953D01*
X23391Y19928D01*
X23442D01*
X23468Y19953D01*
Y20004D01*
X23442Y20030D01*
X21291Y20230D02*
X21266Y20256D01*
Y20306D01*
X21291Y20332D01*
X21392D01*
X21418Y20306D01*
Y20256D01*
X21392Y20230D01*
X21418Y20078D02*
Y20179D01*
X21316Y20078D01*
X21291D01*
X21266Y20103D01*
Y20154D01*
X21291Y20179D01*
X21266Y19925D02*
X21291Y19976D01*
X21342Y20027D01*
X21392D01*
X21418Y20002D01*
Y19951D01*
X21392Y19925D01*
X21367D01*
X21342Y19951D01*
Y20027D01*
X22739Y20774D02*
X22713Y20799D01*
Y20850D01*
X22739Y20875D01*
X22840D01*
X22866Y20850D01*
Y20799D01*
X22840Y20774D01*
X22866Y20621D02*
Y20723D01*
X22764Y20621D01*
X22739D01*
X22713Y20647D01*
Y20698D01*
X22739Y20723D01*
X22713Y20571D02*
Y20469D01*
X22739D01*
X22840Y20571D01*
X22866D01*
X21641Y20253D02*
X21616Y20278D01*
Y20329D01*
X21641Y20355D01*
X21743D01*
X21768Y20329D01*
Y20278D01*
X21743Y20253D01*
X21768Y20101D02*
Y20202D01*
X21667Y20101D01*
X21641D01*
X21616Y20126D01*
Y20177D01*
X21641Y20202D01*
Y20050D02*
X21616Y20024D01*
Y19974D01*
X21641Y19948D01*
X21667D01*
X21692Y19974D01*
X21718Y19948D01*
X21743D01*
X21768Y19974D01*
Y20024D01*
X21743Y20050D01*
X21718D01*
X21692Y20024D01*
X21667Y20050D01*
X21641D01*
X21692Y20024D02*
Y19974D01*
X16970Y14888D02*
Y15041D01*
X16894D01*
X16869Y15015D01*
Y14965D01*
X16894Y14939D01*
X16970D01*
X16920D02*
X16869Y14888D01*
X16818D02*
X16767D01*
X16793D01*
Y15041D01*
X16818Y15015D01*
X16970Y14482D02*
Y14634D01*
X16894D01*
X16869Y14609D01*
Y14558D01*
X16894Y14533D01*
X16970D01*
X16920D02*
X16869Y14482D01*
X16716D02*
X16818D01*
X16716Y14584D01*
Y14609D01*
X16742Y14634D01*
X16793D01*
X16818Y14609D01*
X16970Y14066D02*
Y14218D01*
X16894D01*
X16869Y14192D01*
Y14142D01*
X16894Y14116D01*
X16970D01*
X16920D02*
X16869Y14066D01*
X16818Y14192D02*
X16793Y14218D01*
X16742D01*
X16716Y14192D01*
Y14167D01*
X16742Y14142D01*
X16767D01*
X16742D01*
X16716Y14116D01*
Y14091D01*
X16742Y14066D01*
X16793D01*
X16818Y14091D01*
X16970Y13657D02*
Y13809D01*
X16894D01*
X16869Y13784D01*
Y13733D01*
X16894Y13707D01*
X16970D01*
X16920D02*
X16869Y13657D01*
X16742D02*
Y13809D01*
X16818Y13733D01*
X16716D01*
X16970Y13245D02*
Y13397D01*
X16894D01*
X16869Y13372D01*
Y13321D01*
X16894Y13296D01*
X16970D01*
X16920D02*
X16869Y13245D01*
X16716Y13397D02*
X16818D01*
Y13321D01*
X16767Y13347D01*
X16742D01*
X16716Y13321D01*
Y13270D01*
X16742Y13245D01*
X16793D01*
X16818Y13270D01*
X16970Y12834D02*
Y12986D01*
X16894D01*
X16869Y12961D01*
Y12910D01*
X16894Y12884D01*
X16970D01*
X16920D02*
X16869Y12834D01*
X16716Y12986D02*
X16767Y12961D01*
X16818Y12910D01*
Y12859D01*
X16793Y12834D01*
X16742D01*
X16716Y12859D01*
Y12884D01*
X16742Y12910D01*
X16818D01*
X16970Y12422D02*
Y12574D01*
X16894D01*
X16869Y12549D01*
Y12498D01*
X16894Y12473D01*
X16970D01*
X16920D02*
X16869Y12422D01*
X16818Y12574D02*
X16716D01*
Y12549D01*
X16818Y12448D01*
Y12422D01*
X16970Y12013D02*
Y12166D01*
X16894D01*
X16869Y12140D01*
Y12089D01*
X16894Y12064D01*
X16970D01*
X16920D02*
X16869Y12013D01*
X16818Y12140D02*
X16793Y12166D01*
X16742D01*
X16716Y12140D01*
Y12115D01*
X16742Y12089D01*
X16716Y12064D01*
Y12039D01*
X16742Y12013D01*
X16793D01*
X16818Y12039D01*
Y12064D01*
X16793Y12089D01*
X16818Y12115D01*
Y12140D01*
X16793Y12089D02*
X16742D01*
X20376Y14901D02*
Y15054D01*
X20300D01*
X20275Y15028D01*
Y14977D01*
X20300Y14952D01*
X20376D01*
X20326D02*
X20275Y14901D01*
X20224Y14927D02*
X20199Y14901D01*
X20148D01*
X20122Y14927D01*
Y15028D01*
X20148Y15054D01*
X20199D01*
X20224Y15028D01*
Y15003D01*
X20199Y14977D01*
X20122D01*
X20376Y14490D02*
Y14642D01*
X20300D01*
X20275Y14617D01*
Y14566D01*
X20300Y14540D01*
X20376D01*
X20326D02*
X20275Y14490D01*
X20224D02*
X20173D01*
X20199D01*
Y14642D01*
X20224Y14617D01*
X20097D02*
X20072Y14642D01*
X20021D01*
X19995Y14617D01*
Y14515D01*
X20021Y14490D01*
X20072D01*
X20097Y14515D01*
Y14617D01*
X20376Y14083D02*
Y14236D01*
X20300D01*
X20275Y14210D01*
Y14159D01*
X20300Y14134D01*
X20376D01*
X20326D02*
X20275Y14083D01*
X20224D02*
X20173D01*
X20199D01*
Y14236D01*
X20224Y14210D01*
X20097Y14083D02*
X20046D01*
X20072D01*
Y14236D01*
X20097Y14210D01*
X20376Y13674D02*
Y13827D01*
X20300D01*
X20275Y13801D01*
Y13751D01*
X20300Y13725D01*
X20376D01*
X20326D02*
X20275Y13674D01*
X20224D02*
X20173D01*
X20199D01*
Y13827D01*
X20224Y13801D01*
X19995Y13674D02*
X20097D01*
X19995Y13776D01*
Y13801D01*
X20021Y13827D01*
X20072D01*
X20097Y13801D01*
X20376Y13263D02*
Y13415D01*
X20300D01*
X20275Y13390D01*
Y13339D01*
X20300Y13314D01*
X20376D01*
X20326D02*
X20275Y13263D01*
X20224D02*
X20173D01*
X20199D01*
Y13415D01*
X20224Y13390D01*
X20097D02*
X20072Y13415D01*
X20021D01*
X19995Y13390D01*
Y13364D01*
X20021Y13339D01*
X20046D01*
X20021D01*
X19995Y13314D01*
Y13288D01*
X20021Y13263D01*
X20072D01*
X20097Y13288D01*
X20376Y12844D02*
Y12996D01*
X20300D01*
X20275Y12971D01*
Y12920D01*
X20300Y12895D01*
X20376D01*
X20326D02*
X20275Y12844D01*
X20224D02*
X20173D01*
X20199D01*
Y12996D01*
X20224Y12971D01*
X20021Y12844D02*
Y12996D01*
X20097Y12920D01*
X19995D01*
X20376Y12432D02*
Y12585D01*
X20300D01*
X20275Y12559D01*
Y12508D01*
X20300Y12483D01*
X20376D01*
X20326D02*
X20275Y12432D01*
X20224D02*
X20173D01*
X20199D01*
Y12585D01*
X20224Y12559D01*
X19995Y12585D02*
X20097D01*
Y12508D01*
X20046Y12534D01*
X20021D01*
X19995Y12508D01*
Y12458D01*
X20021Y12432D01*
X20072D01*
X20097Y12458D01*
X20376Y12016D02*
Y12168D01*
X20300D01*
X20275Y12143D01*
Y12092D01*
X20300Y12067D01*
X20376D01*
X20326D02*
X20275Y12016D01*
X20224D02*
X20173D01*
X20199D01*
Y12168D01*
X20224Y12143D01*
X19995Y12168D02*
X20046Y12143D01*
X20097Y12092D01*
Y12041D01*
X20072Y12016D01*
X20021D01*
X19995Y12041D01*
Y12067D01*
X20021Y12092D01*
X20097D01*
X23827Y14894D02*
Y15046D01*
X23751D01*
X23726Y15021D01*
Y14970D01*
X23751Y14944D01*
X23827D01*
X23777D02*
X23726Y14894D01*
X23675D02*
X23624D01*
X23650D01*
Y15046D01*
X23675Y15021D01*
X23548Y15046D02*
X23446D01*
Y15021D01*
X23548Y14919D01*
Y14894D01*
X23827Y14485D02*
Y14637D01*
X23751D01*
X23726Y14612D01*
Y14561D01*
X23751Y14535D01*
X23827D01*
X23777D02*
X23726Y14485D01*
X23675D02*
X23624D01*
X23650D01*
Y14637D01*
X23675Y14612D01*
X23548D02*
X23523Y14637D01*
X23472D01*
X23446Y14612D01*
Y14586D01*
X23472Y14561D01*
X23446Y14535D01*
Y14510D01*
X23472Y14485D01*
X23523D01*
X23548Y14510D01*
Y14535D01*
X23523Y14561D01*
X23548Y14586D01*
Y14612D01*
X23523Y14561D02*
X23472D01*
X23827Y14076D02*
Y14228D01*
X23751D01*
X23726Y14203D01*
Y14152D01*
X23751Y14126D01*
X23827D01*
X23777D02*
X23726Y14076D01*
X23675D02*
X23624D01*
X23650D01*
Y14228D01*
X23675Y14203D01*
X23548Y14101D02*
X23523Y14076D01*
X23472D01*
X23446Y14101D01*
Y14203D01*
X23472Y14228D01*
X23523D01*
X23548Y14203D01*
Y14177D01*
X23523Y14152D01*
X23446D01*
X23827Y13659D02*
Y13811D01*
X23751D01*
X23726Y13786D01*
Y13735D01*
X23751Y13710D01*
X23827D01*
X23777D02*
X23726Y13659D01*
X23573D02*
X23675D01*
X23573Y13761D01*
Y13786D01*
X23599Y13811D01*
X23650D01*
X23675Y13786D01*
X23523D02*
X23497Y13811D01*
X23446D01*
X23421Y13786D01*
Y13685D01*
X23446Y13659D01*
X23497D01*
X23523Y13685D01*
Y13786D01*
X23827Y13253D02*
Y13405D01*
X23751D01*
X23726Y13380D01*
Y13329D01*
X23751Y13304D01*
X23827D01*
X23777D02*
X23726Y13253D01*
X23573D02*
X23675D01*
X23573Y13354D01*
Y13380D01*
X23599Y13405D01*
X23650D01*
X23675Y13380D01*
X23523Y13253D02*
X23472D01*
X23497D01*
Y13405D01*
X23523Y13380D01*
X23827Y12839D02*
Y12991D01*
X23751D01*
X23726Y12966D01*
Y12915D01*
X23751Y12889D01*
X23827D01*
X23777D02*
X23726Y12839D01*
X23573D02*
X23675D01*
X23573Y12940D01*
Y12966D01*
X23599Y12991D01*
X23650D01*
X23675Y12966D01*
X23421Y12839D02*
X23523D01*
X23421Y12940D01*
Y12966D01*
X23446Y12991D01*
X23497D01*
X23523Y12966D01*
X23827Y12422D02*
Y12574D01*
X23751D01*
X23726Y12549D01*
Y12498D01*
X23751Y12473D01*
X23827D01*
X23777D02*
X23726Y12422D01*
X23573D02*
X23675D01*
X23573Y12524D01*
Y12549D01*
X23599Y12574D01*
X23650D01*
X23675Y12549D01*
X23523D02*
X23497Y12574D01*
X23446D01*
X23421Y12549D01*
Y12524D01*
X23446Y12498D01*
X23472D01*
X23446D01*
X23421Y12473D01*
Y12448D01*
X23446Y12422D01*
X23497D01*
X23523Y12448D01*
X23827Y12008D02*
Y12160D01*
X23751D01*
X23726Y12135D01*
Y12084D01*
X23751Y12059D01*
X23827D01*
X23777D02*
X23726Y12008D01*
X23573D02*
X23675D01*
X23573Y12110D01*
Y12135D01*
X23599Y12160D01*
X23650D01*
X23675Y12135D01*
X23446Y12008D02*
Y12160D01*
X23523Y12084D01*
X23421D01*
X27263Y14899D02*
Y15051D01*
X27187D01*
X27161Y15026D01*
Y14975D01*
X27187Y14949D01*
X27263D01*
X27212D02*
X27161Y14899D01*
X27009D02*
X27111D01*
X27009Y15000D01*
Y15026D01*
X27034Y15051D01*
X27085D01*
X27111Y15026D01*
X26857Y15051D02*
X26958D01*
Y14975D01*
X26907Y15000D01*
X26882D01*
X26857Y14975D01*
Y14924D01*
X26882Y14899D01*
X26933D01*
X26958Y14924D01*
X27263Y14492D02*
Y14645D01*
X27187D01*
X27161Y14619D01*
Y14568D01*
X27187Y14543D01*
X27263D01*
X27212D02*
X27161Y14492D01*
X27009D02*
X27111D01*
X27009Y14594D01*
Y14619D01*
X27034Y14645D01*
X27085D01*
X27111Y14619D01*
X26857Y14645D02*
X26907Y14619D01*
X26958Y14568D01*
Y14518D01*
X26933Y14492D01*
X26882D01*
X26857Y14518D01*
Y14543D01*
X26882Y14568D01*
X26958D01*
X27263Y14081D02*
Y14233D01*
X27187D01*
X27161Y14208D01*
Y14157D01*
X27187Y14132D01*
X27263D01*
X27212D02*
X27161Y14081D01*
X27009D02*
X27111D01*
X27009Y14182D01*
Y14208D01*
X27034Y14233D01*
X27085D01*
X27111Y14208D01*
X26958Y14233D02*
X26857D01*
Y14208D01*
X26958Y14106D01*
Y14081D01*
X27263Y13667D02*
Y13819D01*
X27187D01*
X27161Y13794D01*
Y13743D01*
X27187Y13718D01*
X27263D01*
X27212D02*
X27161Y13667D01*
X27009D02*
X27111D01*
X27009Y13768D01*
Y13794D01*
X27034Y13819D01*
X27085D01*
X27111Y13794D01*
X26958D02*
X26933Y13819D01*
X26882D01*
X26857Y13794D01*
Y13768D01*
X26882Y13743D01*
X26857Y13718D01*
Y13692D01*
X26882Y13667D01*
X26933D01*
X26958Y13692D01*
Y13718D01*
X26933Y13743D01*
X26958Y13768D01*
Y13794D01*
X26933Y13743D02*
X26882D01*
X27263Y13260D02*
Y13413D01*
X27187D01*
X27161Y13387D01*
Y13337D01*
X27187Y13311D01*
X27263D01*
X27212D02*
X27161Y13260D01*
X27009D02*
X27111D01*
X27009Y13362D01*
Y13387D01*
X27034Y13413D01*
X27085D01*
X27111Y13387D01*
X26958Y13286D02*
X26933Y13260D01*
X26882D01*
X26857Y13286D01*
Y13387D01*
X26882Y13413D01*
X26933D01*
X26958Y13387D01*
Y13362D01*
X26933Y13337D01*
X26857D01*
X27263Y12846D02*
Y12999D01*
X27187D01*
X27161Y12973D01*
Y12922D01*
X27187Y12897D01*
X27263D01*
X27212D02*
X27161Y12846D01*
X27111Y12973D02*
X27085Y12999D01*
X27034D01*
X27009Y12973D01*
Y12948D01*
X27034Y12922D01*
X27060D01*
X27034D01*
X27009Y12897D01*
Y12872D01*
X27034Y12846D01*
X27085D01*
X27111Y12872D01*
X26958Y12973D02*
X26933Y12999D01*
X26882D01*
X26857Y12973D01*
Y12872D01*
X26882Y12846D01*
X26933D01*
X26958Y12872D01*
Y12973D01*
X27263Y12432D02*
Y12585D01*
X27187D01*
X27161Y12559D01*
Y12508D01*
X27187Y12483D01*
X27263D01*
X27212D02*
X27161Y12432D01*
X27111Y12559D02*
X27085Y12585D01*
X27034D01*
X27009Y12559D01*
Y12534D01*
X27034Y12508D01*
X27060D01*
X27034D01*
X27009Y12483D01*
Y12458D01*
X27034Y12432D01*
X27085D01*
X27111Y12458D01*
X26958Y12432D02*
X26907D01*
X26933D01*
Y12585D01*
X26958Y12559D01*
X27263Y12013D02*
Y12166D01*
X27187D01*
X27161Y12140D01*
Y12089D01*
X27187Y12064D01*
X27263D01*
X27212D02*
X27161Y12013D01*
X27111Y12140D02*
X27085Y12166D01*
X27034D01*
X27009Y12140D01*
Y12115D01*
X27034Y12089D01*
X27060D01*
X27034D01*
X27009Y12064D01*
Y12039D01*
X27034Y12013D01*
X27085D01*
X27111Y12039D01*
X26857Y12013D02*
X26958D01*
X26857Y12115D01*
Y12140D01*
X26882Y12166D01*
X26933D01*
X26958Y12140D01*
X17172Y26861D02*
X17197Y26886D01*
X17248D01*
X17274Y26861D01*
Y26759D01*
X17248Y26734D01*
X17197D01*
X17172Y26759D01*
X17121Y26734D02*
X17070D01*
X17096D01*
Y26886D01*
X17121Y26861D01*
X16097Y18483D02*
X16122Y18508D01*
X16173D01*
X16198Y18483D01*
Y18381D01*
X16173Y18356D01*
X16122D01*
X16097Y18381D01*
X16046Y18356D02*
X15995D01*
X16020D01*
Y18508D01*
X16046Y18483D01*
X15817Y18508D02*
X15919D01*
Y18432D01*
X15868Y18457D01*
X15843D01*
X15817Y18432D01*
Y18381D01*
X15843Y18356D01*
X15893D01*
X15919Y18381D01*
X15731Y17256D02*
X15756Y17281D01*
X15807D01*
X15832Y17256D01*
Y17154D01*
X15807Y17129D01*
X15756D01*
X15731Y17154D01*
X15680Y17129D02*
X15629D01*
X15655D01*
Y17281D01*
X15680Y17256D01*
X15553D02*
X15528Y17281D01*
X15477D01*
X15452Y17256D01*
Y17230D01*
X15477Y17205D01*
X15452Y17180D01*
Y17154D01*
X15477Y17129D01*
X15528D01*
X15553Y17154D01*
Y17180D01*
X15528Y17205D01*
X15553Y17230D01*
Y17256D01*
X15528Y17205D02*
X15477D01*
X16546Y15617D02*
X16572Y15643D01*
X16622D01*
X16648Y15617D01*
Y15516D01*
X16622Y15490D01*
X16572D01*
X16546Y15516D01*
X16495Y15490D02*
X16445D01*
X16470D01*
Y15643D01*
X16495Y15617D01*
X16368Y15516D02*
X16343Y15490D01*
X16292D01*
X16267Y15516D01*
Y15617D01*
X16292Y15643D01*
X16343D01*
X16368Y15617D01*
Y15592D01*
X16343Y15567D01*
X16267D01*
X17247Y17495D02*
Y17647D01*
X17171D01*
X17146Y17621D01*
Y17571D01*
X17171Y17545D01*
X17247D01*
X17196D02*
X17146Y17495D01*
X16993Y17647D02*
X17095D01*
Y17571D01*
X17044Y17596D01*
X17019D01*
X16993Y17571D01*
Y17520D01*
X17019Y17495D01*
X17069D01*
X17095Y17520D01*
X16942Y17495D02*
X16892D01*
X16917D01*
Y17647D01*
X16942Y17621D01*
X18078Y18541D02*
Y18693D01*
X18002D01*
X17976Y18668D01*
Y18617D01*
X18002Y18592D01*
X18078D01*
X18027D02*
X17976Y18541D01*
X17824Y18693D02*
X17925D01*
Y18617D01*
X17875Y18643D01*
X17849D01*
X17824Y18617D01*
Y18566D01*
X17849Y18541D01*
X17900D01*
X17925Y18566D01*
X17697Y18541D02*
Y18693D01*
X17773Y18617D01*
X17671D01*
X16826Y19666D02*
Y19819D01*
X16749D01*
X16724Y19793D01*
Y19742D01*
X16749Y19717D01*
X16826D01*
X16775D02*
X16724Y19666D01*
X16572Y19819D02*
X16673D01*
Y19742D01*
X16622Y19768D01*
X16597D01*
X16572Y19742D01*
Y19692D01*
X16597Y19666D01*
X16648D01*
X16673Y19692D01*
X16419Y19819D02*
X16521D01*
Y19742D01*
X16470Y19768D01*
X16445D01*
X16419Y19742D01*
Y19692D01*
X16445Y19666D01*
X16495D01*
X16521Y19692D01*
X16673Y16778D02*
Y16931D01*
X16597D01*
X16572Y16905D01*
Y16854D01*
X16597Y16829D01*
X16673D01*
X16622D02*
X16572Y16778D01*
X16419Y16931D02*
X16521D01*
Y16854D01*
X16470Y16880D01*
X16445D01*
X16419Y16854D01*
Y16804D01*
X16445Y16778D01*
X16495D01*
X16521Y16804D01*
X16368Y16931D02*
X16267D01*
Y16905D01*
X16368Y16804D01*
Y16778D01*
X17265Y16105D02*
Y16257D01*
X17189D01*
X17163Y16232D01*
Y16181D01*
X17189Y16156D01*
X17265D01*
X17214D02*
X17163Y16105D01*
X17011Y16257D02*
X17113D01*
Y16181D01*
X17062Y16207D01*
X17036D01*
X17011Y16181D01*
Y16131D01*
X17036Y16105D01*
X17087D01*
X17113Y16131D01*
X16960Y16232D02*
X16935Y16257D01*
X16884D01*
X16859Y16232D01*
Y16207D01*
X16884Y16181D01*
X16859Y16156D01*
Y16131D01*
X16884Y16105D01*
X16935D01*
X16960Y16131D01*
Y16156D01*
X16935Y16181D01*
X16960Y16207D01*
Y16232D01*
X16935Y16181D02*
X16884D01*
X26490Y16992D02*
X26516Y17017D01*
X26566D01*
X26592Y16992D01*
Y16890D01*
X26566Y16865D01*
X26516D01*
X26490Y16890D01*
X26338Y16865D02*
X26439D01*
X26338Y16966D01*
Y16992D01*
X26363Y17017D01*
X26414D01*
X26439Y16992D01*
X26287Y16890D02*
X26262Y16865D01*
X26211D01*
X26186Y16890D01*
Y16992D01*
X26211Y17017D01*
X26262D01*
X26287Y16992D01*
Y16966D01*
X26262Y16941D01*
X26186D01*
X32210Y20202D02*
Y20355D01*
X32134D01*
X32109Y20329D01*
Y20278D01*
X32134Y20253D01*
X32210D01*
X32160D02*
X32109Y20202D01*
X31982D02*
Y20355D01*
X32058Y20278D01*
X31956D01*
X31829Y20202D02*
Y20355D01*
X31906Y20278D01*
X31804D01*
X21547Y22828D02*
X21573Y22854D01*
X21624D01*
X21649Y22828D01*
Y22727D01*
X21624Y22702D01*
X21573D01*
X21547Y22727D01*
X21497Y22828D02*
X21471Y22854D01*
X21420D01*
X21395Y22828D01*
Y22803D01*
X21420Y22778D01*
X21446D01*
X21420D01*
X21395Y22752D01*
Y22727D01*
X21420Y22702D01*
X21471D01*
X21497Y22727D01*
X21344Y22702D02*
X21294D01*
X21319D01*
Y22854D01*
X21344Y22828D01*
X20349Y21719D02*
X20374Y21744D01*
X20425D01*
X20450Y21719D01*
Y21617D01*
X20425Y21592D01*
X20374D01*
X20349Y21617D01*
X20298Y21719D02*
X20272Y21744D01*
X20222D01*
X20196Y21719D01*
Y21693D01*
X20222Y21668D01*
X20247D01*
X20222D01*
X20196Y21642D01*
Y21617D01*
X20222Y21592D01*
X20272D01*
X20298Y21617D01*
X20044Y21592D02*
X20145D01*
X20044Y21693D01*
Y21719D01*
X20069Y21744D01*
X20120D01*
X20145Y21719D01*
X20928Y20421D02*
X20953Y20446D01*
X21004D01*
X21029Y20421D01*
Y20319D01*
X21004Y20294D01*
X20953D01*
X20928Y20319D01*
X20877Y20421D02*
X20852Y20446D01*
X20801D01*
X20775Y20421D01*
Y20395D01*
X20801Y20370D01*
X20826D01*
X20801D01*
X20775Y20344D01*
Y20319D01*
X20801Y20294D01*
X20852D01*
X20877Y20319D01*
X20725Y20421D02*
X20699Y20446D01*
X20648D01*
X20623Y20421D01*
Y20395D01*
X20648Y20370D01*
X20674D01*
X20648D01*
X20623Y20344D01*
Y20319D01*
X20648Y20294D01*
X20699D01*
X20725Y20319D01*
X24115Y20167D02*
X24141Y20192D01*
X24192D01*
X24217Y20167D01*
Y20065D01*
X24192Y20040D01*
X24141D01*
X24115Y20065D01*
X24065Y20167D02*
X24039Y20192D01*
X23988D01*
X23963Y20167D01*
Y20141D01*
X23988Y20116D01*
X24014D01*
X23988D01*
X23963Y20090D01*
Y20065D01*
X23988Y20040D01*
X24039D01*
X24065Y20065D01*
X23836Y20040D02*
Y20192D01*
X23912Y20116D01*
X23811D01*
X35020Y22938D02*
Y23090D01*
X34943D01*
X34918Y23065D01*
Y23014D01*
X34943Y22989D01*
X35020D01*
X34969D02*
X34918Y22938D01*
X34766Y23090D02*
X34816Y23065D01*
X34867Y23014D01*
Y22963D01*
X34842Y22938D01*
X34791D01*
X34766Y22963D01*
Y22989D01*
X34791Y23014D01*
X34867D01*
X34613Y22938D02*
X34715D01*
X34613Y23039D01*
Y23065D01*
X34639Y23090D01*
X34689D01*
X34715Y23065D01*
X18101Y19191D02*
Y19344D01*
X18024D01*
X17999Y19318D01*
Y19267D01*
X18024Y19242D01*
X18101D01*
X18050D02*
X17999Y19191D01*
X17847Y19344D02*
X17897Y19318D01*
X17948Y19267D01*
Y19217D01*
X17923Y19191D01*
X17872D01*
X17847Y19217D01*
Y19242D01*
X17872Y19267D01*
X17948D01*
X17720Y19191D02*
Y19344D01*
X17796Y19267D01*
X17694D01*
X17908Y20352D02*
Y20504D01*
X17831D01*
X17806Y20479D01*
Y20428D01*
X17831Y20403D01*
X17908D01*
X17857D02*
X17806Y20352D01*
X17755Y20504D02*
X17654D01*
Y20479D01*
X17755Y20377D01*
Y20352D01*
X17603Y20479D02*
X17577Y20504D01*
X17527D01*
X17501Y20479D01*
Y20377D01*
X17527Y20352D01*
X17577D01*
X17603Y20377D01*
Y20479D01*
X17890Y21317D02*
Y21470D01*
X17814D01*
X17788Y21444D01*
Y21394D01*
X17814Y21368D01*
X17890D01*
X17839D02*
X17788Y21317D01*
X17738Y21470D02*
X17636D01*
Y21444D01*
X17738Y21343D01*
Y21317D01*
X17585D02*
X17535D01*
X17560D01*
Y21470D01*
X17585Y21444D01*
X33864Y21487D02*
X33788D01*
X33762Y21513D01*
X33788Y21538D01*
X33838D01*
X33864Y21564D01*
X33838Y21589D01*
X33762D01*
X33712D02*
Y21513D01*
X33686Y21487D01*
X33610D01*
Y21589D01*
X33559Y21437D02*
Y21589D01*
X33483D01*
X33458Y21564D01*
Y21513D01*
X33483Y21487D01*
X33559D01*
X33407Y21437D02*
Y21589D01*
X33331D01*
X33305Y21564D01*
Y21513D01*
X33331Y21487D01*
X33407D01*
X33229D02*
X33178D01*
X33153Y21513D01*
Y21564D01*
X33178Y21589D01*
X33229D01*
X33254Y21564D01*
Y21513D01*
X33229Y21487D01*
X33102Y21589D02*
Y21487D01*
Y21538D01*
X33077Y21564D01*
X33051Y21589D01*
X33026D01*
X32924Y21614D02*
Y21589D01*
X32950D01*
X32899D01*
X32924D01*
Y21513D01*
X32899Y21487D01*
X32747Y21538D02*
Y21564D01*
X32772D01*
Y21538D01*
X32747D01*
X32721Y21564D01*
Y21614D01*
X32747Y21640D01*
X32797D01*
X32823Y21614D01*
Y21513D01*
X32797Y21487D01*
X32721D01*
X32670Y21589D02*
Y21487D01*
Y21538D01*
X32645Y21564D01*
X32620Y21589D01*
X32594D01*
X32442Y21487D02*
X32493D01*
X32518Y21513D01*
Y21564D01*
X32493Y21589D01*
X32442D01*
X32417Y21564D01*
Y21538D01*
X32518D01*
X32340Y21589D02*
X32290D01*
X32264Y21564D01*
Y21487D01*
X32340D01*
X32366Y21513D01*
X32340Y21538D01*
X32264D01*
X32213Y21487D02*
Y21589D01*
X32137D01*
X32112Y21564D01*
Y21487D01*
X32061Y21589D02*
Y21513D01*
X32036Y21487D01*
X31959D01*
Y21589D01*
X31909Y21487D02*
Y21589D01*
X31883D01*
X31858Y21564D01*
Y21487D01*
Y21564D01*
X31833Y21589D01*
X31807Y21564D01*
Y21487D01*
X31756D02*
X31706D01*
X31731D01*
Y21589D01*
X31756D01*
X31528D02*
X31604D01*
X31629Y21564D01*
Y21513D01*
X31604Y21487D01*
X31528D01*
X31477Y21589D02*
Y21487D01*
Y21538D01*
X31452Y21564D01*
X31426Y21589D01*
X31401D01*
X31299Y21487D02*
X31249D01*
X31223Y21513D01*
Y21564D01*
X31249Y21589D01*
X31299D01*
X31325Y21564D01*
Y21513D01*
X31299Y21487D01*
X31096D02*
X31147D01*
X31172Y21513D01*
Y21564D01*
X31147Y21589D01*
X31096D01*
X31071Y21564D01*
Y21538D01*
X31172D01*
X31020Y21487D02*
X30969D01*
X30995D01*
Y21640D01*
X31020D01*
X30817Y21487D02*
X30868D01*
X30893Y21513D01*
Y21564D01*
X30868Y21589D01*
X30817D01*
X30791Y21564D01*
Y21538D01*
X30893D01*
X30639Y21589D02*
X30715D01*
X30741Y21564D01*
Y21513D01*
X30715Y21487D01*
X30639D01*
X30563Y21614D02*
Y21589D01*
X30588D01*
X30538D01*
X30563D01*
Y21513D01*
X30538Y21487D01*
X30461Y21589D02*
Y21487D01*
Y21538D01*
X30436Y21564D01*
X30411Y21589D01*
X30385D01*
X30284Y21487D02*
X30233D01*
X30207Y21513D01*
Y21564D01*
X30233Y21589D01*
X30284D01*
X30309Y21564D01*
Y21513D01*
X30284Y21487D01*
X30157D02*
Y21589D01*
X30080D01*
X30055Y21564D01*
Y21487D01*
X30004D02*
X29954D01*
X29979D01*
Y21589D01*
X30004D01*
X29776D02*
X29852D01*
X29877Y21564D01*
Y21513D01*
X29852Y21487D01*
X29776D01*
X29725D02*
X29649D01*
X29623Y21513D01*
X29649Y21538D01*
X29700D01*
X29725Y21564D01*
X29700Y21589D01*
X29623D01*
X29573Y21487D02*
Y21513D01*
X29547D01*
Y21487D01*
X29573D01*
X29344Y21589D02*
X29420D01*
X29446Y21564D01*
Y21513D01*
X29420Y21487D01*
X29344D01*
X29268D02*
X29217D01*
X29192Y21513D01*
Y21564D01*
X29217Y21589D01*
X29268D01*
X29293Y21564D01*
Y21513D01*
X29268Y21487D01*
X29141D02*
Y21589D01*
X29116D01*
X29090Y21564D01*
Y21487D01*
Y21564D01*
X29065Y21589D01*
X29039Y21564D01*
Y21487D01*
X33755Y21972D02*
X33856D01*
Y21896D01*
X33805D01*
X33856D01*
Y21820D01*
X33679D02*
X33628D01*
X33602Y21846D01*
Y21896D01*
X33628Y21922D01*
X33679D01*
X33704Y21896D01*
Y21846D01*
X33679Y21820D01*
X33552Y21922D02*
Y21820D01*
Y21871D01*
X33526Y21896D01*
X33501Y21922D01*
X33475D01*
X33145Y21947D02*
X33171Y21972D01*
X33221D01*
X33247Y21947D01*
Y21922D01*
X33221Y21896D01*
X33171D01*
X33145Y21871D01*
Y21846D01*
X33171Y21820D01*
X33221D01*
X33247Y21846D01*
X33094Y21922D02*
Y21846D01*
X33069Y21820D01*
X32993D01*
Y21922D01*
X32942Y21769D02*
Y21922D01*
X32866D01*
X32841Y21896D01*
Y21846D01*
X32866Y21820D01*
X32942D01*
X32790Y21769D02*
Y21922D01*
X32714D01*
X32688Y21896D01*
Y21846D01*
X32714Y21820D01*
X32790D01*
X32612D02*
X32561D01*
X32536Y21846D01*
Y21896D01*
X32561Y21922D01*
X32612D01*
X32637Y21896D01*
Y21846D01*
X32612Y21820D01*
X32485Y21922D02*
Y21820D01*
Y21871D01*
X32460Y21896D01*
X32434Y21922D01*
X32409D01*
X32307Y21947D02*
Y21922D01*
X32333D01*
X32282D01*
X32307D01*
Y21846D01*
X32282Y21820D01*
X32053Y21922D02*
X32028D01*
Y21896D01*
X32053D01*
Y21922D01*
Y21846D02*
X32028D01*
Y21820D01*
X32053D01*
Y21846D01*
X31926Y21896D02*
X31825D01*
X33851Y22247D02*
Y22171D01*
X33826Y22145D01*
X33800Y22171D01*
X33775Y22145D01*
X33750Y22171D01*
Y22247D01*
X33699D02*
Y22171D01*
X33673Y22145D01*
X33648Y22171D01*
X33623Y22145D01*
X33597Y22171D01*
Y22247D01*
X33546D02*
Y22171D01*
X33521Y22145D01*
X33496Y22171D01*
X33470Y22145D01*
X33445Y22171D01*
Y22247D01*
X33394Y22145D02*
Y22171D01*
X33369D01*
Y22145D01*
X33394D01*
X33267Y22247D02*
Y22145D01*
Y22196D01*
X33242Y22221D01*
X33216Y22247D01*
X33191D01*
X33039Y22145D02*
X33089D01*
X33115Y22171D01*
Y22221D01*
X33089Y22247D01*
X33039D01*
X33013Y22221D01*
Y22196D01*
X33115D01*
X32937Y22247D02*
X32886D01*
X32861Y22221D01*
Y22145D01*
X32937D01*
X32962Y22171D01*
X32937Y22196D01*
X32861D01*
X32810Y22145D02*
Y22247D01*
X32734D01*
X32709Y22221D01*
Y22145D01*
X32658Y22247D02*
Y22171D01*
X32632Y22145D01*
X32556D01*
Y22247D01*
X32505Y22145D02*
Y22247D01*
X32480D01*
X32455Y22221D01*
Y22145D01*
Y22221D01*
X32429Y22247D01*
X32404Y22221D01*
Y22145D01*
X32353D02*
X32302D01*
X32328D01*
Y22247D01*
X32353D01*
X32125D02*
X32201D01*
X32226Y22221D01*
Y22171D01*
X32201Y22145D01*
X32125D01*
X32074Y22247D02*
Y22145D01*
Y22196D01*
X32048Y22221D01*
X32023Y22247D01*
X31998D01*
X31896Y22145D02*
X31845D01*
X31820Y22171D01*
Y22221D01*
X31845Y22247D01*
X31896D01*
X31921Y22221D01*
Y22171D01*
X31896Y22145D01*
X31693D02*
X31744D01*
X31769Y22171D01*
Y22221D01*
X31744Y22247D01*
X31693D01*
X31667Y22221D01*
Y22196D01*
X31769D01*
X31617Y22145D02*
X31566D01*
X31591D01*
Y22298D01*
X31617D01*
X31414Y22145D02*
X31464D01*
X31490Y22171D01*
Y22221D01*
X31464Y22247D01*
X31414D01*
X31388Y22221D01*
Y22196D01*
X31490D01*
X31236Y22247D02*
X31312D01*
X31337Y22221D01*
Y22171D01*
X31312Y22145D01*
X31236D01*
X31160Y22272D02*
Y22247D01*
X31185D01*
X31134D01*
X31160D01*
Y22171D01*
X31134Y22145D01*
X31058Y22247D02*
Y22145D01*
Y22196D01*
X31033Y22221D01*
X31007Y22247D01*
X30982D01*
X30880Y22145D02*
X30830D01*
X30804Y22171D01*
Y22221D01*
X30830Y22247D01*
X30880D01*
X30906Y22221D01*
Y22171D01*
X30880Y22145D01*
X30753D02*
Y22247D01*
X30677D01*
X30652Y22221D01*
Y22145D01*
X30601D02*
X30550D01*
X30576D01*
Y22247D01*
X30601D01*
X30372D02*
X30449D01*
X30474Y22221D01*
Y22171D01*
X30449Y22145D01*
X30372D01*
X30322D02*
X30246D01*
X30220Y22171D01*
X30246Y22196D01*
X30296D01*
X30322Y22221D01*
X30296Y22247D01*
X30220D01*
X30169Y22145D02*
Y22171D01*
X30144D01*
Y22145D01*
X30169D01*
X29941Y22247D02*
X30017D01*
X30042Y22221D01*
Y22171D01*
X30017Y22145D01*
X29941D01*
X29865D02*
X29814D01*
X29788Y22171D01*
Y22221D01*
X29814Y22247D01*
X29865D01*
X29890Y22221D01*
Y22171D01*
X29865Y22145D01*
X29738D02*
Y22247D01*
X29712D01*
X29687Y22221D01*
Y22145D01*
Y22221D01*
X29662Y22247D01*
X29636Y22221D01*
Y22145D01*
X33851Y22394D02*
Y22547D01*
X33775D01*
X33750Y22521D01*
Y22470D01*
X33775Y22445D01*
X33851D01*
X33699Y22496D02*
Y22420D01*
X33673Y22394D01*
X33597D01*
Y22496D01*
X33546Y22394D02*
Y22496D01*
X33470D01*
X33445Y22470D01*
Y22394D01*
X33318D02*
X33369D01*
X33394Y22420D01*
Y22470D01*
X33369Y22496D01*
X33318D01*
X33293Y22470D01*
Y22445D01*
X33394D01*
X33039Y22394D02*
X33089Y22445D01*
Y22496D01*
X33039Y22547D01*
X32810D02*
X32759D01*
X32785D01*
Y22394D01*
X32810D01*
X32759D01*
X32683D02*
Y22547D01*
X32582Y22394D01*
Y22547D01*
X32531D02*
Y22394D01*
X32455D01*
X32429Y22420D01*
Y22521D01*
X32455Y22547D01*
X32531D01*
X32378D02*
X32328D01*
X32353D01*
Y22394D01*
X32378D01*
X32328D01*
X32251D02*
Y22496D01*
X32201Y22547D01*
X32150Y22496D01*
Y22394D01*
Y22470D01*
X32251D01*
X31947Y22394D02*
X31896Y22445D01*
Y22496D01*
X31947Y22547D01*
X33851Y22689D02*
Y22841D01*
X33775D01*
X33750Y22816D01*
Y22765D01*
X33775Y22740D01*
X33851D01*
X33800D02*
X33750Y22689D01*
X33623D02*
X33673D01*
X33699Y22714D01*
Y22765D01*
X33673Y22790D01*
X33623D01*
X33597Y22765D01*
Y22740D01*
X33699D01*
X33521Y22790D02*
X33470D01*
X33445Y22765D01*
Y22689D01*
X33521D01*
X33546Y22714D01*
X33521Y22740D01*
X33445D01*
X33394Y22689D02*
Y22790D01*
X33318D01*
X33293Y22765D01*
Y22689D01*
X33242Y22790D02*
Y22714D01*
X33216Y22689D01*
X33140D01*
Y22790D01*
X32937Y22689D02*
Y22841D01*
X32886Y22790D01*
X32835Y22841D01*
Y22689D01*
X32785D02*
X32734D01*
X32759D01*
Y22790D01*
X32785D01*
X32556D02*
X32632D01*
X32658Y22765D01*
Y22714D01*
X32632Y22689D01*
X32556D01*
X32505Y22790D02*
Y22689D01*
Y22740D01*
X32480Y22765D01*
X32455Y22790D01*
X32429D01*
X32328Y22689D02*
X32277D01*
X32251Y22714D01*
Y22765D01*
X32277Y22790D01*
X32328D01*
X32353Y22765D01*
Y22714D01*
X32328Y22689D01*
X32125D02*
X32175D01*
X32201Y22714D01*
Y22765D01*
X32175Y22790D01*
X32125D01*
X32099Y22765D01*
Y22740D01*
X32201D01*
X32048Y22689D02*
X31998D01*
X32023D01*
Y22841D01*
X32048D01*
X31845Y22689D02*
X31896D01*
X31921Y22714D01*
Y22765D01*
X31896Y22790D01*
X31845D01*
X31820Y22765D01*
Y22740D01*
X31921D01*
X31667Y22790D02*
X31744D01*
X31769Y22765D01*
Y22714D01*
X31744Y22689D01*
X31667D01*
X31591Y22816D02*
Y22790D01*
X31617D01*
X31566D01*
X31591D01*
Y22714D01*
X31566Y22689D01*
X31490Y22790D02*
Y22689D01*
Y22740D01*
X31464Y22765D01*
X31439Y22790D01*
X31414D01*
X31312Y22689D02*
X31261D01*
X31236Y22714D01*
Y22765D01*
X31261Y22790D01*
X31312D01*
X31337Y22765D01*
Y22714D01*
X31312Y22689D01*
X31185D02*
Y22790D01*
X31109D01*
X31083Y22765D01*
Y22689D01*
X31033D02*
X30982D01*
X31007D01*
Y22790D01*
X31033D01*
X30804D02*
X30880D01*
X30906Y22765D01*
Y22714D01*
X30880Y22689D01*
X30804D01*
X30753D02*
X30677D01*
X30652Y22714D01*
X30677Y22740D01*
X30728D01*
X30753Y22765D01*
X30728Y22790D01*
X30652D01*
X30449Y22689D02*
Y22841D01*
X30372D01*
X30347Y22816D01*
Y22765D01*
X30372Y22740D01*
X30449D01*
X30296Y22790D02*
X30246Y22689D01*
X30195Y22790D01*
X30119Y22816D02*
Y22790D01*
X30144D01*
X30093D01*
X30119D01*
Y22714D01*
X30093Y22689D01*
X29865Y22841D02*
Y22689D01*
X29763D01*
X29687Y22816D02*
Y22790D01*
X29712D01*
X29662D01*
X29687D01*
Y22714D01*
X29662Y22689D01*
X29484Y22841D02*
Y22689D01*
X29560D01*
X29585Y22714D01*
Y22765D01*
X29560Y22790D01*
X29484D01*
X33849Y23136D02*
Y22983D01*
X33772D01*
X33747Y23009D01*
Y23110D01*
X33772Y23136D01*
X33849D01*
X33620Y22983D02*
X33671D01*
X33696Y23009D01*
Y23060D01*
X33671Y23085D01*
X33620D01*
X33595Y23060D01*
Y23034D01*
X33696D01*
X33544Y22983D02*
X33468D01*
X33442Y23009D01*
X33468Y23034D01*
X33519D01*
X33544Y23060D01*
X33519Y23085D01*
X33442D01*
X33392Y22983D02*
X33341D01*
X33366D01*
Y23085D01*
X33392D01*
X33214Y22933D02*
X33188D01*
X33163Y22958D01*
Y23085D01*
X33239D01*
X33265Y23060D01*
Y23009D01*
X33239Y22983D01*
X33163D01*
X33112D02*
Y23085D01*
X33036D01*
X33011Y23060D01*
Y22983D01*
X32706D02*
X32731Y23009D01*
X32757Y22983D01*
X32782D01*
X32808Y23009D01*
Y23034D01*
X32782Y23060D01*
X32808Y23085D01*
Y23110D01*
X32782Y23136D01*
X32757D01*
X32731Y23110D01*
Y23085D01*
X32757Y23060D01*
X32731Y23034D01*
Y23009D01*
X32706Y23060D02*
X32731Y23034D01*
X32782Y23060D02*
X32757D01*
X32503Y22983D02*
Y23136D01*
X32452Y23085D01*
X32401Y23136D01*
Y22983D01*
X32325D02*
Y23110D01*
Y23060D01*
X32351D01*
X32300D01*
X32325D01*
Y23110D01*
X32300Y23136D01*
X32122D02*
Y22983D01*
X32198D01*
X32224Y23009D01*
Y23060D01*
X32198Y23085D01*
X32122D01*
X31919Y23136D02*
Y22983D01*
X31843D01*
X31817Y23009D01*
Y23034D01*
X31843Y23060D01*
X31919D01*
X31843D01*
X31817Y23085D01*
Y23110D01*
X31843Y23136D01*
X31919D01*
X31767Y23085D02*
Y23009D01*
X31741Y22983D01*
X31665D01*
Y22958D01*
X31690Y22933D01*
X31716D01*
X31665Y22983D02*
Y23085D01*
X31462D02*
X31436D01*
Y23060D01*
X31462D01*
Y23085D01*
Y23009D02*
X31436D01*
Y22983D01*
X31462D01*
Y23009D01*
X31335Y23060D02*
X31233D01*
X34153Y16278D02*
Y16428D01*
X34078D01*
X34053Y16403D01*
Y16353D01*
X34078Y16328D01*
X34153D01*
X34103D02*
X34053Y16278D01*
X34003D02*
Y16428D01*
X33953Y16378D01*
X33904Y16428D01*
Y16278D01*
X33854Y16353D02*
X33754D01*
X33704Y16278D02*
Y16378D01*
X33654Y16428D01*
X33604Y16378D01*
Y16278D01*
Y16353D01*
X33704D01*
X33454Y16403D02*
X33479Y16428D01*
X33529D01*
X33554Y16403D01*
Y16303D01*
X33529Y16278D01*
X33479D01*
X33454Y16303D01*
X33404Y16428D02*
X33304D01*
X33354D01*
Y16278D01*
X33154Y16428D02*
X33254D01*
Y16278D01*
X33154D01*
X33254Y16353D02*
X33204D01*
X33104Y16428D02*
Y16278D01*
X33004D01*
X32954Y16353D02*
X32854D01*
X32804Y16278D02*
Y16428D01*
X32729D01*
X32704Y16403D01*
Y16353D01*
X32729Y16328D01*
X32804D01*
X32654Y16378D02*
Y16278D01*
Y16328D01*
X32629Y16353D01*
X32604Y16378D01*
X32579D01*
X32479Y16278D02*
X32429D01*
X32404Y16303D01*
Y16353D01*
X32429Y16378D01*
X32479D01*
X32504Y16353D01*
Y16303D01*
X32479Y16278D01*
X32354D02*
Y16378D01*
X32304Y16428D01*
X32254Y16378D01*
Y16278D01*
Y16353D01*
X32354D01*
X32104Y16403D02*
X32129Y16428D01*
X32179D01*
X32204Y16403D01*
Y16378D01*
X32179Y16353D01*
X32129D01*
X32104Y16328D01*
Y16303D01*
X32129Y16278D01*
X32179D01*
X32204Y16303D01*
X32054Y16428D02*
X32004D01*
X32029D01*
Y16278D01*
X32054D01*
X32004D01*
X31829Y16403D02*
X31854Y16428D01*
X31904D01*
X31929Y16403D01*
Y16303D01*
X31904Y16278D01*
X31854D01*
X31829Y16303D01*
X31779Y16403D02*
X31754Y16428D01*
X31704D01*
X31679Y16403D01*
Y16378D01*
X31704Y16353D01*
X31729D01*
X31704D01*
X31679Y16328D01*
Y16303D01*
X31704Y16278D01*
X31754D01*
X31779Y16303D01*
X31629Y16353D02*
X31529D01*
X31479Y16428D02*
Y16328D01*
X31429Y16278D01*
X31379Y16328D01*
Y16428D01*
X31229D02*
X31329D01*
Y16278D01*
X31229D01*
X31329Y16353D02*
X31279D01*
X31179Y16278D02*
Y16428D01*
X31104D01*
X31079Y16403D01*
Y16353D01*
X31104Y16328D01*
X31179D01*
X31129D02*
X31079Y16278D01*
X31029Y16403D02*
X31004Y16428D01*
X30954D01*
X30929Y16403D01*
Y16303D01*
X30954Y16278D01*
X31004D01*
X31029Y16303D01*
Y16403D01*
X30879D02*
X30854Y16428D01*
X30805D01*
X30780Y16403D01*
Y16378D01*
X30805Y16353D01*
X30830D01*
X30805D01*
X30780Y16328D01*
Y16303D01*
X30805Y16278D01*
X30854D01*
X30879Y16303D01*
D72*
X24840Y19247D02*
X25030D01*
X24840Y18993D02*
X25030D01*
X24433D02*
X24624D01*
X24433Y19247D02*
X24624D01*
X25030Y18993D02*
Y19247D01*
X24433Y18993D02*
Y19247D01*
X25190Y19434D02*
Y19624D01*
X25444Y19434D02*
Y19624D01*
Y19027D02*
Y19218D01*
X25190Y19027D02*
Y19218D01*
Y19624D02*
X25444D01*
X25190Y19027D02*
X25444D01*
X25443Y18263D02*
Y18454D01*
X25189Y18263D02*
Y18454D01*
Y18669D02*
Y18860D01*
X25443Y18669D02*
Y18860D01*
X25189Y18263D02*
X25443D01*
X25189Y18860D02*
X25443D01*
X24867Y18854D02*
X25058D01*
X24867Y18600D02*
X25058D01*
X24461D02*
X24651D01*
X24461Y18854D02*
X24651D01*
X25058Y18600D02*
Y18854D01*
X24461Y18600D02*
Y18854D01*
X16957Y18815D02*
X17147D01*
X16957Y19069D02*
X17147D01*
X17363D02*
X17554D01*
X17363Y18815D02*
X17554D01*
X16957D02*
Y19069D01*
X17554Y18815D02*
Y19069D01*
X16962Y18490D02*
X17152D01*
X16962Y18744D02*
X17152D01*
X17368D02*
X17559D01*
X17368Y18490D02*
X17559D01*
X16962D02*
Y18744D01*
X17559Y18490D02*
Y18744D01*
X16952Y19762D02*
X17142D01*
X16952Y20016D02*
X17142D01*
X17358D02*
X17549D01*
X17358Y19762D02*
X17549D01*
X16952D02*
Y20016D01*
X17549Y19762D02*
Y20016D01*
X25062Y26146D02*
X25113D01*
X25202Y26375D02*
X25215D01*
X25304Y26146D02*
X25354D01*
X25062D02*
Y26260D01*
X25354Y26146D02*
Y26260D01*
X24261Y26147D02*
Y26401D01*
X24858Y26147D02*
Y26401D01*
X24261D02*
X24451D01*
X24261Y26147D02*
X24451D01*
X24667D02*
X24858D01*
X24667Y26401D02*
X24858D01*
X26678Y17061D02*
Y17315D01*
X26081Y17061D02*
Y17315D01*
X26487Y17061D02*
X26678D01*
X26487Y17315D02*
X26678D01*
X26081D02*
X26271D01*
X26081Y17061D02*
X26271D01*
X29926Y27371D02*
X30180D01*
X29926Y26774D02*
X30180D01*
Y27181D02*
Y27371D01*
X29926Y27181D02*
Y27371D01*
Y26774D02*
Y26965D01*
X30180Y26774D02*
Y26965D01*
X31911Y20129D02*
X32165D01*
X31911Y19533D02*
X32165D01*
Y19939D02*
Y20129D01*
X31911Y19939D02*
Y20129D01*
Y19533D02*
Y19723D01*
X32165Y19533D02*
Y19723D01*
X16804Y15702D02*
Y15956D01*
X16208Y15702D02*
Y15956D01*
X16614Y15702D02*
X16804D01*
X16614Y15956D02*
X16804D01*
X16208D02*
X16398D01*
X16208Y15702D02*
X16398D01*
X16208Y16464D02*
Y16718D01*
X16804Y16464D02*
Y16718D01*
X16208D02*
X16398D01*
X16208Y16464D02*
X16398D01*
X16614D02*
X16804D01*
X16614Y16718D02*
X16804D01*
Y16062D02*
Y16316D01*
X16208Y16062D02*
Y16316D01*
X16614Y16062D02*
X16804D01*
X16614Y16316D02*
X16804D01*
X16208D02*
X16398D01*
X16208Y16062D02*
X16398D01*
X16560Y18997D02*
X16814D01*
X16560Y19594D02*
X16814D01*
X16560Y18997D02*
Y19188D01*
X16814Y18997D02*
Y19188D01*
Y19404D02*
Y19594D01*
X16560Y19404D02*
Y19594D01*
X16907Y18336D02*
X17161D01*
X16907Y17739D02*
X17161D01*
Y18146D02*
Y18336D01*
X16907Y18146D02*
Y18336D01*
Y17739D02*
Y17930D01*
X17161Y17739D02*
Y17930D01*
X15477Y18161D02*
X15731D01*
X15477Y18758D02*
X15731D01*
X15477Y18161D02*
Y18352D01*
X15731Y18161D02*
Y18352D01*
Y18568D02*
Y18758D01*
X15477Y18568D02*
Y18758D01*
X15492Y17376D02*
X15746D01*
X15492Y17973D02*
X15746D01*
X15492Y17376D02*
Y17567D01*
X15746Y17376D02*
Y17567D01*
Y17783D02*
Y17973D01*
X15492Y17783D02*
Y17973D01*
X17389Y26677D02*
Y26931D01*
X17986Y26677D02*
Y26931D01*
X17389D02*
X17579D01*
X17389Y26677D02*
X17579D01*
X17795D02*
X17986D01*
X17795Y26931D02*
X17986D01*
X27979Y14861D02*
Y15115D01*
X27382Y14861D02*
Y15115D01*
X27788Y14861D02*
X27979D01*
X27788Y15115D02*
X27979D01*
X27382D02*
X27572D01*
X27382Y14861D02*
X27572D01*
X27979Y14448D02*
Y14702D01*
X27382Y14448D02*
Y14702D01*
X27788Y14448D02*
X27979D01*
X27788Y14702D02*
X27979D01*
X27382D02*
X27572D01*
X27382Y14448D02*
X27572D01*
X27979Y14036D02*
Y14290D01*
X27382Y14036D02*
Y14290D01*
X27788Y14036D02*
X27979D01*
X27788Y14290D02*
X27979D01*
X27382D02*
X27572D01*
X27382Y14036D02*
X27572D01*
X27979Y13623D02*
Y13877D01*
X27382Y13623D02*
Y13877D01*
X27788Y13623D02*
X27979D01*
X27788Y13877D02*
X27979D01*
X27382D02*
X27572D01*
X27382Y13623D02*
X27572D01*
X27979Y13210D02*
Y13464D01*
X27382Y13210D02*
Y13464D01*
X27788Y13210D02*
X27979D01*
X27788Y13464D02*
X27979D01*
X27382D02*
X27572D01*
X27382Y13210D02*
X27572D01*
X27979Y12797D02*
Y13051D01*
X27382Y12797D02*
Y13051D01*
X27788Y12797D02*
X27979D01*
X27788Y13051D02*
X27979D01*
X27382D02*
X27572D01*
X27382Y12797D02*
X27572D01*
X27979Y12384D02*
Y12638D01*
X27382Y12384D02*
Y12638D01*
X27788Y12384D02*
X27979D01*
X27788Y12638D02*
X27979D01*
X27382D02*
X27572D01*
X27382Y12384D02*
X27572D01*
X27979Y11972D02*
Y12226D01*
X27382Y11972D02*
Y12226D01*
X27788Y11972D02*
X27979D01*
X27788Y12226D02*
X27979D01*
X27382D02*
X27572D01*
X27382Y11972D02*
X27572D01*
X24546Y14856D02*
Y15110D01*
X23949Y14856D02*
Y15110D01*
X24355Y14856D02*
X24546D01*
X24355Y15110D02*
X24546D01*
X23949D02*
X24140D01*
X23949Y14856D02*
X24140D01*
X24546Y14443D02*
Y14697D01*
X23949Y14443D02*
Y14697D01*
X24355Y14443D02*
X24546D01*
X24355Y14697D02*
X24546D01*
X23949D02*
X24140D01*
X23949Y14443D02*
X24140D01*
X24546Y14031D02*
Y14285D01*
X23949Y14031D02*
Y14285D01*
X24355Y14031D02*
X24546D01*
X24355Y14285D02*
X24546D01*
X23949D02*
X24140D01*
X23949Y14031D02*
X24140D01*
X24546Y13618D02*
Y13872D01*
X23949Y13618D02*
Y13872D01*
X24355Y13618D02*
X24546D01*
X24355Y13872D02*
X24546D01*
X23949D02*
X24140D01*
X23949Y13618D02*
X24140D01*
X24546Y13205D02*
Y13459D01*
X23949Y13205D02*
Y13459D01*
X24355Y13205D02*
X24546D01*
X24355Y13459D02*
X24546D01*
X23949D02*
X24140D01*
X23949Y13205D02*
X24140D01*
X24546Y12380D02*
Y12634D01*
X23949Y12380D02*
Y12634D01*
X24355Y12380D02*
X24546D01*
X24355Y12634D02*
X24546D01*
X23949D02*
X24140D01*
X23949Y12380D02*
X24140D01*
X24546Y11967D02*
Y12221D01*
X23949Y11967D02*
Y12221D01*
X24355Y11967D02*
X24546D01*
X24355Y12221D02*
X24546D01*
X23949D02*
X24140D01*
X23949Y11967D02*
X24140D01*
X24546Y12792D02*
Y13046D01*
X23949Y12792D02*
Y13046D01*
X24355Y12792D02*
X24546D01*
X24355Y13046D02*
X24546D01*
X23949D02*
X24140D01*
X23949Y12792D02*
X24140D01*
X21107Y14866D02*
Y15120D01*
X20510Y14866D02*
Y15120D01*
X20916Y14866D02*
X21107D01*
X20916Y15120D02*
X21107D01*
X20510D02*
X20700D01*
X20510Y14866D02*
X20700D01*
X21107Y14453D02*
Y14707D01*
X20510Y14453D02*
Y14707D01*
X20916Y14453D02*
X21107D01*
X20916Y14707D02*
X21107D01*
X20510D02*
X20700D01*
X20510Y14453D02*
X20700D01*
X21107Y14034D02*
Y14288D01*
X20510Y14034D02*
Y14288D01*
X20916Y14034D02*
X21107D01*
X20916Y14288D02*
X21107D01*
X20510D02*
X20700D01*
X20510Y14034D02*
X20700D01*
X21107Y13626D02*
Y13880D01*
X20510Y13626D02*
Y13880D01*
X20916Y13626D02*
X21107D01*
X20916Y13880D02*
X21107D01*
X20510D02*
X20700D01*
X20510Y13626D02*
X20700D01*
X21107Y13214D02*
Y13468D01*
X20510Y13214D02*
Y13468D01*
X20916Y13214D02*
X21107D01*
X20916Y13468D02*
X21107D01*
X20510D02*
X20700D01*
X20510Y13214D02*
X20700D01*
X21107Y12387D02*
Y12641D01*
X20510Y12387D02*
Y12641D01*
X20916Y12387D02*
X21107D01*
X20916Y12641D02*
X21107D01*
X20510D02*
X20700D01*
X20510Y12387D02*
X20700D01*
X21107Y11971D02*
Y12225D01*
X20510Y11971D02*
Y12225D01*
X20916Y11971D02*
X21107D01*
X20916Y12225D02*
X21107D01*
X20510D02*
X20700D01*
X20510Y11971D02*
X20700D01*
X21107Y12798D02*
Y13052D01*
X20510Y12798D02*
Y13052D01*
X20916Y12798D02*
X21107D01*
X20916Y13052D02*
X21107D01*
X20510D02*
X20700D01*
X20510Y12798D02*
X20700D01*
X17677Y13200D02*
Y13454D01*
X17080Y13200D02*
Y13454D01*
X17486Y13200D02*
X17677D01*
X17486Y13454D02*
X17677D01*
X17080D02*
X17270D01*
X17080Y13200D02*
X17270D01*
X17677Y14437D02*
Y14691D01*
X17080Y14437D02*
Y14691D01*
X17486Y14437D02*
X17677D01*
X17486Y14691D02*
X17677D01*
X17080D02*
X17270D01*
X17080Y14437D02*
X17270D01*
X17677Y14025D02*
Y14279D01*
X17080Y14025D02*
Y14279D01*
X17486Y14025D02*
X17677D01*
X17486Y14279D02*
X17677D01*
X17080D02*
X17270D01*
X17080Y14025D02*
X17270D01*
X17677Y13617D02*
Y13871D01*
X17080Y13617D02*
Y13871D01*
X17486Y13617D02*
X17677D01*
X17486Y13871D02*
X17677D01*
X17080D02*
X17270D01*
X17080Y13617D02*
X17270D01*
X17677Y12790D02*
Y13044D01*
X17080Y12790D02*
Y13044D01*
X17486Y12790D02*
X17677D01*
X17486Y13044D02*
X17677D01*
X17080D02*
X17270D01*
X17080Y12790D02*
X17270D01*
X17677Y12380D02*
Y12634D01*
X17080Y12380D02*
Y12634D01*
X17486Y12380D02*
X17677D01*
X17486Y12634D02*
X17677D01*
X17080D02*
X17270D01*
X17080Y12380D02*
X17270D01*
X17677Y11967D02*
Y12221D01*
X17080Y11967D02*
Y12221D01*
X17486Y11967D02*
X17677D01*
X17486Y12221D02*
X17677D01*
X17080D02*
X17270D01*
X17080Y11967D02*
X17270D01*
X17677Y14850D02*
Y15104D01*
X17080Y14850D02*
Y15104D01*
X17486Y14850D02*
X17677D01*
X17486Y15104D02*
X17677D01*
X17080D02*
X17270D01*
X17080Y14850D02*
X17270D01*
X22061Y19821D02*
X22251D01*
X22061Y20075D02*
X22251D01*
X22467D02*
X22658D01*
X22467Y19821D02*
X22658D01*
X22061D02*
Y20075D01*
X22658Y19821D02*
Y20075D01*
X22061Y21285D02*
X22251D01*
X22061Y21539D02*
X22251D01*
X22467D02*
X22658D01*
X22467Y21285D02*
X22658D01*
X22061D02*
Y21539D01*
X22658Y21285D02*
Y21539D01*
X22061Y21621D02*
X22251D01*
X22061Y21875D02*
X22251D01*
X22467D02*
X22658D01*
X22467Y21621D02*
X22658D01*
X22061D02*
Y21875D01*
X22658Y21621D02*
Y21875D01*
X22061Y19486D02*
X22251D01*
X22061Y19740D02*
X22251D01*
X22467D02*
X22658D01*
X22467Y19486D02*
X22658D01*
X22061D02*
Y19740D01*
X22658Y19486D02*
Y19740D01*
X23255Y20795D02*
Y20985D01*
X23509Y20795D02*
Y20985D01*
Y20388D02*
Y20579D01*
X23255Y20388D02*
Y20579D01*
Y20985D02*
X23509D01*
X23255Y20388D02*
X23509D01*
X21223Y20817D02*
Y21008D01*
X21477Y20817D02*
Y21008D01*
Y20411D02*
Y20601D01*
X21223Y20411D02*
Y20601D01*
Y21008D02*
X21477D01*
X21223Y20411D02*
X21477D01*
X22919Y20795D02*
Y20985D01*
X23173Y20795D02*
Y20985D01*
Y20388D02*
Y20579D01*
X22919Y20388D02*
Y20579D01*
Y20985D02*
X23173D01*
X22919Y20388D02*
X23173D01*
X21558Y20817D02*
Y21008D01*
X21812Y20817D02*
Y21008D01*
Y20411D02*
Y20601D01*
X21558Y20411D02*
Y20601D01*
Y21008D02*
X21812D01*
X21558Y20411D02*
X21812D01*
X30564Y12073D02*
X30818D01*
X30564Y12669D02*
X30818D01*
X30564Y12073D02*
Y12263D01*
X30818Y12073D02*
Y12263D01*
Y12479D02*
Y12669D01*
X30564Y12479D02*
Y12669D01*
X31732Y12073D02*
X31986D01*
X31732Y12669D02*
X31986D01*
X31732Y12073D02*
Y12263D01*
X31986Y12073D02*
Y12263D01*
Y12479D02*
Y12669D01*
X31732Y12479D02*
Y12669D01*
X32958Y12073D02*
X33212D01*
X32958Y12669D02*
X33212D01*
X32958Y12073D02*
Y12263D01*
X33212Y12073D02*
Y12263D01*
Y12479D02*
Y12669D01*
X32958Y12479D02*
Y12669D01*
X21473Y27061D02*
Y27315D01*
X22070Y27061D02*
Y27315D01*
X21473D02*
X21664D01*
X21473Y27061D02*
X21664D01*
X21880D02*
X22070D01*
X21880Y27315D02*
X22070D01*
X21406Y27063D02*
Y27317D01*
X20809Y27063D02*
Y27317D01*
X21216Y27063D02*
X21406D01*
X21216Y27317D02*
X21406D01*
X20809D02*
X21000D01*
X20809Y27063D02*
X21000D01*
X20861Y26081D02*
Y26335D01*
X21458Y26081D02*
Y26335D01*
X20861D02*
X21051D01*
X20861Y26081D02*
X21051D01*
X21267D02*
X21458D01*
X21267Y26335D02*
X21458D01*
X26779Y27040D02*
Y27294D01*
X27376Y27040D02*
Y27294D01*
X26779D02*
X26969D01*
X26779Y27040D02*
X26969D01*
X27185D02*
X27376D01*
X27185Y27294D02*
X27376D01*
X26685Y27041D02*
Y27295D01*
X26088Y27041D02*
Y27295D01*
X26494Y27041D02*
X26685D01*
X26494Y27295D02*
X26685D01*
X26088D02*
X26278D01*
X26088Y27041D02*
X26278D01*
X26116Y26058D02*
Y26312D01*
X26713Y26058D02*
Y26312D01*
X26116D02*
X26307D01*
X26116Y26058D02*
X26307D01*
X26523D02*
X26713D01*
X26523Y26312D02*
X26713D01*
X27219Y25278D02*
Y25532D01*
X27816Y25278D02*
Y25532D01*
X27219D02*
X27409D01*
X27219Y25278D02*
X27409D01*
X27625D02*
X27816D01*
X27625Y25532D02*
X27816D01*
X24039Y27064D02*
Y27318D01*
X23442Y27064D02*
Y27318D01*
X23849Y27064D02*
X24039D01*
X23849Y27318D02*
X24039D01*
X23442D02*
X23633D01*
X23442Y27064D02*
X23633D01*
X24140Y27064D02*
Y27318D01*
X24737Y27064D02*
Y27318D01*
X24140D02*
X24330D01*
X24140Y27064D02*
X24330D01*
X24546D02*
X24737D01*
X24546Y27318D02*
X24737D01*
X23465Y26144D02*
Y26398D01*
X24062Y26144D02*
Y26398D01*
X23465D02*
X23656D01*
X23465Y26144D02*
X23656D01*
X23871D02*
X24062D01*
X23871Y26398D02*
X24062D01*
X18882Y26119D02*
Y26373D01*
X19479Y26119D02*
Y26373D01*
X18882D02*
X19073D01*
X18882Y26119D02*
X19073D01*
X19289D02*
X19479D01*
X19289Y26373D02*
X19479D01*
X19468Y25789D02*
Y26043D01*
X18871Y25789D02*
Y26043D01*
X19277Y25789D02*
X19468D01*
X19277Y26043D02*
X19468D01*
X18871D02*
X19061D01*
X18871Y25789D02*
X19061D01*
X19467Y25424D02*
Y25678D01*
X18870Y25424D02*
Y25678D01*
X19277Y25424D02*
X19467D01*
X19277Y25678D02*
X19467D01*
X18870D02*
X19061D01*
X18870Y25424D02*
X19061D01*
X16607Y23677D02*
X16861D01*
X16607Y23080D02*
X16861D01*
Y23487D02*
Y23677D01*
X16607Y23487D02*
Y23677D01*
Y23080D02*
Y23271D01*
X16861Y23080D02*
Y23271D01*
X31478Y26184D02*
X31668D01*
X31478Y26438D02*
X31668D01*
X31884D02*
X32075D01*
X31884Y26184D02*
X32075D01*
X31478D02*
Y26438D01*
X32075Y26184D02*
Y26438D01*
X31478Y26519D02*
Y26773D01*
X32075Y26519D02*
Y26773D01*
X31478D02*
X31668D01*
X31478Y26519D02*
X31668D01*
X31884D02*
X32075D01*
X31884Y26773D02*
X32075D01*
X31478Y25849D02*
Y26103D01*
X32075Y25849D02*
Y26103D01*
X31478D02*
X31668D01*
X31478Y25849D02*
X31668D01*
X31884D02*
X32075D01*
X31884Y26103D02*
X32075D01*
X31478Y26854D02*
Y27108D01*
X32075Y26854D02*
Y27108D01*
X31478D02*
X31668D01*
X31478Y26854D02*
X31668D01*
X31884D02*
X32075D01*
X31884Y27108D02*
X32075D01*
Y25178D02*
Y25432D01*
X31478Y25178D02*
Y25432D01*
X31884Y25178D02*
X32075D01*
X31884Y25432D02*
X32075D01*
X31478D02*
X31668D01*
X31478Y25178D02*
X31668D01*
X32074Y25511D02*
Y25765D01*
X31477Y25511D02*
Y25765D01*
X31883Y25511D02*
X32074D01*
X31883Y25765D02*
X32074D01*
X31477D02*
X31667D01*
X31477Y25511D02*
X31667D01*
X29048Y25801D02*
Y26055D01*
X29645Y25801D02*
Y26055D01*
X29048D02*
X29239D01*
X29048Y25801D02*
X29239D01*
X29455D02*
X29645D01*
X29455Y26055D02*
X29645D01*
X29041Y26269D02*
Y26523D01*
X29638Y26269D02*
Y26523D01*
X29041D02*
X29231D01*
X29041Y26269D02*
X29231D01*
X29447D02*
X29638D01*
X29447Y26523D02*
X29638D01*
X21632Y22028D02*
Y22219D01*
X21378Y22028D02*
Y22219D01*
Y22435D02*
Y22625D01*
X21632Y22435D02*
Y22625D01*
X21378Y22028D02*
X21632D01*
X21378Y22625D02*
X21632D01*
X20935Y21803D02*
X21125D01*
X20935Y21549D02*
X21125D01*
X20528D02*
X20719D01*
X20528Y21803D02*
X20719D01*
X21125Y21549D02*
Y21803D01*
X20528Y21549D02*
Y21803D01*
X20925Y20229D02*
X21115D01*
X20925Y19975D02*
X21115D01*
X20518D02*
X20709D01*
X20518Y20229D02*
X20709D01*
X21115Y19975D02*
Y20229D01*
X20518Y19975D02*
Y20229D01*
X24178Y19970D02*
X24369D01*
X24178Y19716D02*
X24369D01*
X23772D02*
X23962D01*
X23772Y19970D02*
X23962D01*
X24369Y19716D02*
Y19970D01*
X23772Y19716D02*
Y19970D01*
X33945Y22899D02*
X34136D01*
X33945Y23153D02*
X34136D01*
X34351D02*
X34542D01*
X34351Y22899D02*
X34542D01*
X33945D02*
Y23153D01*
X34542Y22899D02*
Y23153D01*
X17360Y19386D02*
X17551D01*
X17360Y19132D02*
X17551D01*
X16954D02*
X17145D01*
X16954Y19386D02*
X17145D01*
X17551Y19132D02*
Y19386D01*
X16954Y19132D02*
Y19386D01*
X17436Y20548D02*
Y20802D01*
X18033Y20548D02*
Y20802D01*
X17436D02*
X17627D01*
X17436Y20548D02*
X17627D01*
X17843D02*
X18033D01*
X17843Y20802D02*
X18033D01*
X17424Y21012D02*
Y21266D01*
X18021Y21012D02*
Y21266D01*
X17424D02*
X17614D01*
X17424Y21012D02*
X17614D01*
X17830D02*
X18021D01*
X17830Y21266D02*
X18021D01*
M02*
