%FSLAX42Y42*%
%MOMM*%
G71*
G01*
G75*
%ADD10C,0.20*%
%ADD11R,1.90X2.29*%
%ADD12R,1.52X1.52*%
%ADD13R,0.28X1.78*%
%ADD14R,1.78X0.28*%
%ADD15R,1.78X0.28*%
%ADD16O,1.78X0.28*%
%ADD17C,1.00*%
%ADD18C,0.40*%
%ADD19C,0.50*%
%ADD20C,0.80*%
%ADD21C,0.70*%
%ADD22C,0.20*%
%ADD23C,0.25*%
%ADD24C,0.30*%
%ADD25C,1.00*%
%ADD26C,0.70*%
%ADD27C,0.65*%
%ADD28O,2.00X1.50*%
%ADD29C,2.00*%
%ADD30C,4.00*%
%ADD31O,1.75X2.00*%
%ADD32R,1.75X2.00*%
%ADD33O,2.00X1.70*%
%ADD34O,2.00X1.70*%
%ADD35R,2.00X1.70*%
%ADD36C,1.52*%
%ADD37R,1.70X2.00*%
%ADD38O,1.70X2.00*%
%ADD39O,1.60X2.00*%
%ADD40R,1.60X2.00*%
%ADD41R,1.70X2.00*%
%ADD42O,1.70X2.00*%
%ADD43C,1.50*%
%ADD44R,2.00X1.75*%
%ADD45O,2.00X1.75*%
%ADD46O,2.00X1.60*%
%ADD47R,2.00X1.60*%
%ADD48O,2.00X1.60*%
%ADD49R,1.75X2.00*%
%ADD50O,1.75X2.00*%
%ADD51C,3.50*%
%ADD52C,3.50*%
%ADD53C,2.25*%
%ADD54C,3.50*%
%ADD55C,2.50*%
%ADD56C,1.75*%
%ADD57C,1.50*%
%ADD58R,1.75X2.20*%
%ADD59R,1.75X2.20*%
%ADD60C,3.00*%
%ADD61R,5.00X2.50*%
%ADD62R,2.50X5.00*%
%ADD63C,2.00*%
%ADD64R,2.00X2.00*%
%ADD65O,2.00X2.50*%
%ADD66C,1.27*%
%ADD67R,0.91X0.91*%
%ADD68R,0.91X1.27*%
%ADD69O,0.61X3.05*%
%ADD70O,0.61X6.10*%
%ADD71O,3.81X0.80*%
%ADD72C,0.30*%
%ADD73C,0.25*%
%ADD74C,0.31*%
%ADD75C,0.54*%
%ADD76C,0.35*%
%ADD77R,2.11X2.49*%
%ADD78R,1.73X1.73*%
%ADD79R,0.48X1.98*%
%ADD80R,1.98X0.48*%
%ADD81R,1.98X0.48*%
%ADD82O,1.98X0.48*%
%ADD83O,2.20X1.70*%
%ADD84C,2.20*%
%ADD85C,4.20*%
%ADD86O,1.95X2.20*%
%ADD87R,1.95X2.20*%
%ADD88O,2.20X1.90*%
%ADD89O,2.20X1.90*%
%ADD90R,2.20X1.90*%
%ADD91C,1.73*%
%ADD92R,1.90X2.20*%
%ADD93O,1.90X2.20*%
%ADD94O,1.80X2.20*%
%ADD95R,1.80X2.20*%
%ADD96R,1.90X2.20*%
%ADD97O,1.90X2.20*%
%ADD98C,1.70*%
%ADD99R,2.20X1.95*%
%ADD100O,2.20X1.95*%
%ADD101O,2.20X1.80*%
%ADD102R,2.20X1.80*%
%ADD103O,2.20X1.80*%
%ADD104R,1.95X2.20*%
%ADD105O,1.95X2.20*%
%ADD106C,3.70*%
%ADD107C,3.70*%
%ADD108C,2.45*%
%ADD109C,3.70*%
%ADD110C,2.70*%
%ADD111C,1.95*%
%ADD112C,1.70*%
%ADD113R,1.95X2.40*%
%ADD114R,1.95X2.40*%
%ADD115C,3.20*%
%ADD116R,5.20X2.70*%
%ADD117R,2.70X5.20*%
%ADD118C,2.53*%
%ADD119C,2.20*%
%ADD120R,2.20X2.20*%
%ADD121O,2.20X2.70*%
%ADD122C,1.47*%
%ADD123R,1.12X1.12*%
%ADD124R,1.12X1.47*%
%ADD125O,0.81X3.25*%
%ADD126O,0.81X6.30*%
%ADD127O,4.01X1.00*%
%ADD128C,0.15*%
D11*
X23829Y12512D02*
D03*
X24172D02*
D03*
X16972Y14975D02*
D03*
X17315D02*
D03*
Y14564D02*
D03*
Y14152D02*
D03*
Y13741D02*
D03*
Y13329D02*
D03*
Y12918D02*
D03*
Y12506D02*
D03*
Y12095D02*
D03*
X20737Y14988D02*
D03*
Y14577D02*
D03*
Y14165D02*
D03*
Y13754D02*
D03*
Y13342D02*
D03*
Y12931D02*
D03*
Y12108D02*
D03*
X24172Y14980D02*
D03*
Y14569D02*
D03*
Y14157D02*
D03*
Y13746D02*
D03*
Y13334D02*
D03*
Y12923D02*
D03*
Y12100D02*
D03*
X27611Y14990D02*
D03*
Y14578D02*
D03*
Y14167D02*
D03*
Y13755D02*
D03*
Y13344D02*
D03*
Y12932D02*
D03*
Y12521D02*
D03*
Y12109D02*
D03*
X20394Y14577D02*
D03*
Y14165D02*
D03*
Y13754D02*
D03*
Y13342D02*
D03*
Y12931D02*
D03*
Y12108D02*
D03*
X23829Y14980D02*
D03*
Y14569D02*
D03*
Y14157D02*
D03*
Y13746D02*
D03*
Y13334D02*
D03*
Y12923D02*
D03*
Y12100D02*
D03*
X27268Y14990D02*
D03*
Y14578D02*
D03*
Y14167D02*
D03*
Y13755D02*
D03*
Y13344D02*
D03*
X16972Y14564D02*
D03*
X27268Y12932D02*
D03*
Y12521D02*
D03*
Y12109D02*
D03*
X16972Y14152D02*
D03*
Y13741D02*
D03*
Y13329D02*
D03*
Y12918D02*
D03*
Y12506D02*
D03*
Y12095D02*
D03*
X20394Y14988D02*
D03*
Y12519D02*
D03*
X20737D02*
D03*
X24566Y25755D02*
D03*
X24909D02*
D03*
X27341Y25814D02*
D03*
X27684D02*
D03*
X21994Y25814D02*
D03*
X22337D02*
D03*
X17084Y19189D02*
D03*
X17427D02*
D03*
D12*
X27686Y26217D02*
D03*
X24906Y26152D02*
D03*
X27343Y26217D02*
D03*
X24563Y26152D02*
D03*
X22337Y26194D02*
D03*
X21994D02*
D03*
D13*
X21112Y22199D02*
D03*
X21162D02*
D03*
X21212D02*
D03*
X21262D02*
D03*
X21312D02*
D03*
X21362D02*
D03*
X21412D02*
D03*
X21462D02*
D03*
X21512D02*
D03*
X21562D02*
D03*
X21612D02*
D03*
X21662D02*
D03*
X21712D02*
D03*
X21762D02*
D03*
X21812D02*
D03*
X21862D02*
D03*
X21912D02*
D03*
X21962D02*
D03*
X22012D02*
D03*
X22062D02*
D03*
X22112D02*
D03*
X22162D02*
D03*
X22212D02*
D03*
X22262D02*
D03*
X22312D02*
D03*
X22362D02*
D03*
X22412D02*
D03*
X22462D02*
D03*
X22512D02*
D03*
X22562D02*
D03*
X22612D02*
D03*
X22662D02*
D03*
X22712D02*
D03*
X22762D02*
D03*
X22812D02*
D03*
X22862D02*
D03*
X22912D02*
D03*
X22962D02*
D03*
X23012D02*
D03*
X23062D02*
D03*
X23112D02*
D03*
X23162D02*
D03*
X23212D02*
D03*
X23262D02*
D03*
X23312D02*
D03*
X23362D02*
D03*
X23412D02*
D03*
X23462D02*
D03*
X23512D02*
D03*
X23562D02*
D03*
X23612D02*
D03*
X23662D02*
D03*
Y19192D02*
D03*
X23612D02*
D03*
X23562D02*
D03*
X23512D02*
D03*
X23462D02*
D03*
X23412D02*
D03*
X23362D02*
D03*
X23312D02*
D03*
X23262D02*
D03*
X23212D02*
D03*
X23162D02*
D03*
X23112D02*
D03*
X23062D02*
D03*
X23012D02*
D03*
X22962D02*
D03*
X22912D02*
D03*
X22862D02*
D03*
X22812D02*
D03*
X22762D02*
D03*
X22712D02*
D03*
X22662D02*
D03*
X22612D02*
D03*
X22562D02*
D03*
X22512D02*
D03*
X22462D02*
D03*
X22412D02*
D03*
X22362D02*
D03*
X22312D02*
D03*
X22262D02*
D03*
X22212D02*
D03*
X22162D02*
D03*
X22112D02*
D03*
X22062D02*
D03*
X22012D02*
D03*
X21962D02*
D03*
X21912D02*
D03*
X21862D02*
D03*
X21812D02*
D03*
X21762D02*
D03*
X21712D02*
D03*
X21662D02*
D03*
X21612D02*
D03*
X21562D02*
D03*
X21512D02*
D03*
X21462D02*
D03*
X21412D02*
D03*
X21362D02*
D03*
X21312D02*
D03*
X21262D02*
D03*
X21212D02*
D03*
X21162D02*
D03*
X21112D02*
D03*
D14*
X23890Y21971D02*
D03*
Y21921D02*
D03*
Y21871D02*
D03*
Y21821D02*
D03*
Y21771D02*
D03*
Y21721D02*
D03*
Y21671D02*
D03*
Y21621D02*
D03*
Y21571D02*
D03*
Y21521D02*
D03*
Y21471D02*
D03*
Y21421D02*
D03*
Y21371D02*
D03*
Y21321D02*
D03*
Y21271D02*
D03*
Y21221D02*
D03*
Y21171D02*
D03*
Y21121D02*
D03*
Y20971D02*
D03*
Y20921D02*
D03*
Y20871D02*
D03*
Y20821D02*
D03*
Y20771D02*
D03*
Y20721D02*
D03*
Y20671D02*
D03*
Y20621D02*
D03*
Y20571D02*
D03*
Y20521D02*
D03*
Y20471D02*
D03*
Y20321D02*
D03*
Y20271D02*
D03*
Y20221D02*
D03*
Y20171D02*
D03*
Y20121D02*
D03*
Y20071D02*
D03*
Y20021D02*
D03*
Y19971D02*
D03*
Y19921D02*
D03*
Y19871D02*
D03*
Y19821D02*
D03*
Y19771D02*
D03*
Y19721D02*
D03*
Y19671D02*
D03*
Y19621D02*
D03*
Y19571D02*
D03*
Y19521D02*
D03*
Y19471D02*
D03*
Y19421D02*
D03*
X20883D02*
D03*
Y19471D02*
D03*
Y19521D02*
D03*
Y19571D02*
D03*
Y19621D02*
D03*
Y19671D02*
D03*
Y19721D02*
D03*
Y19771D02*
D03*
Y19821D02*
D03*
Y19871D02*
D03*
Y19921D02*
D03*
Y19971D02*
D03*
Y20021D02*
D03*
Y20071D02*
D03*
Y20121D02*
D03*
Y20171D02*
D03*
Y20221D02*
D03*
Y20271D02*
D03*
Y20321D02*
D03*
Y20371D02*
D03*
Y20421D02*
D03*
Y20471D02*
D03*
Y20521D02*
D03*
Y20571D02*
D03*
Y20621D02*
D03*
Y20671D02*
D03*
Y20721D02*
D03*
Y20771D02*
D03*
Y20821D02*
D03*
Y20871D02*
D03*
Y20921D02*
D03*
Y20971D02*
D03*
Y21021D02*
D03*
Y21071D02*
D03*
Y21121D02*
D03*
Y21171D02*
D03*
Y21221D02*
D03*
Y21271D02*
D03*
Y21321D02*
D03*
Y21371D02*
D03*
Y21421D02*
D03*
Y21471D02*
D03*
Y21521D02*
D03*
Y21571D02*
D03*
Y21621D02*
D03*
Y21671D02*
D03*
Y21721D02*
D03*
Y21771D02*
D03*
Y21821D02*
D03*
Y21871D02*
D03*
Y21921D02*
D03*
D15*
X23890Y21071D02*
D03*
Y21021D02*
D03*
Y20421D02*
D03*
Y20371D02*
D03*
D16*
X20883Y21971D02*
D03*
D28*
X18418Y27053D02*
D03*
Y26807D02*
D03*
D29*
X18593Y28497D02*
D03*
Y27481D02*
D03*
X17527Y26339D02*
D03*
Y27355D02*
D03*
X17862Y26339D02*
D03*
Y27355D02*
D03*
X17191Y26339D02*
D03*
Y27355D02*
D03*
X16856Y26339D02*
D03*
Y27355D02*
D03*
X17157Y24421D02*
D03*
X16903Y24421D02*
D03*
X17867Y24399D02*
D03*
X17613D02*
D03*
X29719Y23080D02*
D03*
X29726Y23801D02*
D03*
X29703Y24330D02*
D03*
X29680Y24858D02*
D03*
X34621Y22727D02*
D03*
Y22155D02*
D03*
X34628Y21586D02*
D03*
X18136Y16143D02*
D03*
X17067Y19585D02*
D03*
X16903Y22034D02*
D03*
X17157D02*
D03*
D30*
X28876Y27871D02*
D03*
X33595D02*
D03*
X16285Y26705D02*
D03*
Y24201D02*
D03*
X16277Y23019D02*
D03*
Y20514D02*
D03*
D31*
X29712Y27998D02*
D03*
X29989D02*
D03*
X30266D02*
D03*
X30542D02*
D03*
X30819D02*
D03*
X31096D02*
D03*
X31373D02*
D03*
X31650D02*
D03*
X31927D02*
D03*
X32204D02*
D03*
X32480D02*
D03*
X32757D02*
D03*
X29575Y27744D02*
D03*
X29851D02*
D03*
X30128D02*
D03*
X30405D02*
D03*
X30682D02*
D03*
X30959D02*
D03*
X31236D02*
D03*
X31513D02*
D03*
X31790D02*
D03*
X32066D02*
D03*
X32343D02*
D03*
X32620D02*
D03*
X29635Y19813D02*
D03*
X29889D02*
D03*
X30143D02*
D03*
X30397D02*
D03*
X30651D02*
D03*
X30905D02*
D03*
X31159D02*
D03*
X31413D02*
D03*
X28556Y19817D02*
D03*
X28810D02*
D03*
X29064D02*
D03*
X29318D02*
D03*
D32*
X32897Y27744D02*
D03*
X31667Y19813D02*
D03*
X28302Y19817D02*
D03*
D33*
X34959Y20363D02*
D03*
Y20109D02*
D03*
X26467Y17795D02*
D03*
Y18303D02*
D03*
X26213D02*
D03*
X26467Y18557D02*
D03*
X26213D02*
D03*
X26467Y18811D02*
D03*
X26213Y18811D02*
D03*
X26467Y19065D02*
D03*
X26213D02*
D03*
X26467Y19319D02*
D03*
X26213D02*
D03*
X26467Y19573D02*
D03*
X26213Y19827D02*
D03*
X26467Y20081D02*
D03*
Y20335D02*
D03*
X26213D02*
D03*
X26467Y20589D02*
D03*
Y20843D02*
D03*
X26213D02*
D03*
X26467Y21097D02*
D03*
X26213D02*
D03*
X26467Y21351D02*
D03*
X26213D02*
D03*
X26467Y21605D02*
D03*
X26213D02*
D03*
X26467Y21859D02*
D03*
Y22367D02*
D03*
X26213D02*
D03*
X26467Y22621D02*
D03*
X26213D02*
D03*
X26467Y22875D02*
D03*
X26213D02*
D03*
X26467Y23129D02*
D03*
X26213D02*
D03*
X26467Y23383D02*
D03*
X26213D02*
D03*
X26467Y23637D02*
D03*
X26213Y17795D02*
D03*
X26467Y18049D02*
D03*
Y19827D02*
D03*
X26213Y21859D02*
D03*
Y23637D02*
D03*
Y20081D02*
D03*
Y22113D02*
D03*
Y19573D02*
D03*
Y20589D02*
D03*
X26467Y22113D02*
D03*
Y23891D02*
D03*
X26213D02*
D03*
Y18049D02*
D03*
Y17541D02*
D03*
X34703Y25883D02*
D03*
X18544Y23852D02*
D03*
X18290Y23598D02*
D03*
X18544D02*
D03*
X18290Y23344D02*
D03*
X18544D02*
D03*
X18290Y23090D02*
D03*
X18544D02*
D03*
X18290Y22836D02*
D03*
X18544D02*
D03*
X18290Y22582D02*
D03*
X18544D02*
D03*
X18290Y22328D02*
D03*
X18544D02*
D03*
X18290Y22074D02*
D03*
X18290Y21566D02*
D03*
X18544D02*
D03*
X18290Y21312D02*
D03*
X18544D02*
D03*
X18290Y21058D02*
D03*
X18544D02*
D03*
Y20804D02*
D03*
Y20550D02*
D03*
Y20296D02*
D03*
X18290Y20042D02*
D03*
X18544D02*
D03*
X18290Y19788D02*
D03*
X18544D02*
D03*
X18290Y19534D02*
D03*
X18544Y19534D02*
D03*
X18290Y19280D02*
D03*
X18544D02*
D03*
X18290Y19026D02*
D03*
X18544Y18772D02*
D03*
X18290Y18518D02*
D03*
X18544D02*
D03*
X18290Y18264D02*
D03*
X18544D02*
D03*
X18290Y18010D02*
D03*
X18544D02*
D03*
X18290Y17756D02*
D03*
X33100Y24998D02*
D03*
Y25252D02*
D03*
Y26788D02*
D03*
X34957Y26645D02*
D03*
X33100Y27042D02*
D03*
X34957Y25883D02*
D03*
X33100Y25893D02*
D03*
X34957Y26137D02*
D03*
X33100Y26147D02*
D03*
X34703Y26391D02*
D03*
X18544Y21820D02*
D03*
Y19026D02*
D03*
Y17756D02*
D03*
Y22074D02*
D03*
X18290Y20550D02*
D03*
X34703Y26645D02*
D03*
Y25629D02*
D03*
X18290Y21820D02*
D03*
Y20804D02*
D03*
Y20296D02*
D03*
Y18772D02*
D03*
Y17502D02*
D03*
X18544Y17502D02*
D03*
X34703Y26137D02*
D03*
X34957Y26391D02*
D03*
D34*
X34959Y20617D02*
D03*
D35*
X26467Y17541D02*
D03*
X34957Y25629D02*
D03*
X33100Y24744D02*
D03*
Y26534D02*
D03*
Y25639D02*
D03*
X18290Y23852D02*
D03*
D36*
X32160Y17926D02*
D03*
X32144Y17406D02*
D03*
X32154Y17675D02*
D03*
X32142Y18168D02*
D03*
X26886Y17926D02*
D03*
X26902Y17675D02*
D03*
X26909Y17406D02*
D03*
X23653Y19920D02*
D03*
X19480Y27415D02*
D03*
X19642Y27415D02*
D03*
X19480Y28015D02*
D03*
X19655Y28015D02*
D03*
X18979Y27766D02*
D03*
Y27665D02*
D03*
X34486Y27708D02*
D03*
X34218Y12663D02*
D03*
X15964Y12966D02*
D03*
X16448Y27986D02*
D03*
D37*
X34630Y24659D02*
D03*
X19237Y16618D02*
D03*
X25540Y24802D02*
D03*
X27424Y23795D02*
D03*
Y21774D02*
D03*
Y22448D02*
D03*
Y23122D02*
D03*
X34410Y23590D02*
D03*
D38*
X34884Y24659D02*
D03*
X16723Y18826D02*
D03*
X16469D02*
D03*
X16215D02*
D03*
X15961D02*
D03*
X19745Y16618D02*
D03*
X34664Y23590D02*
D03*
X27678Y23795D02*
D03*
Y21774D02*
D03*
Y22448D02*
D03*
Y23122D02*
D03*
X19237Y16872D02*
D03*
X24825D02*
D03*
X25079Y16618D02*
D03*
X25540Y24548D02*
D03*
X25286Y24802D02*
D03*
Y24548D02*
D03*
X25032Y24802D02*
D03*
X24270Y24548D02*
D03*
X24016Y24802D02*
D03*
X23762Y24548D02*
D03*
X23508Y24802D02*
D03*
X21730Y24548D02*
D03*
X21476Y24802D02*
D03*
Y24548D02*
D03*
X20714D02*
D03*
X20460Y24802D02*
D03*
Y24548D02*
D03*
X20206Y24802D02*
D03*
X19952D02*
D03*
Y24548D02*
D03*
X19698Y24802D02*
D03*
Y24548D02*
D03*
X19444Y24802D02*
D03*
X23508Y24548D02*
D03*
X23254Y24548D02*
D03*
X19491Y16618D02*
D03*
X19444Y24548D02*
D03*
X24524Y24548D02*
D03*
X24270Y24802D02*
D03*
X23000Y24802D02*
D03*
X22746D02*
D03*
Y24548D02*
D03*
X22492Y24802D02*
D03*
Y24548D02*
D03*
X22238Y24802D02*
D03*
Y24548D02*
D03*
X21984Y24802D02*
D03*
X19745Y16872D02*
D03*
X19999Y16618D02*
D03*
Y16872D02*
D03*
X20253Y16618D02*
D03*
X20507D02*
D03*
Y16872D02*
D03*
X20761D02*
D03*
X21015Y16618D02*
D03*
Y16872D02*
D03*
X21269Y16618D02*
D03*
Y16872D02*
D03*
X21777Y16618D02*
D03*
Y16872D02*
D03*
X22031Y16618D02*
D03*
Y16872D02*
D03*
X22285Y16618D02*
D03*
X23254Y24802D02*
D03*
X24524Y24802D02*
D03*
X24778Y24548D02*
D03*
Y24802D02*
D03*
X19491Y16872D02*
D03*
X21222Y24548D02*
D03*
Y24802D02*
D03*
X22285Y16872D02*
D03*
X22539Y16618D02*
D03*
Y16872D02*
D03*
X22793D02*
D03*
X23047Y16618D02*
D03*
Y16872D02*
D03*
X23301Y16618D02*
D03*
Y16872D02*
D03*
X23555Y16618D02*
D03*
X23809Y16872D02*
D03*
X24063Y16618D02*
D03*
Y16872D02*
D03*
X24317Y16618D02*
D03*
Y16872D02*
D03*
X24571Y16618D02*
D03*
Y16872D02*
D03*
X25333Y16618D02*
D03*
Y16872D02*
D03*
X25587Y16618D02*
D03*
X20968Y24548D02*
D03*
Y24802D02*
D03*
X34918Y23590D02*
D03*
X24016Y24548D02*
D03*
X21984D02*
D03*
X20206D02*
D03*
X19190D02*
D03*
X27424Y24049D02*
D03*
X27678Y24049D02*
D03*
X27932Y24049D02*
D03*
X27424Y22028D02*
D03*
X27678D02*
D03*
X27932D02*
D03*
X20253Y16872D02*
D03*
X21523D02*
D03*
X23809Y16618D02*
D03*
X25587Y16872D02*
D03*
X27424Y22702D02*
D03*
X27678D02*
D03*
X27932D02*
D03*
X27424Y23376D02*
D03*
X27678D02*
D03*
X27932D02*
D03*
X21523Y16618D02*
D03*
X23555Y16872D02*
D03*
X23762Y24802D02*
D03*
X21730D02*
D03*
X27932Y23795D02*
D03*
Y21774D02*
D03*
Y22448D02*
D03*
Y23122D02*
D03*
X20761Y16618D02*
D03*
X22793D02*
D03*
X24825D02*
D03*
X25079Y16872D02*
D03*
X23000Y24548D02*
D03*
X20714Y24802D02*
D03*
X19190D02*
D03*
X25032Y24548D02*
D03*
X34410Y23844D02*
D03*
X34664D02*
D03*
X34918D02*
D03*
X17867Y22022D02*
D03*
X17613D02*
D03*
D39*
X15690Y16605D02*
D03*
X17214D02*
D03*
Y15843D02*
D03*
X18352Y26246D02*
D03*
X19876D02*
D03*
Y25484D02*
D03*
D40*
X15690Y15843D02*
D03*
X18352Y25484D02*
D03*
D41*
X15961Y18064D02*
D03*
D42*
X16215D02*
D03*
X16469D02*
D03*
X16723D02*
D03*
D43*
X17336Y18368D02*
D03*
Y18114D02*
D03*
D44*
X29434Y12394D02*
D03*
X25995D02*
D03*
X19117D02*
D03*
X22556D02*
D03*
X16412Y24899D02*
D03*
X16404Y21213D02*
D03*
D45*
X29434Y14426D02*
D03*
Y14172D02*
D03*
Y13918D02*
D03*
Y13664D02*
D03*
Y13410D02*
D03*
Y13156D02*
D03*
Y12902D02*
D03*
Y12648D02*
D03*
X25995Y14426D02*
D03*
Y14172D02*
D03*
Y13918D02*
D03*
Y13664D02*
D03*
Y13410D02*
D03*
Y13156D02*
D03*
Y12902D02*
D03*
Y12648D02*
D03*
X19117D02*
D03*
Y12902D02*
D03*
Y13156D02*
D03*
Y13410D02*
D03*
Y13664D02*
D03*
Y13918D02*
D03*
Y14172D02*
D03*
Y14426D02*
D03*
X22556Y12648D02*
D03*
Y12902D02*
D03*
Y13156D02*
D03*
Y13410D02*
D03*
Y13664D02*
D03*
Y13918D02*
D03*
Y14172D02*
D03*
Y14426D02*
D03*
X16158Y25870D02*
D03*
Y25593D02*
D03*
Y25316D02*
D03*
Y25039D02*
D03*
X16412Y26007D02*
D03*
Y25730D02*
D03*
Y25453D02*
D03*
Y25176D02*
D03*
X16150Y22183D02*
D03*
Y21906D02*
D03*
Y21629D02*
D03*
Y21352D02*
D03*
X16404Y22320D02*
D03*
Y22043D02*
D03*
Y21767D02*
D03*
Y21490D02*
D03*
D46*
X28214Y12649D02*
D03*
Y12903D02*
D03*
Y13157D02*
D03*
Y13411D02*
D03*
Y13665D02*
D03*
Y13919D02*
D03*
Y14173D02*
D03*
X28976Y14427D02*
D03*
Y14173D02*
D03*
Y13919D02*
D03*
Y13665D02*
D03*
Y13411D02*
D03*
Y13157D02*
D03*
Y12903D02*
D03*
X25531Y12883D02*
D03*
Y13137D02*
D03*
Y13391D02*
D03*
Y13645D02*
D03*
Y13899D02*
D03*
Y14153D02*
D03*
Y14407D02*
D03*
X24769Y14153D02*
D03*
Y13899D02*
D03*
Y13645D02*
D03*
Y13391D02*
D03*
Y13137D02*
D03*
Y12883D02*
D03*
Y12629D02*
D03*
X21340Y14172D02*
D03*
Y13918D02*
D03*
Y13664D02*
D03*
Y13410D02*
D03*
Y13156D02*
D03*
Y12902D02*
D03*
Y12648D02*
D03*
X22102Y12902D02*
D03*
Y13156D02*
D03*
Y13410D02*
D03*
Y13664D02*
D03*
Y13918D02*
D03*
Y14172D02*
D03*
Y14426D02*
D03*
X18666Y14420D02*
D03*
Y14166D02*
D03*
Y13912D02*
D03*
Y13658D02*
D03*
Y13404D02*
D03*
Y13150D02*
D03*
Y12896D02*
D03*
X17904D02*
D03*
Y13150D02*
D03*
Y13404D02*
D03*
Y13658D02*
D03*
Y13912D02*
D03*
Y14166D02*
D03*
D47*
X28214Y14427D02*
D03*
X24769Y14407D02*
D03*
X21340Y14426D02*
D03*
X17904Y14420D02*
D03*
D48*
X28976Y12649D02*
D03*
X25531Y12629D02*
D03*
X22102Y12648D02*
D03*
X18666Y12642D02*
D03*
X17904Y12642D02*
D03*
D49*
X28097Y19275D02*
D03*
D50*
X28351D02*
D03*
X28605D02*
D03*
X28859D02*
D03*
X29113D02*
D03*
X29367D02*
D03*
X29621D02*
D03*
X29875D02*
D03*
X30129D02*
D03*
X30383D02*
D03*
X30637D02*
D03*
X30891D02*
D03*
X31145D02*
D03*
X31399D02*
D03*
X31653D02*
D03*
X31907D02*
D03*
D51*
X27551Y16278D02*
D03*
Y19275D02*
D03*
X35044D02*
D03*
D52*
Y16278D02*
D03*
D53*
X15969Y17661D02*
D03*
X16719D02*
D03*
X15969Y17211D02*
D03*
X16719D02*
D03*
X30353Y13372D02*
D03*
X31103D02*
D03*
X30353Y14323D02*
D03*
X31103D02*
D03*
X31554Y13372D02*
D03*
X32304D02*
D03*
X31554Y14323D02*
D03*
X32304D02*
D03*
X32756D02*
D03*
X33506D02*
D03*
X32756Y13873D02*
D03*
X33506D02*
D03*
X31554D02*
D03*
X32304D02*
D03*
X30353D02*
D03*
X31103D02*
D03*
X31554Y12922D02*
D03*
X32304D02*
D03*
X30353D02*
D03*
X31103D02*
D03*
X33506D02*
D03*
X32756D02*
D03*
X33506Y13372D02*
D03*
X32756D02*
D03*
D54*
X15835Y12323D02*
D03*
X34835D02*
D03*
X34827Y28324D02*
D03*
X15832Y28327D02*
D03*
D55*
X21355Y25836D02*
D03*
X20847D02*
D03*
X26676Y25814D02*
D03*
X26168D02*
D03*
X23966Y25836D02*
D03*
X23458D02*
D03*
X17286Y25780D02*
D03*
Y25272D02*
D03*
D56*
X26424Y25042D02*
D03*
X27440D02*
D03*
D57*
X28322Y25070D02*
D03*
X28068D02*
D03*
D58*
X21888Y26636D02*
D03*
X21634D02*
D03*
X24293Y26638D02*
D03*
X24039D02*
D03*
X27199Y26608D02*
D03*
X26945Y26608D02*
D03*
X26691D02*
D03*
D59*
X21380Y26636D02*
D03*
X24547Y26638D02*
D03*
D60*
X21634Y28414D02*
D03*
X24293Y28416D02*
D03*
X26945Y28386D02*
D03*
D61*
X19551Y27420D02*
D03*
X19556Y28015D02*
D03*
D62*
X18979Y27715D02*
D03*
D63*
X18038Y28214D02*
D03*
D64*
X16738D02*
D03*
Y28278D02*
D03*
Y28125D02*
D03*
X18036Y28214D02*
D03*
Y28278D02*
D03*
Y28125D02*
D03*
D65*
X17088Y28214D02*
D03*
X17388D02*
D03*
X17688D02*
D03*
M02*
