%FSLAX42Y42*%
%MOMM*%
G71*
G01*
G75*
%ADD10C,0.20*%
%ADD11R,1.90X2.29*%
%ADD12R,1.52X1.52*%
%ADD13R,0.28X1.78*%
%ADD14R,1.78X0.28*%
%ADD15R,1.78X0.28*%
%ADD16O,1.78X0.28*%
%ADD17C,1.00*%
%ADD18C,0.40*%
%ADD19C,0.50*%
%ADD20C,0.80*%
%ADD21C,0.70*%
%ADD22C,0.20*%
%ADD23C,0.25*%
%ADD24C,0.30*%
%ADD25C,1.00*%
%ADD26C,0.70*%
%ADD27C,0.65*%
%ADD28O,2.00X1.50*%
%ADD29C,2.00*%
%ADD30C,4.00*%
%ADD31O,1.75X2.00*%
%ADD32R,1.75X2.00*%
%ADD33O,2.00X1.70*%
%ADD34O,2.00X1.70*%
%ADD35R,2.00X1.70*%
%ADD36C,1.52*%
%ADD37R,1.70X2.00*%
%ADD38O,1.70X2.00*%
%ADD39O,1.60X2.00*%
%ADD40R,1.60X2.00*%
%ADD41R,1.70X2.00*%
%ADD42O,1.70X2.00*%
%ADD43C,1.50*%
%ADD44R,2.00X1.75*%
%ADD45O,2.00X1.75*%
%ADD46O,2.00X1.60*%
%ADD47R,2.00X1.60*%
%ADD48O,2.00X1.60*%
%ADD49R,1.75X2.00*%
%ADD50O,1.75X2.00*%
%ADD51C,3.50*%
%ADD52C,3.50*%
%ADD53C,2.25*%
%ADD54C,3.50*%
%ADD55C,2.50*%
%ADD56C,1.75*%
%ADD57C,1.50*%
%ADD58R,1.75X2.20*%
%ADD59R,1.75X2.20*%
%ADD60C,3.00*%
%ADD61R,5.00X2.50*%
%ADD62R,2.50X5.00*%
%ADD63C,2.00*%
%ADD64R,2.00X2.00*%
%ADD65O,2.00X2.50*%
%ADD66C,1.27*%
%ADD67R,0.91X0.91*%
%ADD68R,0.91X1.27*%
%ADD69O,0.61X3.05*%
%ADD70O,0.61X6.10*%
%ADD71O,3.81X0.80*%
%ADD72C,0.30*%
%ADD73C,0.25*%
%ADD74C,0.31*%
%ADD75C,0.54*%
%ADD76C,0.35*%
%ADD77R,2.11X2.49*%
%ADD78R,1.73X1.73*%
%ADD79R,0.48X1.98*%
%ADD80R,1.98X0.48*%
%ADD81R,1.98X0.48*%
%ADD82O,1.98X0.48*%
%ADD83O,2.20X1.70*%
%ADD84C,2.20*%
%ADD85C,4.20*%
%ADD86O,1.95X2.20*%
%ADD87R,1.95X2.20*%
%ADD88O,2.20X1.90*%
%ADD89O,2.20X1.90*%
%ADD90R,2.20X1.90*%
%ADD91C,1.73*%
%ADD92R,1.90X2.20*%
%ADD93O,1.90X2.20*%
%ADD94O,1.80X2.20*%
%ADD95R,1.80X2.20*%
%ADD96R,1.90X2.20*%
%ADD97O,1.90X2.20*%
%ADD98C,1.70*%
%ADD99R,2.20X1.95*%
%ADD100O,2.20X1.95*%
%ADD101O,2.20X1.80*%
%ADD102R,2.20X1.80*%
%ADD103O,2.20X1.80*%
%ADD104R,1.95X2.20*%
%ADD105O,1.95X2.20*%
%ADD106C,3.70*%
%ADD107C,3.70*%
%ADD108C,2.45*%
%ADD109C,3.70*%
%ADD110C,2.70*%
%ADD111C,1.95*%
%ADD112C,1.70*%
%ADD113R,1.95X2.40*%
%ADD114R,1.95X2.40*%
%ADD115C,3.20*%
%ADD116R,5.20X2.70*%
%ADD117R,2.70X5.20*%
%ADD118C,2.53*%
%ADD119C,2.20*%
%ADD120R,2.20X2.20*%
%ADD121O,2.20X2.70*%
%ADD122C,1.47*%
%ADD123R,1.12X1.12*%
%ADD124R,1.12X1.47*%
%ADD125O,0.81X3.25*%
%ADD126O,0.81X6.30*%
%ADD127O,4.01X1.00*%
%ADD128C,0.15*%
%ADD129C,0.17*%
D128*
X18368Y27002D02*
Y27103D01*
X18469D01*
Y27002D01*
X18368D01*
Y26756D02*
Y26858D01*
X18469D01*
Y26756D01*
X18368D01*
X28876Y27820D02*
X28825Y27921D01*
X28927D01*
X28876Y27820D01*
X33595D02*
X33545Y27921D01*
X33646D01*
X33595Y27820D01*
X34959Y20312D02*
X34985Y20337D01*
X35010D01*
X34985Y20363D01*
X35010Y20388D01*
X34985D01*
X34959Y20413D01*
X34934Y20388D01*
X34908D01*
X34934Y20363D01*
X34908Y20337D01*
X34934D01*
X34959Y20312D01*
Y20058D02*
X34985Y20083D01*
X35010D01*
X34985Y20109D01*
X35010Y20134D01*
X34985D01*
X34959Y20159D01*
X34934Y20134D01*
X34908D01*
X34934Y20109D01*
X34908Y20083D01*
X34934D01*
X34959Y20058D01*
Y20566D02*
X34985Y20591D01*
X35010D01*
X34985Y20617D01*
X35010Y20642D01*
X34985D01*
X34959Y20667D01*
X34934Y20642D01*
X34908D01*
X34934Y20617D01*
X34908Y20591D01*
X34934D01*
X34959Y20566D01*
X32109Y17876D02*
X32134Y17926D01*
X32109Y17977D01*
X32160Y17952D01*
X32210Y17977D01*
X32185Y17926D01*
X32210Y17876D01*
X32160Y17901D01*
X32109Y17876D01*
X32093Y17355D02*
X32119Y17406D01*
X32093Y17456D01*
X32144Y17431D01*
X32195Y17456D01*
X32170Y17406D01*
X32195Y17355D01*
X32144Y17380D01*
X32093Y17355D01*
X32104Y17624D02*
X32129Y17675D01*
X32104Y17726D01*
X32154Y17700D01*
X32205Y17726D01*
X32180Y17675D01*
X32205Y17624D01*
X32154Y17649D01*
X32104Y17624D01*
X32091Y18117D02*
X32116Y18168D01*
X32091Y18218D01*
X32142Y18193D01*
X32193Y18218D01*
X32167Y18168D01*
X32193Y18117D01*
X32142Y18142D01*
X32091Y18117D01*
X26836Y17876D02*
X26861Y17926D01*
X26836Y17977D01*
X26886Y17952D01*
X26937Y17977D01*
X26912Y17926D01*
X26937Y17876D01*
X26886Y17901D01*
X26836Y17876D01*
X26851Y17624D02*
X26876Y17675D01*
X26851Y17726D01*
X26902Y17700D01*
X26953Y17726D01*
X26927Y17675D01*
X26953Y17624D01*
X26902Y17649D01*
X26851Y17624D01*
X26859Y17355D02*
X26884Y17406D01*
X26859Y17456D01*
X26909Y17431D01*
X26960Y17456D01*
X26935Y17406D01*
X26960Y17355D01*
X26909Y17380D01*
X26859Y17355D01*
X15910Y18013D02*
Y18114D01*
X16012D01*
Y18013D01*
X15910D01*
X16164D02*
Y18114D01*
X16266D01*
Y18013D01*
X16164D01*
X16418D02*
Y18114D01*
X16520D01*
Y18013D01*
X16418D01*
X16672D02*
Y18114D01*
X16774D01*
Y18013D01*
X16672D01*
X16672Y18775D02*
Y18876D01*
X16774D01*
Y18775D01*
X16672D01*
X16418D02*
Y18876D01*
X16520D01*
Y18775D01*
X16418D01*
X16164D02*
Y18876D01*
X16266D01*
Y18775D01*
X16164D01*
X15910D02*
Y18876D01*
X16012D01*
Y18775D01*
X15910D01*
X17285Y18317D02*
Y18419D01*
X17387D01*
Y18317D01*
X17285D01*
Y18063D02*
Y18165D01*
X17387D01*
Y18063D01*
X17285D01*
X29383Y12343D02*
Y12445D01*
X29484D01*
Y12343D01*
X29383D01*
Y14375D02*
Y14477D01*
X29484D01*
Y14375D01*
X29383D01*
Y14121D02*
Y14223D01*
X29484D01*
Y14121D01*
X29383D01*
Y13867D02*
Y13969D01*
X29484D01*
Y13867D01*
X29383D01*
Y13613D02*
Y13715D01*
X29484D01*
Y13613D01*
X29383D01*
Y13359D02*
Y13461D01*
X29484D01*
Y13359D01*
X29383D01*
Y13105D02*
Y13207D01*
X29484D01*
Y13105D01*
X29383D01*
Y12851D02*
Y12953D01*
X29484D01*
Y12851D01*
X29383D01*
Y12597D02*
Y12699D01*
X29484D01*
Y12597D01*
X29383D01*
X28163Y12598D02*
Y12700D01*
X28264D01*
Y12598D01*
X28163D01*
Y12852D02*
Y12954D01*
X28264D01*
Y12852D01*
X28163D01*
Y13106D02*
Y13208D01*
X28264D01*
Y13106D01*
X28163D01*
Y13360D02*
Y13462D01*
X28264D01*
Y13360D01*
X28163D01*
Y13614D02*
Y13716D01*
X28264D01*
Y13614D01*
X28163D01*
Y13868D02*
Y13970D01*
X28264D01*
Y13868D01*
X28163D01*
Y14122D02*
Y14224D01*
X28264D01*
Y14122D01*
X28163D01*
Y14376D02*
Y14478D01*
X28264D01*
Y14376D01*
X28163D01*
X28925D02*
Y14478D01*
X29026D01*
Y14376D01*
X28925D01*
Y14122D02*
Y14224D01*
X29026D01*
Y14122D01*
X28925D01*
Y13868D02*
Y13970D01*
X29026D01*
Y13868D01*
X28925D01*
Y13614D02*
Y13716D01*
X29026D01*
Y13614D01*
X28925D01*
Y13360D02*
Y13462D01*
X29026D01*
Y13360D01*
X28925D01*
Y13106D02*
Y13208D01*
X29026D01*
Y13106D01*
X28925D01*
Y12852D02*
Y12954D01*
X29026D01*
Y12852D01*
X28925D01*
Y12598D02*
Y12700D01*
X29026D01*
Y12598D01*
X28925D01*
X25944Y12343D02*
Y12445D01*
X26045D01*
Y12343D01*
X25944D01*
Y14375D02*
Y14477D01*
X26045D01*
Y14375D01*
X25944D01*
Y14121D02*
Y14223D01*
X26045D01*
Y14121D01*
X25944D01*
Y13867D02*
Y13969D01*
X26045D01*
Y13867D01*
X25944D01*
Y13613D02*
Y13715D01*
X26045D01*
Y13613D01*
X25944D01*
Y13359D02*
Y13461D01*
X26045D01*
Y13359D01*
X25944D01*
Y13105D02*
Y13207D01*
X26045D01*
Y13105D01*
X25944D01*
Y12851D02*
Y12953D01*
X26045D01*
Y12851D01*
X25944D01*
Y12597D02*
Y12699D01*
X26045D01*
Y12597D01*
X25944D01*
X25481Y12578D02*
Y12679D01*
X25582D01*
Y12578D01*
X25481D01*
Y12832D02*
Y12933D01*
X25582D01*
Y12832D01*
X25481D01*
Y13086D02*
Y13187D01*
X25582D01*
Y13086D01*
X25481D01*
Y13340D02*
Y13441D01*
X25582D01*
Y13340D01*
X25481D01*
Y13594D02*
Y13695D01*
X25582D01*
Y13594D01*
X25481D01*
Y13848D02*
Y13949D01*
X25582D01*
Y13848D01*
X25481D01*
Y14102D02*
Y14203D01*
X25582D01*
Y14102D01*
X25481D01*
Y14356D02*
Y14457D01*
X25582D01*
Y14356D01*
X25481D01*
X24719D02*
Y14457D01*
X24820D01*
Y14356D01*
X24719D01*
Y14102D02*
Y14203D01*
X24820D01*
Y14102D01*
X24719D01*
Y13848D02*
Y13949D01*
X24820D01*
Y13848D01*
X24719D01*
Y13594D02*
Y13695D01*
X24820D01*
Y13594D01*
X24719D01*
Y13340D02*
Y13441D01*
X24820D01*
Y13340D01*
X24719D01*
Y13086D02*
Y13187D01*
X24820D01*
Y13086D01*
X24719D01*
Y12832D02*
Y12933D01*
X24820D01*
Y12832D01*
X24719D01*
Y12578D02*
Y12679D01*
X24820D01*
Y12578D01*
X24719D01*
X21290Y14375D02*
Y14477D01*
X21391D01*
Y14375D01*
X21290D01*
Y14121D02*
Y14223D01*
X21391D01*
Y14121D01*
X21290D01*
Y13867D02*
Y13969D01*
X21391D01*
Y13867D01*
X21290D01*
Y13613D02*
Y13715D01*
X21391D01*
Y13613D01*
X21290D01*
Y13359D02*
Y13461D01*
X21391D01*
Y13359D01*
X21290D01*
Y13105D02*
Y13207D01*
X21391D01*
Y13105D01*
X21290D01*
Y12851D02*
Y12953D01*
X21391D01*
Y12851D01*
X21290D01*
Y12597D02*
Y12699D01*
X21391D01*
Y12597D01*
X21290D01*
X22052D02*
Y12699D01*
X22153D01*
Y12597D01*
X22052D01*
Y12851D02*
Y12953D01*
X22153D01*
Y12851D01*
X22052D01*
Y13105D02*
Y13207D01*
X22153D01*
Y13105D01*
X22052D01*
Y13359D02*
Y13461D01*
X22153D01*
Y13359D01*
X22052D01*
Y13613D02*
Y13715D01*
X22153D01*
Y13613D01*
X22052D01*
Y13867D02*
Y13969D01*
X22153D01*
Y13867D01*
X22052D01*
Y14121D02*
Y14223D01*
X22153D01*
Y14121D01*
X22052D01*
Y14375D02*
Y14477D01*
X22153D01*
Y14375D01*
X22052D01*
X18615Y14370D02*
Y14471D01*
X18717D01*
Y14370D01*
X18615D01*
Y14116D02*
Y14217D01*
X18717D01*
Y14116D01*
X18615D01*
Y13862D02*
Y13963D01*
X18717D01*
Y13862D01*
X18615D01*
Y13608D02*
Y13709D01*
X18717D01*
Y13608D01*
X18615D01*
Y13354D02*
Y13455D01*
X18717D01*
Y13354D01*
X18615D01*
Y13100D02*
Y13201D01*
X18717D01*
Y13100D01*
X18615D01*
Y12846D02*
Y12947D01*
X18717D01*
Y12846D01*
X18615D01*
Y12592D02*
Y12693D01*
X18717D01*
Y12592D01*
X18615D01*
X17853Y12592D02*
Y12693D01*
X17955D01*
Y12592D01*
X17853D01*
X17853Y12846D02*
Y12947D01*
X17955D01*
Y12846D01*
X17853D01*
Y13100D02*
Y13201D01*
X17955D01*
Y13100D01*
X17853D01*
Y13354D02*
Y13455D01*
X17955D01*
Y13354D01*
X17853D01*
Y13608D02*
Y13709D01*
X17955D01*
Y13608D01*
X17853D01*
Y13862D02*
Y13963D01*
X17955D01*
Y13862D01*
X17853D01*
Y14116D02*
Y14217D01*
X17955D01*
Y14116D01*
X17853D01*
Y14370D02*
Y14471D01*
X17955D01*
Y14370D01*
X17853D01*
X27551Y16227D02*
X27500Y16329D01*
X27602D01*
X27551Y16227D01*
Y19224D02*
X27500Y19326D01*
X27602D01*
X27551Y19224D01*
X35044D02*
X34993Y19326D01*
X35095D01*
X35044Y19224D01*
X35019Y16253D02*
Y16227D01*
X35069D01*
Y16253D01*
X35095D01*
Y16303D01*
X35069D01*
Y16329D01*
X35019D01*
Y16303D01*
X34993D01*
Y16253D01*
X35019D01*
X31616Y19762D02*
Y19864D01*
X31718D01*
Y19762D01*
X31616D01*
X29584D02*
Y19864D01*
X29686D01*
Y19762D01*
X29584D01*
X29838D02*
Y19864D01*
X29940D01*
Y19762D01*
X29838D01*
X30092D02*
Y19864D01*
X30194D01*
Y19762D01*
X30092D01*
X30346D02*
Y19864D01*
X30448D01*
Y19762D01*
X30346D01*
X30600D02*
Y19864D01*
X30702D01*
Y19762D01*
X30600D01*
X30854D02*
Y19864D01*
X30956D01*
Y19762D01*
X30854D01*
X31108D02*
Y19864D01*
X31210D01*
Y19762D01*
X31108D01*
X31362D02*
Y19864D01*
X31464D01*
Y19762D01*
X31362D01*
X19066Y12597D02*
Y12699D01*
X19168D01*
Y12597D01*
X19066D01*
Y12851D02*
Y12953D01*
X19168D01*
Y12851D01*
X19066D01*
Y13105D02*
Y13207D01*
X19168D01*
Y13105D01*
X19066D01*
Y13359D02*
Y13461D01*
X19168D01*
Y13359D01*
X19066D01*
Y13613D02*
Y13715D01*
X19168D01*
Y13613D01*
X19066D01*
Y13867D02*
Y13969D01*
X19168D01*
Y13867D01*
X19066D01*
Y14121D02*
Y14223D01*
X19168D01*
Y14121D01*
X19066D01*
Y14375D02*
Y14477D01*
X19168D01*
Y14375D01*
X19066D01*
X22505Y12597D02*
Y12699D01*
X22607D01*
Y12597D01*
X22505D01*
Y12851D02*
Y12953D01*
X22607D01*
Y12851D01*
X22505D01*
Y13105D02*
Y13207D01*
X22607D01*
Y13105D01*
X22505D01*
Y13359D02*
Y13461D01*
X22607D01*
Y13359D01*
X22505D01*
Y13613D02*
Y13715D01*
X22607D01*
Y13613D01*
X22505D01*
Y13867D02*
Y13969D01*
X22607D01*
Y13867D01*
X22505D01*
Y14121D02*
Y14223D01*
X22607D01*
Y14121D01*
X22505D01*
Y14375D02*
Y14477D01*
X22607D01*
Y14375D01*
X22505D01*
X19066Y12343D02*
Y12445D01*
X19168D01*
Y12343D01*
X19066D01*
X22505D02*
Y12445D01*
X22607D01*
Y12343D01*
X22505D01*
X15835Y12272D02*
X15784Y12374D01*
X15885D01*
X15835Y12272D01*
X34835D02*
X34784Y12374D01*
X34885D01*
X34835Y12272D01*
X34827Y28273D02*
X34776Y28375D01*
X34878D01*
X34827Y28273D01*
X15832Y28276D02*
X15781Y28378D01*
X15883D01*
X15832Y28276D01*
X28271Y25019D02*
Y25121D01*
X28373D01*
Y25019D01*
X28271D01*
X28017D02*
Y25121D01*
X28119D01*
Y25019D01*
X28017D01*
X17106Y24370D02*
Y24472D01*
X17207D01*
Y24370D01*
X17106D01*
X16852Y24370D02*
Y24472D01*
X16953D01*
Y24370D01*
X16852D01*
X17816Y21972D02*
Y22073D01*
X17918D01*
Y21972D01*
X17816D01*
X17562D02*
Y22073D01*
X17664D01*
Y21972D01*
X17562D01*
X17816Y24349D02*
Y24450D01*
X17918D01*
Y24349D01*
X17816D01*
X17562D02*
Y24450D01*
X17664D01*
Y24349D01*
X17562D01*
X16285Y26654D02*
X16234Y26756D01*
X16336D01*
X16285Y26654D01*
Y24150D02*
X16234Y24252D01*
X16336D01*
X16285Y24150D01*
X16277Y22968D02*
X16226Y23070D01*
X16328D01*
X16277Y22968D01*
Y20463D02*
X16226Y20565D01*
X16328D01*
X16277Y20463D01*
X23602Y19869D02*
X23628Y19920D01*
X23602Y19971D01*
X23653Y19946D01*
X23704Y19971D01*
X23678Y19920D01*
X23704Y19869D01*
X23653Y19895D01*
X23602Y19869D01*
X16852Y21983D02*
Y22085D01*
X16953D01*
Y21983D01*
X16852D01*
X17106D02*
Y22085D01*
X17207D01*
Y21983D01*
X17106D01*
X21838Y26585D02*
X21863D01*
X21888Y26611D01*
X21914Y26585D01*
X21939D01*
Y26611D01*
X21914Y26636D01*
X21939Y26661D01*
Y26687D01*
X21914D01*
X21888Y26661D01*
X21863Y26687D01*
X21838D01*
Y26661D01*
X21863Y26636D01*
X21838Y26611D01*
Y26585D01*
X21330D02*
X21355D01*
X21380Y26611D01*
X21406Y26585D01*
X21431D01*
Y26611D01*
X21406Y26636D01*
X21431Y26661D01*
Y26687D01*
X21406D01*
X21380Y26661D01*
X21355Y26687D01*
X21330D01*
Y26661D01*
X21355Y26636D01*
X21330Y26611D01*
Y26585D01*
X21584D02*
X21609D01*
X21634Y26611D01*
X21660Y26585D01*
X21685D01*
Y26611D01*
X21660Y26636D01*
X21685Y26661D01*
Y26687D01*
X21660D01*
X21634Y26661D01*
X21609Y26687D01*
X21584D01*
Y26661D01*
X21609Y26636D01*
X21584Y26611D01*
Y26585D01*
X21634Y28363D02*
X21584Y28465D01*
X21685D01*
X21634Y28363D01*
X24496Y26587D02*
X24522D01*
X24547Y26612D01*
X24572Y26587D01*
X24598D01*
Y26612D01*
X24572Y26638D01*
X24598Y26663D01*
Y26689D01*
X24572D01*
X24547Y26663D01*
X24522Y26689D01*
X24496D01*
Y26663D01*
X24522Y26638D01*
X24496Y26612D01*
Y26587D01*
X24242D02*
X24268D01*
X24293Y26612D01*
X24318Y26587D01*
X24344D01*
Y26612D01*
X24318Y26638D01*
X24344Y26663D01*
Y26689D01*
X24318D01*
X24293Y26663D01*
X24268Y26689D01*
X24242D01*
Y26663D01*
X24268Y26638D01*
X24242Y26612D01*
Y26587D01*
X23988D02*
X24014D01*
X24039Y26612D01*
X24064Y26587D01*
X24090D01*
Y26612D01*
X24064Y26638D01*
X24090Y26663D01*
Y26689D01*
X24064D01*
X24039Y26663D01*
X24014Y26689D01*
X23988D01*
Y26663D01*
X24014Y26638D01*
X23988Y26612D01*
Y26587D01*
X24293Y28365D02*
X24242Y28467D01*
X24344D01*
X24293Y28365D01*
X27148Y26557D02*
X27174D01*
X27199Y26583D01*
X27224Y26557D01*
X27250D01*
Y26583D01*
X27224Y26608D01*
X27250Y26633D01*
Y26659D01*
X27224D01*
X27199Y26633D01*
X27174Y26659D01*
X27148D01*
Y26633D01*
X27174Y26608D01*
X27148Y26583D01*
Y26557D01*
X26894Y26557D02*
X26920D01*
X26945Y26583D01*
X26970Y26557D01*
X26996D01*
Y26583D01*
X26970Y26608D01*
X26996Y26633D01*
Y26659D01*
X26970D01*
X26945Y26633D01*
X26920Y26659D01*
X26894D01*
Y26633D01*
X26920Y26608D01*
X26894Y26583D01*
Y26557D01*
X26640D02*
X26666D01*
X26691Y26583D01*
X26716Y26557D01*
X26742D01*
Y26583D01*
X26716Y26608D01*
X26742Y26633D01*
Y26659D01*
X26716D01*
X26691Y26633D01*
X26666Y26659D01*
X26640D01*
Y26633D01*
X26666Y26608D01*
X26640Y26583D01*
Y26557D01*
X26945Y28335D02*
X26894Y28437D01*
X26996D01*
X26945Y28335D01*
X19429Y27415D02*
X19480Y27466D01*
X19531Y27415D01*
X19480Y27365D01*
X19429Y27415D01*
X19592Y27415D02*
X19642Y27466D01*
X19693Y27415D01*
X19642Y27365D01*
X19592Y27415D01*
X19500Y27420D02*
X19551Y27471D01*
X19602Y27420D01*
X19551Y27370D01*
X19500Y27420D01*
X19429Y28015D02*
X19480Y28066D01*
X19531Y28015D01*
X19480Y27965D01*
X19429Y28015D01*
X19604Y28015D02*
X19655Y28066D01*
X19706Y28015D01*
X19655Y27964D01*
X19604Y28015D01*
X18929Y27766D02*
X18979Y27817D01*
X19030Y27766D01*
X18979Y27715D01*
X18929Y27766D01*
Y27665D02*
X18979Y27715D01*
X19030Y27665D01*
X18979Y27614D01*
X18929Y27665D01*
X18929Y27715D02*
X18979Y27766D01*
X19030Y27715D01*
X18979Y27665D01*
X18929Y27715D01*
X19505Y28015D02*
X19556Y28066D01*
X19607Y28015D01*
X19556Y27964D01*
X19505Y28015D01*
X28251Y19766D02*
Y19868D01*
X28353D01*
Y19766D01*
X28251D01*
X28505D02*
Y19868D01*
X28607D01*
Y19766D01*
X28505D01*
X28759D02*
Y19868D01*
X28861D01*
Y19766D01*
X28759D01*
X29013D02*
Y19868D01*
X29115D01*
Y19766D01*
X29013D01*
X29267D02*
Y19868D01*
X29369D01*
Y19766D01*
X29267D01*
X17988Y28214D02*
X18038Y28264D01*
X18089Y28214D01*
X18038Y28163D01*
X17988Y28214D01*
X16688D02*
X16738Y28264D01*
X16789Y28214D01*
X16738Y28163D01*
X16688Y28214D01*
X17038Y28163D02*
X17063D01*
X17088Y28188D01*
X17114Y28163D01*
X17139D01*
Y28188D01*
X17114Y28214D01*
X17139Y28239D01*
Y28264D01*
X17114D01*
X17088Y28239D01*
X17063Y28264D01*
X17038D01*
Y28239D01*
X17063Y28214D01*
X17038Y28188D01*
Y28163D01*
X17338D02*
X17363D01*
X17388Y28188D01*
X17414Y28163D01*
X17439D01*
Y28188D01*
X17414Y28214D01*
X17439Y28239D01*
Y28264D01*
X17414D01*
X17388Y28239D01*
X17363Y28264D01*
X17338D01*
Y28239D01*
X17363Y28214D01*
X17338Y28188D01*
Y28163D01*
X17638D02*
X17663D01*
X17688Y28188D01*
X17714Y28163D01*
X17739D01*
Y28188D01*
X17714Y28214D01*
X17739Y28239D01*
Y28264D01*
X17714D01*
X17688Y28239D01*
X17663Y28264D01*
X17638D01*
Y28239D01*
X17663Y28214D01*
X17638Y28188D01*
Y28163D01*
X16688Y28278D02*
X16738Y28329D01*
X16789Y28278D01*
X16738Y28227D01*
X16688Y28278D01*
Y28125D02*
X16738Y28176D01*
X16789Y28125D01*
X16738Y28074D01*
X16688Y28125D01*
X17985Y28214D02*
X18036Y28264D01*
X18087Y28214D01*
X18036Y28163D01*
X17985Y28214D01*
Y28278D02*
X18036Y28329D01*
X18087Y28278D01*
X18036Y28227D01*
X17985Y28278D01*
Y28125D02*
X18036Y28176D01*
X18087Y28125D01*
X18036Y28074D01*
X17985Y28125D01*
X17570Y20032D02*
Y20134D01*
X17671D01*
Y20032D01*
X17570D01*
X17590Y20052D02*
Y20113D01*
X17651D01*
Y20052D01*
X17590D01*
X17572Y18892D02*
Y18993D01*
X17674D01*
Y18892D01*
X17572D01*
X17593Y18912D02*
Y18973D01*
X17654D01*
Y18912D01*
X17593D01*
X24367Y25907D02*
Y26009D01*
X24468D01*
Y25907D01*
X24367D01*
X24387Y25927D02*
Y25988D01*
X24448D01*
Y25927D01*
X24387D01*
X28860Y21579D02*
Y21680D01*
X28962D01*
Y21579D01*
X28860D01*
X28880Y21599D02*
Y21660D01*
X28941D01*
Y21599D01*
X28880D01*
X28713Y21424D02*
Y21526D01*
X28814D01*
Y21424D01*
X28713D01*
X28733Y21444D02*
Y21505D01*
X28794D01*
Y21444D01*
X28733D01*
X20646Y25117D02*
Y25219D01*
X20747D01*
Y25117D01*
X20646D01*
X20666Y25137D02*
Y25198D01*
X20727D01*
Y25137D01*
X20666D01*
X28311Y22846D02*
Y22948D01*
X28413D01*
Y22846D01*
X28311D01*
X28332Y22867D02*
Y22928D01*
X28393D01*
Y22867D01*
X28332D01*
X28311Y22201D02*
Y22303D01*
X28413D01*
Y22201D01*
X28311D01*
X28332Y22221D02*
Y22282D01*
X28393D01*
Y22221D01*
X28332D01*
X28291Y23542D02*
Y23644D01*
X28393D01*
Y23542D01*
X28291D01*
X28311Y23563D02*
Y23624D01*
X28372D01*
Y23563D01*
X28311D01*
X22205Y20865D02*
Y20967D01*
X22307D01*
Y20865D01*
X22205D01*
X22226Y20885D02*
Y20946D01*
X22287D01*
Y20885D01*
X22226D01*
X21926Y20662D02*
Y20764D01*
X22027D01*
Y20662D01*
X21926D01*
X21946Y20682D02*
Y20743D01*
X22007D01*
Y20682D01*
X21946D01*
X22563Y20256D02*
Y20357D01*
X22665D01*
Y20256D01*
X22563D01*
X22584Y20276D02*
Y20337D01*
X22645D01*
Y20276D01*
X22584D01*
X33452Y17352D02*
Y17454D01*
X33554D01*
Y17352D01*
X33452D01*
X33473Y17373D02*
Y17434D01*
X33534D01*
Y17373D01*
X33473D01*
X33793Y24601D02*
Y24703D01*
X33894D01*
Y24601D01*
X33793D01*
X33813Y24622D02*
Y24683D01*
X33874D01*
Y24622D01*
X33813D01*
X33800Y18117D02*
Y18218D01*
X33902D01*
Y18117D01*
X33800D01*
X33821Y18137D02*
Y18198D01*
X33882D01*
Y18137D01*
X33821D01*
X33978Y17873D02*
Y17975D01*
X34080D01*
Y17873D01*
X33978D01*
X33998Y17893D02*
Y17954D01*
X34059D01*
Y17893D01*
X33998D01*
X33625Y17624D02*
Y17726D01*
X33727D01*
Y17624D01*
X33625D01*
X33645Y17644D02*
Y17705D01*
X33706D01*
Y17644D01*
X33645D01*
X33973Y25960D02*
Y26062D01*
X34075D01*
Y25960D01*
X33973D01*
X33993Y25981D02*
Y26042D01*
X34054D01*
Y25981D01*
X33993D01*
X26000Y16758D02*
Y16860D01*
X26102D01*
Y16758D01*
X26000D01*
X26020Y16778D02*
Y16839D01*
X26081D01*
Y16778D01*
X26020D01*
X17687Y16931D02*
Y17032D01*
X17788D01*
Y16931D01*
X17687D01*
X17707Y16951D02*
Y17012D01*
X17768D01*
Y16951D01*
X17707D01*
X17689Y17299D02*
Y17401D01*
X17791D01*
Y17299D01*
X17689D01*
X17709Y17319D02*
Y17380D01*
X17770D01*
Y17319D01*
X17709D01*
X30211Y26860D02*
Y26961D01*
X30313D01*
Y26860D01*
X30211D01*
X30232Y26880D02*
Y26941D01*
X30293D01*
Y26880D01*
X30232D01*
X31316Y26867D02*
Y26969D01*
X31418D01*
Y26867D01*
X31316D01*
X31337Y26887D02*
Y26948D01*
X31398D01*
Y26887D01*
X31337D01*
X30851Y27403D02*
Y27505D01*
X30953D01*
Y27403D01*
X30851D01*
X30872Y27423D02*
Y27484D01*
X30933D01*
Y27423D01*
X30872D01*
X30303Y27256D02*
Y27357D01*
X30404D01*
Y27256D01*
X30303D01*
X30323Y27276D02*
Y27337D01*
X30384D01*
Y27276D01*
X30323D01*
X31329Y27266D02*
Y27368D01*
X31431D01*
Y27266D01*
X31329D01*
X31349Y27286D02*
Y27347D01*
X31410D01*
Y27286D01*
X31349D01*
X31309Y25041D02*
Y25142D01*
X31410D01*
Y25041D01*
X31309D01*
X31329Y25061D02*
Y25122D01*
X31390D01*
Y25061D01*
X31329D01*
X31093Y25224D02*
Y25325D01*
X31194D01*
Y25224D01*
X31093D01*
X31113Y25244D02*
Y25305D01*
X31174D01*
Y25244D01*
X31113D01*
X29640Y26125D02*
Y26227D01*
X29741D01*
Y26125D01*
X29640D01*
X29660Y26146D02*
Y26207D01*
X29721D01*
Y26146D01*
X29660D01*
X29526Y25532D02*
Y25634D01*
X29628D01*
Y25532D01*
X29526D01*
X29547Y25552D02*
Y25613D01*
X29608D01*
Y25552D01*
X29547D01*
X27469Y12231D02*
Y12332D01*
X27571D01*
Y12231D01*
X27469D01*
X27489Y12251D02*
Y12312D01*
X27550D01*
Y12251D01*
X27489D01*
X27469Y12642D02*
Y12744D01*
X27571D01*
Y12642D01*
X27469D01*
X27489Y12663D02*
Y12724D01*
X27550D01*
Y12663D01*
X27489D01*
X27469Y13056D02*
Y13158D01*
X27571D01*
Y13056D01*
X27469D01*
X27489Y13077D02*
Y13138D01*
X27550D01*
Y13077D01*
X27489D01*
X27469Y13468D02*
Y13569D01*
X27571D01*
Y13468D01*
X27469D01*
X27489Y13488D02*
Y13549D01*
X27550D01*
Y13488D01*
X27489D01*
X27469Y13877D02*
Y13978D01*
X27571D01*
Y13877D01*
X27469D01*
X27489Y13897D02*
Y13958D01*
X27550D01*
Y13897D01*
X27489D01*
X27469Y14291D02*
Y14392D01*
X27571D01*
Y14291D01*
X27469D01*
X27489Y14311D02*
Y14372D01*
X27550D01*
Y14311D01*
X27489D01*
X27469Y14700D02*
Y14801D01*
X27571D01*
Y14700D01*
X27469D01*
X27489Y14720D02*
Y14781D01*
X27550D01*
Y14720D01*
X27489D01*
X27464Y15101D02*
Y15203D01*
X27566D01*
Y15101D01*
X27464D01*
X27484Y15121D02*
Y15182D01*
X27545D01*
Y15121D01*
X27484D01*
X24034Y12220D02*
Y12322D01*
X24135D01*
Y12220D01*
X24034D01*
X24054Y12240D02*
Y12301D01*
X24115D01*
Y12240D01*
X24054D01*
X24034Y12637D02*
Y12738D01*
X24135D01*
Y12637D01*
X24034D01*
X24054Y12657D02*
Y12718D01*
X24115D01*
Y12657D01*
X24054D01*
X24034Y13046D02*
Y13147D01*
X24135D01*
Y13046D01*
X24034D01*
X24054Y13066D02*
Y13127D01*
X24115D01*
Y13066D01*
X24054D01*
X24034Y13869D02*
Y13970D01*
X24135D01*
Y13869D01*
X24034D01*
X24054Y13889D02*
Y13950D01*
X24115D01*
Y13889D01*
X24054D01*
X24034Y13457D02*
Y13559D01*
X24135D01*
Y13457D01*
X24034D01*
X24054Y13477D02*
Y13538D01*
X24115D01*
Y13477D01*
X24054D01*
X24034Y14275D02*
Y14377D01*
X24135D01*
Y14275D01*
X24034D01*
X24054Y14295D02*
Y14356D01*
X24115D01*
Y14295D01*
X24054D01*
X24034Y14686D02*
Y14788D01*
X24135D01*
Y14686D01*
X24034D01*
X24054Y14707D02*
Y14768D01*
X24115D01*
Y14707D01*
X24054D01*
X24028Y15098D02*
Y15199D01*
X24130D01*
Y15098D01*
X24028D01*
X24049Y15118D02*
Y15179D01*
X24110D01*
Y15118D01*
X24049D01*
X20588Y12233D02*
Y12334D01*
X20689D01*
Y12233D01*
X20588D01*
X20608Y12253D02*
Y12314D01*
X20669D01*
Y12253D01*
X20608D01*
X20588Y12642D02*
Y12743D01*
X20689D01*
Y12642D01*
X20588D01*
X20608Y12662D02*
Y12723D01*
X20669D01*
Y12662D01*
X20608D01*
X20588Y13056D02*
Y13157D01*
X20689D01*
Y13056D01*
X20588D01*
X20608Y13076D02*
Y13137D01*
X20669D01*
Y13076D01*
X20608D01*
X20588Y13467D02*
Y13569D01*
X20689D01*
Y13467D01*
X20588D01*
X20608Y13487D02*
Y13548D01*
X20669D01*
Y13487D01*
X20608D01*
X20588Y13873D02*
Y13975D01*
X20689D01*
Y13873D01*
X20588D01*
X20608Y13894D02*
Y13955D01*
X20669D01*
Y13894D01*
X20608D01*
X20588Y14287D02*
Y14389D01*
X20689D01*
Y14287D01*
X20588D01*
X20608Y14308D02*
Y14369D01*
X20669D01*
Y14308D01*
X20608D01*
X20588Y14694D02*
Y14795D01*
X20689D01*
Y14694D01*
X20588D01*
X20608Y14714D02*
Y14775D01*
X20669D01*
Y14714D01*
X20608D01*
X20577Y15103D02*
Y15204D01*
X20679D01*
Y15103D01*
X20577D01*
X20598Y15123D02*
Y15184D01*
X20659D01*
Y15123D01*
X20598D01*
X17171Y12219D02*
Y12320D01*
X17273D01*
Y12219D01*
X17171D01*
X17192Y12239D02*
Y12300D01*
X17253D01*
Y12239D01*
X17192D01*
X17171Y12625D02*
Y12727D01*
X17273D01*
Y12625D01*
X17171D01*
X17192Y12645D02*
Y12706D01*
X17253D01*
Y12645D01*
X17192D01*
X17171Y13036D02*
Y13138D01*
X17273D01*
Y13036D01*
X17171D01*
X17192Y13057D02*
Y13118D01*
X17253D01*
Y13057D01*
X17192D01*
X17171Y13453D02*
Y13555D01*
X17273D01*
Y13453D01*
X17171D01*
X17192Y13473D02*
Y13534D01*
X17253D01*
Y13473D01*
X17192D01*
X17171Y13854D02*
Y13956D01*
X17273D01*
Y13854D01*
X17171D01*
X17192Y13875D02*
Y13936D01*
X17253D01*
Y13875D01*
X17192D01*
X17171Y14268D02*
Y14370D01*
X17273D01*
Y14268D01*
X17171D01*
X17192Y14289D02*
Y14350D01*
X17253D01*
Y14289D01*
X17192D01*
X17171Y14690D02*
Y14792D01*
X17273D01*
Y14690D01*
X17171D01*
X17192Y14710D02*
Y14771D01*
X17253D01*
Y14710D01*
X17192D01*
X17171Y15096D02*
Y15198D01*
X17273D01*
Y15096D01*
X17171D01*
X17192Y15117D02*
Y15178D01*
X17253D01*
Y15117D01*
X17192D01*
X17062Y23359D02*
Y23461D01*
X17163D01*
Y23359D01*
X17062D01*
X17082Y23380D02*
Y23441D01*
X17143D01*
Y23380D01*
X17082D01*
X17237Y23265D02*
Y23367D01*
X17339D01*
Y23265D01*
X17237D01*
X17257Y23286D02*
Y23347D01*
X17318D01*
Y23286D01*
X17257D01*
X19233Y26837D02*
Y26938D01*
X19335D01*
Y26837D01*
X19233D01*
X19254Y26857D02*
Y26918D01*
X19315D01*
Y26857D01*
X19254D01*
X16729Y22905D02*
Y23007D01*
X16831D01*
Y22905D01*
X16729D01*
X16750Y22925D02*
Y22986D01*
X16811D01*
Y22925D01*
X16750D01*
X21273Y21058D02*
Y21160D01*
X21375D01*
Y21058D01*
X21273D01*
X21293Y21078D02*
Y21139D01*
X21354D01*
Y21078D01*
X21293D01*
X21918Y21663D02*
Y21764D01*
X22020D01*
Y21663D01*
X21918D01*
X21939Y21683D02*
Y21744D01*
X22000D01*
Y21683D01*
X21939D01*
X23346Y21119D02*
Y21221D01*
X23447D01*
Y21119D01*
X23346D01*
X23366Y21139D02*
Y21200D01*
X23427D01*
Y21139D01*
X23366D01*
X21959Y19577D02*
Y19679D01*
X22060D01*
Y19577D01*
X21959D01*
X21979Y19598D02*
Y19659D01*
X22040D01*
Y19598D01*
X21979D01*
X22464Y19402D02*
Y19504D01*
X22566D01*
Y19402D01*
X22464D01*
X22485Y19422D02*
Y19483D01*
X22546D01*
Y19422D01*
X22485D01*
X23262Y19399D02*
Y19501D01*
X23364D01*
Y19399D01*
X23262D01*
X23283Y19419D02*
Y19480D01*
X23344D01*
Y19419D01*
X23283D01*
X23600Y20619D02*
Y20720D01*
X23701D01*
Y20619D01*
X23600D01*
X23620Y20639D02*
Y20700D01*
X23681D01*
Y20639D01*
X23620D01*
X23536Y21244D02*
Y21345D01*
X23638D01*
Y21244D01*
X23536D01*
X23557Y21264D02*
Y21325D01*
X23618D01*
Y21264D01*
X23557D01*
X22563Y21932D02*
Y22034D01*
X22665D01*
Y21932D01*
X22563D01*
X22584Y21952D02*
Y22013D01*
X22645D01*
Y21952D01*
X22584D01*
X21720Y21907D02*
Y22008D01*
X21822D01*
Y21907D01*
X21720D01*
X21740Y21927D02*
Y21988D01*
X21801D01*
Y21927D01*
X21740D01*
X21319D02*
Y22028D01*
X21420D01*
Y21927D01*
X21319D01*
X21339Y21947D02*
Y22008D01*
X21400D01*
Y21947D01*
X21339D01*
X23089Y21932D02*
Y22034D01*
X23191D01*
Y21932D01*
X23089D01*
X23110Y21952D02*
Y22013D01*
X23170D01*
Y21952D01*
X23110D01*
X21113Y20482D02*
Y20583D01*
X21215D01*
Y20482D01*
X21113D01*
X21133Y20502D02*
Y20563D01*
X21194D01*
Y20502D01*
X21133D01*
X21258Y21467D02*
Y21569D01*
X21359D01*
Y21467D01*
X21258D01*
X21278Y21487D02*
Y21548D01*
X21339D01*
Y21487D01*
X21278D01*
X23600Y20419D02*
Y20520D01*
X23702D01*
Y20419D01*
X23600D01*
X23621Y20439D02*
Y20500D01*
X23682D01*
Y20439D01*
X23621D01*
X23551Y21518D02*
Y21619D01*
X23653D01*
Y21518D01*
X23551D01*
X23572Y21538D02*
Y21599D01*
X23633D01*
Y21538D01*
X23572D01*
X22795Y21934D02*
Y22036D01*
X22896D01*
Y21934D01*
X22795D01*
X22815Y21955D02*
Y22016D01*
X22876D01*
Y21955D01*
X22815D01*
X21941Y21919D02*
Y22021D01*
X22043D01*
Y21919D01*
X21941D01*
X21961Y21940D02*
Y22000D01*
X22022D01*
Y21940D01*
X21961D01*
X21078Y21299D02*
Y21401D01*
X21179D01*
Y21299D01*
X21078D01*
X21098Y21320D02*
Y21381D01*
X21159D01*
Y21320D01*
X21098D01*
X21044Y20619D02*
Y20720D01*
X21146D01*
Y20619D01*
X21044D01*
X21065Y20639D02*
Y20700D01*
X21126D01*
Y20639D01*
X21065D01*
X21809Y19389D02*
Y19491D01*
X21911D01*
Y19389D01*
X21809D01*
X21829Y19410D02*
Y19471D01*
X21890D01*
Y19410D01*
X21829D01*
X29117Y26534D02*
Y26636D01*
X29219D01*
Y26534D01*
X29117D01*
X29137Y26555D02*
Y26616D01*
X29198D01*
Y26555D01*
X29137D01*
X22698Y19402D02*
Y19504D01*
X22800D01*
Y19402D01*
X22698D01*
X22718Y19422D02*
Y19483D01*
X22779D01*
Y19422D01*
X22718D01*
X28649Y24955D02*
Y25056D01*
X28751D01*
Y24955D01*
X28649D01*
X28670Y24975D02*
Y25036D01*
X28731D01*
Y24975D01*
X28670D01*
X31048Y26703D02*
Y26804D01*
X31149D01*
Y26703D01*
X31048D01*
X31068Y26723D02*
Y26784D01*
X31129D01*
Y26723D01*
X31068D01*
X30580Y25526D02*
Y25628D01*
X30681D01*
Y25526D01*
X30580D01*
X30600Y25546D02*
Y25607D01*
X30661D01*
Y25546D01*
X30600D01*
X15550Y15379D02*
Y15480D01*
X15652D01*
Y15379D01*
X15550D01*
X15571Y15399D02*
Y15460D01*
X15632D01*
Y15399D01*
X15571D01*
X21029Y20220D02*
Y20322D01*
X21131D01*
Y20220D01*
X21029D01*
X21050Y20240D02*
Y20301D01*
X21111D01*
Y20240D01*
X21050D01*
X17951Y25155D02*
Y25257D01*
X18052D01*
Y25155D01*
X17951D01*
X17971Y25175D02*
Y25236D01*
X18032D01*
Y25175D01*
X17971D01*
X28291Y24284D02*
Y24386D01*
X28393D01*
Y24284D01*
X28291D01*
X28311Y24304D02*
Y24365D01*
X28372D01*
Y24304D01*
X28311D01*
X33996Y22724D02*
Y22826D01*
X34098D01*
Y22724D01*
X33996D01*
X34016Y22745D02*
Y22806D01*
X34077D01*
Y22745D01*
X34016D01*
X28339Y26064D02*
Y26166D01*
X28441D01*
Y26064D01*
X28339D01*
X28360Y26085D02*
Y26146D01*
X28421D01*
Y26085D01*
X28360D01*
X28822Y26026D02*
Y26128D01*
X28924D01*
Y26026D01*
X28822D01*
X28842Y26047D02*
Y26108D01*
X28903D01*
Y26047D01*
X28842D01*
X19290Y25362D02*
Y25463D01*
X19392D01*
Y25362D01*
X19290D01*
X19310Y25382D02*
Y25443D01*
X19371D01*
Y25382D01*
X19310D01*
X16439Y19875D02*
Y19976D01*
X16541D01*
Y19875D01*
X16439D01*
X16460Y19895D02*
Y19956D01*
X16521D01*
Y19895D01*
X16460D01*
X17560Y19204D02*
Y19306D01*
X17661D01*
Y19204D01*
X17560D01*
X17580Y19224D02*
Y19285D01*
X17641D01*
Y19224D01*
X17580D01*
X16838Y21091D02*
Y21192D01*
X16940D01*
Y21091D01*
X16838D01*
X16858Y21111D02*
Y21172D01*
X16919D01*
Y21111D01*
X16858D01*
X17313Y21091D02*
Y21192D01*
X17414D01*
Y21091D01*
X17313D01*
X17333Y21111D02*
Y21172D01*
X17394D01*
Y21111D01*
X17333D01*
D129*
X18644Y28497D02*
X18638Y28521D01*
X18622Y28539D01*
X18599Y28548D01*
X18575Y28545D01*
X18555Y28531D01*
X18544Y28510D01*
Y28485D01*
X18555Y28464D01*
X18575Y28450D01*
X18599Y28447D01*
X18622Y28456D01*
X18638Y28474D01*
X18644Y28497D01*
Y27481D02*
X18638Y27505D01*
X18622Y27523D01*
X18599Y27532D01*
X18575Y27529D01*
X18555Y27515D01*
X18544Y27494D01*
Y27469D01*
X18555Y27448D01*
X18575Y27434D01*
X18599Y27431D01*
X18622Y27440D01*
X18638Y27458D01*
X18644Y27481D01*
X29763Y27998D02*
X29757Y28021D01*
X29741Y28039D01*
X29718Y28048D01*
X29694Y28045D01*
X29674Y28031D01*
X29662Y28010D01*
Y27985D01*
X29674Y27964D01*
X29694Y27950D01*
X29718Y27947D01*
X29741Y27956D01*
X29757Y27974D01*
X29763Y27998D01*
X30039D02*
X30034Y28021D01*
X30018Y28039D01*
X29995Y28048D01*
X29971Y28045D01*
X29951Y28031D01*
X29939Y28010D01*
Y27985D01*
X29951Y27964D01*
X29971Y27950D01*
X29995Y27947D01*
X30018Y27956D01*
X30034Y27974D01*
X30039Y27998D01*
X30316D02*
X30311Y28021D01*
X30294Y28039D01*
X30272Y28048D01*
X30248Y28045D01*
X30227Y28031D01*
X30216Y28010D01*
Y27985D01*
X30227Y27964D01*
X30248Y27950D01*
X30272Y27947D01*
X30294Y27956D01*
X30311Y27974D01*
X30316Y27998D01*
X30593D02*
X30587Y28021D01*
X30571Y28039D01*
X30549Y28048D01*
X30524Y28045D01*
X30504Y28031D01*
X30493Y28010D01*
Y27985D01*
X30504Y27964D01*
X30524Y27950D01*
X30549Y27947D01*
X30571Y27956D01*
X30587Y27974D01*
X30593Y27998D01*
X30870D02*
X30864Y28021D01*
X30848Y28039D01*
X30825Y28048D01*
X30801Y28045D01*
X30781Y28031D01*
X30770Y28010D01*
Y27985D01*
X30781Y27964D01*
X30801Y27950D01*
X30825Y27947D01*
X30848Y27956D01*
X30864Y27974D01*
X30870Y27998D01*
X31147D02*
X31141Y28021D01*
X31125Y28039D01*
X31102Y28048D01*
X31078Y28045D01*
X31058Y28031D01*
X31047Y28010D01*
Y27985D01*
X31058Y27964D01*
X31078Y27950D01*
X31102Y27947D01*
X31125Y27956D01*
X31141Y27974D01*
X31147Y27998D01*
X31424D02*
X31418Y28021D01*
X31402Y28039D01*
X31379Y28048D01*
X31355Y28045D01*
X31335Y28031D01*
X31324Y28010D01*
Y27985D01*
X31335Y27964D01*
X31355Y27950D01*
X31379Y27947D01*
X31402Y27956D01*
X31418Y27974D01*
X31424Y27998D01*
X31701D02*
X31695Y28021D01*
X31679Y28039D01*
X31656Y28048D01*
X31632Y28045D01*
X31612Y28031D01*
X31600Y28010D01*
Y27985D01*
X31612Y27964D01*
X31632Y27950D01*
X31656Y27947D01*
X31679Y27956D01*
X31695Y27974D01*
X31701Y27998D01*
X31977D02*
X31972Y28021D01*
X31956Y28039D01*
X31933Y28048D01*
X31909Y28045D01*
X31889Y28031D01*
X31877Y28010D01*
Y27985D01*
X31889Y27964D01*
X31909Y27950D01*
X31933Y27947D01*
X31956Y27956D01*
X31972Y27974D01*
X31977Y27998D01*
X32254D02*
X32249Y28021D01*
X32232Y28039D01*
X32210Y28048D01*
X32186Y28045D01*
X32166Y28031D01*
X32154Y28010D01*
Y27985D01*
X32166Y27964D01*
X32186Y27950D01*
X32210Y27947D01*
X32232Y27956D01*
X32249Y27974D01*
X32254Y27998D01*
X32531D02*
X32525Y28021D01*
X32509Y28039D01*
X32487Y28048D01*
X32462Y28045D01*
X32442Y28031D01*
X32431Y28010D01*
Y27985D01*
X32442Y27964D01*
X32462Y27950D01*
X32487Y27947D01*
X32509Y27956D01*
X32525Y27974D01*
X32531Y27998D01*
X32808D02*
X32802Y28021D01*
X32786Y28039D01*
X32763Y28048D01*
X32739Y28045D01*
X32719Y28031D01*
X32708Y28010D01*
Y27985D01*
X32719Y27964D01*
X32739Y27950D01*
X32763Y27947D01*
X32786Y27956D01*
X32802Y27974D01*
X32808Y27998D01*
X29625Y27744D02*
X29620Y27767D01*
X29603Y27785D01*
X29581Y27794D01*
X29557Y27791D01*
X29537Y27777D01*
X29525Y27756D01*
Y27731D01*
X29537Y27710D01*
X29557Y27696D01*
X29581Y27693D01*
X29603Y27702D01*
X29620Y27720D01*
X29625Y27744D01*
X29902D02*
X29896Y27767D01*
X29880Y27785D01*
X29858Y27794D01*
X29833Y27791D01*
X29813Y27777D01*
X29802Y27756D01*
Y27731D01*
X29813Y27710D01*
X29833Y27696D01*
X29858Y27693D01*
X29880Y27702D01*
X29896Y27720D01*
X29902Y27744D01*
X30179D02*
X30173Y27767D01*
X30157Y27785D01*
X30134Y27794D01*
X30110Y27791D01*
X30090Y27777D01*
X30079Y27756D01*
Y27731D01*
X30090Y27710D01*
X30110Y27696D01*
X30134Y27693D01*
X30157Y27702D01*
X30173Y27720D01*
X30179Y27744D01*
X30456D02*
X30450Y27767D01*
X30434Y27785D01*
X30411Y27794D01*
X30387Y27791D01*
X30367Y27777D01*
X30356Y27756D01*
Y27731D01*
X30367Y27710D01*
X30387Y27696D01*
X30411Y27693D01*
X30434Y27702D01*
X30450Y27720D01*
X30456Y27744D01*
X30733D02*
X30727Y27767D01*
X30711Y27785D01*
X30688Y27794D01*
X30664Y27791D01*
X30644Y27777D01*
X30633Y27756D01*
Y27731D01*
X30644Y27710D01*
X30664Y27696D01*
X30688Y27693D01*
X30711Y27702D01*
X30727Y27720D01*
X30733Y27744D01*
X31010D02*
X31004Y27767D01*
X30988Y27785D01*
X30965Y27794D01*
X30941Y27791D01*
X30921Y27777D01*
X30910Y27756D01*
Y27731D01*
X30921Y27710D01*
X30941Y27696D01*
X30965Y27693D01*
X30988Y27702D01*
X31004Y27720D01*
X31010Y27744D01*
X31287D02*
X31281Y27767D01*
X31265Y27785D01*
X31242Y27794D01*
X31218Y27791D01*
X31198Y27777D01*
X31186Y27756D01*
Y27731D01*
X31198Y27710D01*
X31218Y27696D01*
X31242Y27693D01*
X31265Y27702D01*
X31281Y27720D01*
X31287Y27744D01*
X31563D02*
X31558Y27767D01*
X31542Y27785D01*
X31519Y27794D01*
X31495Y27791D01*
X31475Y27777D01*
X31463Y27756D01*
Y27731D01*
X31475Y27710D01*
X31495Y27696D01*
X31519Y27693D01*
X31542Y27702D01*
X31558Y27720D01*
X31563Y27744D01*
X31840D02*
X31835Y27767D01*
X31818Y27785D01*
X31796Y27794D01*
X31772Y27791D01*
X31751Y27777D01*
X31740Y27756D01*
Y27731D01*
X31751Y27710D01*
X31772Y27696D01*
X31796Y27693D01*
X31818Y27702D01*
X31835Y27720D01*
X31840Y27744D01*
X32117D02*
X32111Y27767D01*
X32095Y27785D01*
X32073Y27794D01*
X32048Y27791D01*
X32028Y27777D01*
X32017Y27756D01*
Y27731D01*
X32028Y27710D01*
X32048Y27696D01*
X32073Y27693D01*
X32095Y27702D01*
X32111Y27720D01*
X32117Y27744D01*
X32394D02*
X32388Y27767D01*
X32372Y27785D01*
X32349Y27794D01*
X32325Y27791D01*
X32305Y27777D01*
X32294Y27756D01*
Y27731D01*
X32305Y27710D01*
X32325Y27696D01*
X32349Y27693D01*
X32372Y27702D01*
X32388Y27720D01*
X32394Y27744D01*
X32671D02*
X32665Y27767D01*
X32649Y27785D01*
X32626Y27794D01*
X32602Y27791D01*
X32582Y27777D01*
X32571Y27756D01*
Y27731D01*
X32582Y27710D01*
X32602Y27696D01*
X32626Y27693D01*
X32649Y27702D01*
X32665Y27720D01*
X32671Y27744D01*
X32948D02*
X32942Y27767D01*
X32926Y27785D01*
X32903Y27794D01*
X32879Y27791D01*
X32859Y27777D01*
X32848Y27756D01*
Y27731D01*
X32859Y27710D01*
X32879Y27696D01*
X32903Y27693D01*
X32926Y27702D01*
X32942Y27720D01*
X32948Y27744D01*
X26518Y17795D02*
X26512Y17819D01*
X26496Y17837D01*
X26474Y17846D01*
X26449Y17843D01*
X26429Y17829D01*
X26418Y17807D01*
Y17783D01*
X26429Y17762D01*
X26449Y17748D01*
X26474Y17745D01*
X26496Y17753D01*
X26512Y17772D01*
X26518Y17795D01*
Y18303D02*
X26512Y18327D01*
X26496Y18345D01*
X26474Y18354D01*
X26449Y18351D01*
X26429Y18337D01*
X26418Y18315D01*
Y18291D01*
X26429Y18270D01*
X26449Y18256D01*
X26474Y18253D01*
X26496Y18261D01*
X26512Y18280D01*
X26518Y18303D01*
X26264D02*
X26258Y18327D01*
X26242Y18345D01*
X26220Y18354D01*
X26195Y18351D01*
X26175Y18337D01*
X26164Y18315D01*
Y18291D01*
X26175Y18270D01*
X26195Y18256D01*
X26220Y18253D01*
X26242Y18261D01*
X26258Y18280D01*
X26264Y18303D01*
X26518Y18557D02*
X26512Y18581D01*
X26496Y18599D01*
X26474Y18608D01*
X26449Y18605D01*
X26429Y18591D01*
X26418Y18569D01*
Y18545D01*
X26429Y18524D01*
X26449Y18510D01*
X26474Y18507D01*
X26496Y18515D01*
X26512Y18534D01*
X26518Y18557D01*
X26264D02*
X26258Y18581D01*
X26242Y18599D01*
X26220Y18608D01*
X26195Y18605D01*
X26175Y18591D01*
X26164Y18569D01*
Y18545D01*
X26175Y18524D01*
X26195Y18510D01*
X26220Y18507D01*
X26242Y18515D01*
X26258Y18534D01*
X26264Y18557D01*
X26518Y18811D02*
X26512Y18835D01*
X26496Y18853D01*
X26474Y18862D01*
X26449Y18859D01*
X26429Y18845D01*
X26418Y18823D01*
Y18799D01*
X26429Y18778D01*
X26449Y18764D01*
X26474Y18761D01*
X26496Y18769D01*
X26512Y18788D01*
X26518Y18811D01*
X26264Y18811D02*
X26258Y18835D01*
X26242Y18853D01*
X26220Y18862D01*
X26195Y18859D01*
X26175Y18845D01*
X26164Y18823D01*
Y18799D01*
X26175Y18778D01*
X26195Y18764D01*
X26220Y18761D01*
X26242Y18769D01*
X26258Y18788D01*
X26264Y18811D01*
X26518Y19065D02*
X26512Y19089D01*
X26496Y19107D01*
X26474Y19116D01*
X26449Y19113D01*
X26429Y19099D01*
X26418Y19077D01*
Y19053D01*
X26429Y19032D01*
X26449Y19018D01*
X26474Y19015D01*
X26496Y19023D01*
X26512Y19042D01*
X26518Y19065D01*
X26264D02*
X26258Y19089D01*
X26242Y19107D01*
X26220Y19116D01*
X26195Y19113D01*
X26175Y19099D01*
X26164Y19077D01*
Y19053D01*
X26175Y19032D01*
X26195Y19018D01*
X26220Y19015D01*
X26242Y19023D01*
X26258Y19042D01*
X26264Y19065D01*
X26518Y19319D02*
X26512Y19343D01*
X26496Y19361D01*
X26474Y19370D01*
X26449Y19367D01*
X26429Y19353D01*
X26418Y19331D01*
Y19307D01*
X26429Y19286D01*
X26449Y19272D01*
X26474Y19269D01*
X26496Y19277D01*
X26512Y19296D01*
X26518Y19319D01*
X26264D02*
X26258Y19343D01*
X26242Y19361D01*
X26220Y19370D01*
X26195Y19367D01*
X26175Y19353D01*
X26164Y19331D01*
Y19307D01*
X26175Y19286D01*
X26195Y19272D01*
X26220Y19269D01*
X26242Y19277D01*
X26258Y19296D01*
X26264Y19319D01*
X26518Y19573D02*
X26512Y19597D01*
X26496Y19615D01*
X26474Y19624D01*
X26449Y19621D01*
X26429Y19607D01*
X26418Y19585D01*
Y19561D01*
X26429Y19540D01*
X26449Y19526D01*
X26474Y19523D01*
X26496Y19531D01*
X26512Y19550D01*
X26518Y19573D01*
X26264Y19827D02*
X26258Y19851D01*
X26242Y19869D01*
X26220Y19878D01*
X26195Y19875D01*
X26175Y19861D01*
X26164Y19839D01*
Y19815D01*
X26175Y19794D01*
X26195Y19780D01*
X26220Y19777D01*
X26242Y19785D01*
X26258Y19804D01*
X26264Y19827D01*
X26518Y20081D02*
X26512Y20105D01*
X26496Y20123D01*
X26474Y20132D01*
X26449Y20129D01*
X26429Y20115D01*
X26418Y20093D01*
Y20069D01*
X26429Y20048D01*
X26449Y20034D01*
X26474Y20031D01*
X26496Y20039D01*
X26512Y20058D01*
X26518Y20081D01*
Y20335D02*
X26512Y20359D01*
X26496Y20377D01*
X26474Y20386D01*
X26449Y20383D01*
X26429Y20369D01*
X26418Y20347D01*
Y20323D01*
X26429Y20302D01*
X26449Y20288D01*
X26474Y20285D01*
X26496Y20293D01*
X26512Y20312D01*
X26518Y20335D01*
X26264D02*
X26258Y20359D01*
X26242Y20377D01*
X26220Y20386D01*
X26195Y20383D01*
X26175Y20369D01*
X26164Y20347D01*
Y20323D01*
X26175Y20302D01*
X26195Y20288D01*
X26220Y20285D01*
X26242Y20293D01*
X26258Y20312D01*
X26264Y20335D01*
X26518Y20589D02*
X26512Y20613D01*
X26496Y20631D01*
X26474Y20640D01*
X26449Y20637D01*
X26429Y20623D01*
X26418Y20601D01*
Y20577D01*
X26429Y20556D01*
X26449Y20542D01*
X26474Y20539D01*
X26496Y20547D01*
X26512Y20566D01*
X26518Y20589D01*
Y20843D02*
X26512Y20867D01*
X26496Y20885D01*
X26474Y20894D01*
X26449Y20891D01*
X26429Y20877D01*
X26418Y20855D01*
Y20831D01*
X26429Y20810D01*
X26449Y20796D01*
X26474Y20793D01*
X26496Y20801D01*
X26512Y20820D01*
X26518Y20843D01*
X26264D02*
X26258Y20867D01*
X26242Y20885D01*
X26220Y20894D01*
X26195Y20891D01*
X26175Y20877D01*
X26164Y20855D01*
Y20831D01*
X26175Y20810D01*
X26195Y20796D01*
X26220Y20793D01*
X26242Y20801D01*
X26258Y20820D01*
X26264Y20843D01*
X26518Y21097D02*
X26512Y21121D01*
X26496Y21139D01*
X26474Y21148D01*
X26449Y21145D01*
X26429Y21131D01*
X26418Y21109D01*
Y21085D01*
X26429Y21064D01*
X26449Y21050D01*
X26474Y21047D01*
X26496Y21055D01*
X26512Y21074D01*
X26518Y21097D01*
X26264D02*
X26258Y21121D01*
X26242Y21139D01*
X26220Y21148D01*
X26195Y21145D01*
X26175Y21131D01*
X26164Y21109D01*
Y21085D01*
X26175Y21064D01*
X26195Y21050D01*
X26220Y21047D01*
X26242Y21055D01*
X26258Y21074D01*
X26264Y21097D01*
X26518Y21351D02*
X26512Y21375D01*
X26496Y21393D01*
X26474Y21402D01*
X26449Y21399D01*
X26429Y21385D01*
X26418Y21363D01*
Y21339D01*
X26429Y21318D01*
X26449Y21304D01*
X26474Y21301D01*
X26496Y21309D01*
X26512Y21328D01*
X26518Y21351D01*
X26264D02*
X26258Y21375D01*
X26242Y21393D01*
X26220Y21402D01*
X26195Y21399D01*
X26175Y21385D01*
X26164Y21363D01*
Y21339D01*
X26175Y21318D01*
X26195Y21304D01*
X26220Y21301D01*
X26242Y21309D01*
X26258Y21328D01*
X26264Y21351D01*
X26518Y21605D02*
X26512Y21629D01*
X26496Y21647D01*
X26474Y21656D01*
X26449Y21653D01*
X26429Y21639D01*
X26418Y21617D01*
Y21593D01*
X26429Y21572D01*
X26449Y21558D01*
X26474Y21555D01*
X26496Y21563D01*
X26512Y21582D01*
X26518Y21605D01*
X26264D02*
X26258Y21629D01*
X26242Y21647D01*
X26220Y21656D01*
X26195Y21653D01*
X26175Y21639D01*
X26164Y21617D01*
Y21593D01*
X26175Y21572D01*
X26195Y21558D01*
X26220Y21555D01*
X26242Y21563D01*
X26258Y21582D01*
X26264Y21605D01*
X26518Y21859D02*
X26512Y21883D01*
X26496Y21901D01*
X26474Y21910D01*
X26449Y21907D01*
X26429Y21893D01*
X26418Y21871D01*
Y21847D01*
X26429Y21826D01*
X26449Y21812D01*
X26474Y21809D01*
X26496Y21817D01*
X26512Y21836D01*
X26518Y21859D01*
Y22367D02*
X26512Y22391D01*
X26496Y22409D01*
X26474Y22418D01*
X26449Y22415D01*
X26429Y22401D01*
X26418Y22379D01*
Y22355D01*
X26429Y22334D01*
X26449Y22320D01*
X26474Y22317D01*
X26496Y22325D01*
X26512Y22344D01*
X26518Y22367D01*
X26264D02*
X26258Y22391D01*
X26242Y22409D01*
X26220Y22418D01*
X26195Y22415D01*
X26175Y22401D01*
X26164Y22379D01*
Y22355D01*
X26175Y22334D01*
X26195Y22320D01*
X26220Y22317D01*
X26242Y22325D01*
X26258Y22344D01*
X26264Y22367D01*
X26518Y22621D02*
X26512Y22645D01*
X26496Y22663D01*
X26474Y22672D01*
X26449Y22669D01*
X26429Y22655D01*
X26418Y22633D01*
Y22609D01*
X26429Y22588D01*
X26449Y22574D01*
X26474Y22571D01*
X26496Y22579D01*
X26512Y22598D01*
X26518Y22621D01*
X26264D02*
X26258Y22645D01*
X26242Y22663D01*
X26220Y22672D01*
X26195Y22669D01*
X26175Y22655D01*
X26164Y22633D01*
Y22609D01*
X26175Y22588D01*
X26195Y22574D01*
X26220Y22571D01*
X26242Y22579D01*
X26258Y22598D01*
X26264Y22621D01*
X26518Y22875D02*
X26512Y22899D01*
X26496Y22917D01*
X26474Y22926D01*
X26449Y22923D01*
X26429Y22909D01*
X26418Y22887D01*
Y22863D01*
X26429Y22842D01*
X26449Y22828D01*
X26474Y22825D01*
X26496Y22833D01*
X26512Y22852D01*
X26518Y22875D01*
X26264D02*
X26258Y22899D01*
X26242Y22917D01*
X26220Y22926D01*
X26195Y22923D01*
X26175Y22909D01*
X26164Y22887D01*
Y22863D01*
X26175Y22842D01*
X26195Y22828D01*
X26220Y22825D01*
X26242Y22833D01*
X26258Y22852D01*
X26264Y22875D01*
X26518Y23129D02*
X26512Y23153D01*
X26496Y23171D01*
X26474Y23180D01*
X26449Y23177D01*
X26429Y23163D01*
X26418Y23141D01*
Y23117D01*
X26429Y23096D01*
X26449Y23082D01*
X26474Y23079D01*
X26496Y23087D01*
X26512Y23106D01*
X26518Y23129D01*
X26264D02*
X26258Y23153D01*
X26242Y23171D01*
X26220Y23180D01*
X26195Y23177D01*
X26175Y23163D01*
X26164Y23141D01*
Y23117D01*
X26175Y23096D01*
X26195Y23082D01*
X26220Y23079D01*
X26242Y23087D01*
X26258Y23106D01*
X26264Y23129D01*
X26518Y23383D02*
X26512Y23407D01*
X26496Y23425D01*
X26474Y23434D01*
X26449Y23431D01*
X26429Y23417D01*
X26418Y23395D01*
Y23371D01*
X26429Y23350D01*
X26449Y23336D01*
X26474Y23333D01*
X26496Y23341D01*
X26512Y23360D01*
X26518Y23383D01*
X26264D02*
X26258Y23407D01*
X26242Y23425D01*
X26220Y23434D01*
X26195Y23431D01*
X26175Y23417D01*
X26164Y23395D01*
Y23371D01*
X26175Y23350D01*
X26195Y23336D01*
X26220Y23333D01*
X26242Y23341D01*
X26258Y23360D01*
X26264Y23383D01*
X26518Y23637D02*
X26512Y23661D01*
X26496Y23679D01*
X26474Y23688D01*
X26449Y23685D01*
X26429Y23671D01*
X26418Y23649D01*
Y23625D01*
X26429Y23604D01*
X26449Y23590D01*
X26474Y23587D01*
X26496Y23595D01*
X26512Y23614D01*
X26518Y23637D01*
X26264Y17795D02*
X26258Y17819D01*
X26242Y17837D01*
X26220Y17846D01*
X26195Y17843D01*
X26175Y17829D01*
X26164Y17807D01*
Y17783D01*
X26175Y17762D01*
X26195Y17748D01*
X26220Y17745D01*
X26242Y17753D01*
X26258Y17772D01*
X26264Y17795D01*
X26518Y18049D02*
X26512Y18073D01*
X26496Y18091D01*
X26474Y18100D01*
X26449Y18097D01*
X26429Y18083D01*
X26418Y18061D01*
Y18037D01*
X26429Y18016D01*
X26449Y18002D01*
X26474Y17999D01*
X26496Y18007D01*
X26512Y18026D01*
X26518Y18049D01*
Y19827D02*
X26512Y19851D01*
X26496Y19869D01*
X26474Y19878D01*
X26449Y19875D01*
X26429Y19861D01*
X26418Y19839D01*
Y19815D01*
X26429Y19794D01*
X26449Y19780D01*
X26474Y19777D01*
X26496Y19785D01*
X26512Y19804D01*
X26518Y19827D01*
X26264Y21859D02*
X26258Y21883D01*
X26242Y21901D01*
X26220Y21910D01*
X26195Y21907D01*
X26175Y21893D01*
X26164Y21871D01*
Y21847D01*
X26175Y21826D01*
X26195Y21812D01*
X26220Y21809D01*
X26242Y21817D01*
X26258Y21836D01*
X26264Y21859D01*
Y23637D02*
X26258Y23661D01*
X26242Y23679D01*
X26220Y23688D01*
X26195Y23685D01*
X26175Y23671D01*
X26164Y23649D01*
Y23625D01*
X26175Y23604D01*
X26195Y23590D01*
X26220Y23587D01*
X26242Y23595D01*
X26258Y23614D01*
X26264Y23637D01*
Y20081D02*
X26258Y20105D01*
X26242Y20123D01*
X26220Y20132D01*
X26195Y20129D01*
X26175Y20115D01*
X26164Y20093D01*
Y20069D01*
X26175Y20048D01*
X26195Y20034D01*
X26220Y20031D01*
X26242Y20039D01*
X26258Y20058D01*
X26264Y20081D01*
Y22113D02*
X26258Y22137D01*
X26242Y22155D01*
X26220Y22164D01*
X26195Y22161D01*
X26175Y22147D01*
X26164Y22125D01*
Y22101D01*
X26175Y22080D01*
X26195Y22066D01*
X26220Y22063D01*
X26242Y22071D01*
X26258Y22090D01*
X26264Y22113D01*
X26518Y17541D02*
X26512Y17565D01*
X26496Y17583D01*
X26474Y17592D01*
X26449Y17589D01*
X26429Y17575D01*
X26418Y17553D01*
Y17529D01*
X26429Y17508D01*
X26449Y17494D01*
X26474Y17491D01*
X26496Y17499D01*
X26512Y17518D01*
X26518Y17541D01*
X26264Y19573D02*
X26258Y19597D01*
X26242Y19615D01*
X26220Y19624D01*
X26195Y19621D01*
X26175Y19607D01*
X26164Y19585D01*
Y19561D01*
X26175Y19540D01*
X26195Y19526D01*
X26220Y19523D01*
X26242Y19531D01*
X26258Y19550D01*
X26264Y19573D01*
Y20589D02*
X26258Y20613D01*
X26242Y20631D01*
X26220Y20640D01*
X26195Y20637D01*
X26175Y20623D01*
X26164Y20601D01*
Y20577D01*
X26175Y20556D01*
X26195Y20542D01*
X26220Y20539D01*
X26242Y20547D01*
X26258Y20566D01*
X26264Y20589D01*
X26518Y22113D02*
X26512Y22137D01*
X26496Y22155D01*
X26474Y22164D01*
X26449Y22161D01*
X26429Y22147D01*
X26418Y22125D01*
Y22101D01*
X26429Y22080D01*
X26449Y22066D01*
X26474Y22063D01*
X26496Y22071D01*
X26512Y22090D01*
X26518Y22113D01*
Y23891D02*
X26512Y23915D01*
X26496Y23933D01*
X26474Y23942D01*
X26449Y23939D01*
X26429Y23925D01*
X26418Y23903D01*
Y23879D01*
X26429Y23858D01*
X26449Y23844D01*
X26474Y23841D01*
X26496Y23849D01*
X26512Y23868D01*
X26518Y23891D01*
X26264D02*
X26258Y23915D01*
X26242Y23933D01*
X26220Y23942D01*
X26195Y23939D01*
X26175Y23925D01*
X26164Y23903D01*
Y23879D01*
X26175Y23858D01*
X26195Y23844D01*
X26220Y23841D01*
X26242Y23849D01*
X26258Y23868D01*
X26264Y23891D01*
Y18049D02*
X26258Y18073D01*
X26242Y18091D01*
X26220Y18100D01*
X26195Y18097D01*
X26175Y18083D01*
X26164Y18061D01*
Y18037D01*
X26175Y18016D01*
X26195Y18002D01*
X26220Y17999D01*
X26242Y18007D01*
X26258Y18026D01*
X26264Y18049D01*
Y17541D02*
X26258Y17565D01*
X26242Y17583D01*
X26220Y17592D01*
X26195Y17589D01*
X26175Y17575D01*
X26164Y17553D01*
Y17529D01*
X26175Y17508D01*
X26195Y17494D01*
X26220Y17491D01*
X26242Y17499D01*
X26258Y17518D01*
X26264Y17541D01*
X34680Y24659D02*
X34675Y24683D01*
X34658Y24701D01*
X34636Y24710D01*
X34612Y24707D01*
X34592Y24693D01*
X34580Y24672D01*
Y24647D01*
X34592Y24626D01*
X34612Y24612D01*
X34636Y24609D01*
X34658Y24618D01*
X34675Y24636D01*
X34680Y24659D01*
X34934D02*
X34929Y24683D01*
X34912Y24701D01*
X34890Y24710D01*
X34866Y24707D01*
X34846Y24693D01*
X34834Y24672D01*
Y24647D01*
X34846Y24626D01*
X34866Y24612D01*
X34890Y24609D01*
X34912Y24618D01*
X34929Y24636D01*
X34934Y24659D01*
X15740Y16605D02*
X15735Y16629D01*
X15718Y16647D01*
X15696Y16656D01*
X15672Y16653D01*
X15652Y16639D01*
X15640Y16617D01*
Y16593D01*
X15652Y16572D01*
X15672Y16558D01*
X15696Y16555D01*
X15718Y16563D01*
X15735Y16582D01*
X15740Y16605D01*
X17264D02*
X17259Y16629D01*
X17242Y16647D01*
X17220Y16656D01*
X17196Y16653D01*
X17176Y16639D01*
X17164Y16617D01*
Y16593D01*
X17176Y16572D01*
X17196Y16558D01*
X17220Y16555D01*
X17242Y16563D01*
X17259Y16582D01*
X17264Y16605D01*
Y15843D02*
X17259Y15867D01*
X17242Y15885D01*
X17220Y15894D01*
X17196Y15891D01*
X17176Y15877D01*
X17164Y15855D01*
Y15831D01*
X17176Y15810D01*
X17196Y15796D01*
X17220Y15793D01*
X17242Y15801D01*
X17259Y15820D01*
X17264Y15843D01*
X15740D02*
X15735Y15867D01*
X15718Y15885D01*
X15696Y15894D01*
X15672Y15891D01*
X15652Y15877D01*
X15640Y15855D01*
Y15831D01*
X15652Y15810D01*
X15672Y15796D01*
X15696Y15793D01*
X15718Y15801D01*
X15735Y15820D01*
X15740Y15843D01*
X28148Y19275D02*
X28142Y19299D01*
X28126Y19317D01*
X28103Y19326D01*
X28079Y19323D01*
X28059Y19309D01*
X28048Y19287D01*
Y19263D01*
X28059Y19242D01*
X28079Y19228D01*
X28103Y19225D01*
X28126Y19233D01*
X28142Y19252D01*
X28148Y19275D01*
X28402D02*
X28396Y19299D01*
X28380Y19317D01*
X28357Y19326D01*
X28333Y19323D01*
X28313Y19309D01*
X28302Y19287D01*
Y19263D01*
X28313Y19242D01*
X28333Y19228D01*
X28357Y19225D01*
X28380Y19233D01*
X28396Y19252D01*
X28402Y19275D01*
X28656D02*
X28650Y19299D01*
X28634Y19317D01*
X28611Y19326D01*
X28587Y19323D01*
X28567Y19309D01*
X28556Y19287D01*
Y19263D01*
X28567Y19242D01*
X28587Y19228D01*
X28611Y19225D01*
X28634Y19233D01*
X28650Y19252D01*
X28656Y19275D01*
X28910D02*
X28904Y19299D01*
X28888Y19317D01*
X28865Y19326D01*
X28841Y19323D01*
X28821Y19309D01*
X28810Y19287D01*
Y19263D01*
X28821Y19242D01*
X28841Y19228D01*
X28865Y19225D01*
X28888Y19233D01*
X28904Y19252D01*
X28910Y19275D01*
X29164D02*
X29158Y19299D01*
X29142Y19317D01*
X29119Y19326D01*
X29095Y19323D01*
X29075Y19309D01*
X29064Y19287D01*
Y19263D01*
X29075Y19242D01*
X29095Y19228D01*
X29119Y19225D01*
X29142Y19233D01*
X29158Y19252D01*
X29164Y19275D01*
X29418D02*
X29412Y19299D01*
X29396Y19317D01*
X29373Y19326D01*
X29349Y19323D01*
X29329Y19309D01*
X29318Y19287D01*
Y19263D01*
X29329Y19242D01*
X29349Y19228D01*
X29373Y19225D01*
X29396Y19233D01*
X29412Y19252D01*
X29418Y19275D01*
X29672D02*
X29666Y19299D01*
X29650Y19317D01*
X29627Y19326D01*
X29603Y19323D01*
X29583Y19309D01*
X29572Y19287D01*
Y19263D01*
X29583Y19242D01*
X29603Y19228D01*
X29627Y19225D01*
X29650Y19233D01*
X29666Y19252D01*
X29672Y19275D01*
X29926D02*
X29920Y19299D01*
X29904Y19317D01*
X29881Y19326D01*
X29857Y19323D01*
X29837Y19309D01*
X29826Y19287D01*
Y19263D01*
X29837Y19242D01*
X29857Y19228D01*
X29881Y19225D01*
X29904Y19233D01*
X29920Y19252D01*
X29926Y19275D01*
X30180D02*
X30174Y19299D01*
X30158Y19317D01*
X30135Y19326D01*
X30111Y19323D01*
X30091Y19309D01*
X30080Y19287D01*
Y19263D01*
X30091Y19242D01*
X30111Y19228D01*
X30135Y19225D01*
X30158Y19233D01*
X30174Y19252D01*
X30180Y19275D01*
X30434D02*
X30428Y19299D01*
X30412Y19317D01*
X30389Y19326D01*
X30365Y19323D01*
X30345Y19309D01*
X30334Y19287D01*
Y19263D01*
X30345Y19242D01*
X30365Y19228D01*
X30389Y19225D01*
X30412Y19233D01*
X30428Y19252D01*
X30434Y19275D01*
X30688D02*
X30682Y19299D01*
X30666Y19317D01*
X30643Y19326D01*
X30619Y19323D01*
X30599Y19309D01*
X30588Y19287D01*
Y19263D01*
X30599Y19242D01*
X30619Y19228D01*
X30643Y19225D01*
X30666Y19233D01*
X30682Y19252D01*
X30688Y19275D01*
X30942D02*
X30936Y19299D01*
X30920Y19317D01*
X30897Y19326D01*
X30873Y19323D01*
X30853Y19309D01*
X30842Y19287D01*
Y19263D01*
X30853Y19242D01*
X30873Y19228D01*
X30897Y19225D01*
X30920Y19233D01*
X30936Y19252D01*
X30942Y19275D01*
X31196D02*
X31190Y19299D01*
X31174Y19317D01*
X31151Y19326D01*
X31127Y19323D01*
X31107Y19309D01*
X31096Y19287D01*
Y19263D01*
X31107Y19242D01*
X31127Y19228D01*
X31151Y19225D01*
X31174Y19233D01*
X31190Y19252D01*
X31196Y19275D01*
X31450D02*
X31444Y19299D01*
X31428Y19317D01*
X31405Y19326D01*
X31381Y19323D01*
X31361Y19309D01*
X31350Y19287D01*
Y19263D01*
X31361Y19242D01*
X31381Y19228D01*
X31405Y19225D01*
X31428Y19233D01*
X31444Y19252D01*
X31450Y19275D01*
X31704D02*
X31698Y19299D01*
X31682Y19317D01*
X31659Y19326D01*
X31635Y19323D01*
X31615Y19309D01*
X31604Y19287D01*
Y19263D01*
X31615Y19242D01*
X31635Y19228D01*
X31659Y19225D01*
X31682Y19233D01*
X31698Y19252D01*
X31704Y19275D01*
X31958D02*
X31952Y19299D01*
X31936Y19317D01*
X31913Y19326D01*
X31889Y19323D01*
X31869Y19309D01*
X31858Y19287D01*
Y19263D01*
X31869Y19242D01*
X31889Y19228D01*
X31913Y19225D01*
X31936Y19233D01*
X31952Y19252D01*
X31958Y19275D01*
X16019Y17661D02*
X16014Y17685D01*
X15998Y17703D01*
X15975Y17712D01*
X15951Y17709D01*
X15931Y17695D01*
X15919Y17673D01*
Y17649D01*
X15931Y17627D01*
X15951Y17614D01*
X15975Y17611D01*
X15998Y17619D01*
X16014Y17637D01*
X16019Y17661D01*
X16769D02*
X16764Y17685D01*
X16748Y17703D01*
X16725Y17712D01*
X16701Y17709D01*
X16681Y17695D01*
X16669Y17673D01*
Y17649D01*
X16681Y17627D01*
X16701Y17614D01*
X16725Y17611D01*
X16748Y17619D01*
X16764Y17637D01*
X16769Y17661D01*
X16019Y17211D02*
X16014Y17235D01*
X15998Y17253D01*
X15975Y17262D01*
X15951Y17259D01*
X15931Y17245D01*
X15919Y17223D01*
Y17199D01*
X15931Y17177D01*
X15951Y17164D01*
X15975Y17161D01*
X15998Y17169D01*
X16014Y17187D01*
X16019Y17211D01*
X16769D02*
X16764Y17235D01*
X16748Y17253D01*
X16725Y17262D01*
X16701Y17259D01*
X16681Y17245D01*
X16669Y17223D01*
Y17199D01*
X16681Y17177D01*
X16701Y17164D01*
X16725Y17161D01*
X16748Y17169D01*
X16764Y17187D01*
X16769Y17211D01*
X30404Y13372D02*
X30398Y13395D01*
X30382Y13414D01*
X30359Y13422D01*
X30335Y13419D01*
X30315Y13405D01*
X30304Y13384D01*
Y13360D01*
X30315Y13338D01*
X30335Y13324D01*
X30359Y13321D01*
X30382Y13330D01*
X30398Y13348D01*
X30404Y13372D01*
X31154D02*
X31148Y13395D01*
X31132Y13414D01*
X31109Y13422D01*
X31085Y13419D01*
X31065Y13405D01*
X31054Y13384D01*
Y13360D01*
X31065Y13338D01*
X31085Y13324D01*
X31109Y13321D01*
X31132Y13330D01*
X31148Y13348D01*
X31154Y13372D01*
X30404Y14323D02*
X30398Y14347D01*
X30382Y14365D01*
X30359Y14373D01*
X30335Y14370D01*
X30315Y14357D01*
X30304Y14335D01*
Y14311D01*
X30315Y14289D01*
X30335Y14275D01*
X30359Y14273D01*
X30382Y14281D01*
X30398Y14299D01*
X30404Y14323D01*
X31154D02*
X31148Y14347D01*
X31132Y14365D01*
X31109Y14373D01*
X31085Y14370D01*
X31065Y14357D01*
X31054Y14335D01*
Y14311D01*
X31065Y14289D01*
X31085Y14275D01*
X31109Y14273D01*
X31132Y14281D01*
X31148Y14299D01*
X31154Y14323D01*
X31605Y13372D02*
X31599Y13395D01*
X31583Y13414D01*
X31561Y13422D01*
X31536Y13419D01*
X31516Y13405D01*
X31505Y13384D01*
Y13360D01*
X31516Y13338D01*
X31536Y13324D01*
X31561Y13321D01*
X31583Y13330D01*
X31599Y13348D01*
X31605Y13372D01*
X32355D02*
X32349Y13395D01*
X32333Y13414D01*
X32311Y13422D01*
X32286Y13419D01*
X32266Y13405D01*
X32255Y13384D01*
Y13360D01*
X32266Y13338D01*
X32286Y13324D01*
X32311Y13321D01*
X32333Y13330D01*
X32349Y13348D01*
X32355Y13372D01*
X31605Y14323D02*
X31599Y14347D01*
X31583Y14365D01*
X31561Y14373D01*
X31536Y14370D01*
X31516Y14357D01*
X31505Y14335D01*
Y14311D01*
X31516Y14289D01*
X31536Y14275D01*
X31561Y14273D01*
X31583Y14281D01*
X31599Y14299D01*
X31605Y14323D01*
X32355D02*
X32349Y14347D01*
X32333Y14365D01*
X32311Y14373D01*
X32286Y14370D01*
X32266Y14357D01*
X32255Y14335D01*
Y14311D01*
X32266Y14289D01*
X32286Y14275D01*
X32311Y14273D01*
X32333Y14281D01*
X32349Y14299D01*
X32355Y14323D01*
X32806D02*
X32801Y14347D01*
X32785Y14365D01*
X32762Y14373D01*
X32738Y14370D01*
X32718Y14357D01*
X32706Y14335D01*
Y14311D01*
X32718Y14289D01*
X32738Y14275D01*
X32762Y14273D01*
X32785Y14281D01*
X32801Y14299D01*
X32806Y14323D01*
X33556D02*
X33551Y14347D01*
X33535Y14365D01*
X33512Y14373D01*
X33488Y14370D01*
X33468Y14357D01*
X33456Y14335D01*
Y14311D01*
X33468Y14289D01*
X33488Y14275D01*
X33512Y14273D01*
X33535Y14281D01*
X33551Y14299D01*
X33556Y14323D01*
X32806Y13873D02*
X32801Y13897D01*
X32785Y13915D01*
X32762Y13923D01*
X32738Y13920D01*
X32718Y13907D01*
X32706Y13885D01*
Y13861D01*
X32718Y13839D01*
X32738Y13825D01*
X32762Y13823D01*
X32785Y13831D01*
X32801Y13849D01*
X32806Y13873D01*
X33556D02*
X33551Y13897D01*
X33535Y13915D01*
X33512Y13923D01*
X33488Y13920D01*
X33468Y13907D01*
X33456Y13885D01*
Y13861D01*
X33468Y13839D01*
X33488Y13825D01*
X33512Y13823D01*
X33535Y13831D01*
X33551Y13849D01*
X33556Y13873D01*
X31605D02*
X31599Y13897D01*
X31583Y13915D01*
X31561Y13923D01*
X31536Y13920D01*
X31516Y13907D01*
X31505Y13885D01*
Y13861D01*
X31516Y13839D01*
X31536Y13825D01*
X31561Y13823D01*
X31583Y13831D01*
X31599Y13849D01*
X31605Y13873D01*
X32355D02*
X32349Y13897D01*
X32333Y13915D01*
X32311Y13923D01*
X32286Y13920D01*
X32266Y13907D01*
X32255Y13885D01*
Y13861D01*
X32266Y13839D01*
X32286Y13825D01*
X32311Y13823D01*
X32333Y13831D01*
X32349Y13849D01*
X32355Y13873D01*
X30404D02*
X30398Y13897D01*
X30382Y13915D01*
X30359Y13923D01*
X30335Y13920D01*
X30315Y13907D01*
X30304Y13885D01*
Y13861D01*
X30315Y13839D01*
X30335Y13825D01*
X30359Y13823D01*
X30382Y13831D01*
X30398Y13849D01*
X30404Y13873D01*
X31154D02*
X31148Y13897D01*
X31132Y13915D01*
X31109Y13923D01*
X31085Y13920D01*
X31065Y13907D01*
X31054Y13885D01*
Y13861D01*
X31065Y13839D01*
X31085Y13825D01*
X31109Y13823D01*
X31132Y13831D01*
X31148Y13849D01*
X31154Y13873D01*
X31605Y12922D02*
X31599Y12945D01*
X31583Y12964D01*
X31561Y12972D01*
X31536Y12969D01*
X31516Y12955D01*
X31505Y12934D01*
Y12910D01*
X31516Y12888D01*
X31536Y12874D01*
X31561Y12871D01*
X31583Y12880D01*
X31599Y12898D01*
X31605Y12922D01*
X32355D02*
X32349Y12945D01*
X32333Y12964D01*
X32311Y12972D01*
X32286Y12969D01*
X32266Y12955D01*
X32255Y12934D01*
Y12910D01*
X32266Y12888D01*
X32286Y12874D01*
X32311Y12871D01*
X32333Y12880D01*
X32349Y12898D01*
X32355Y12922D01*
X30404D02*
X30398Y12945D01*
X30382Y12964D01*
X30359Y12972D01*
X30335Y12969D01*
X30315Y12955D01*
X30304Y12934D01*
Y12910D01*
X30315Y12888D01*
X30335Y12874D01*
X30359Y12871D01*
X30382Y12880D01*
X30398Y12898D01*
X30404Y12922D01*
X31154D02*
X31148Y12945D01*
X31132Y12964D01*
X31109Y12972D01*
X31085Y12969D01*
X31065Y12955D01*
X31054Y12934D01*
Y12910D01*
X31065Y12888D01*
X31085Y12874D01*
X31109Y12871D01*
X31132Y12880D01*
X31148Y12898D01*
X31154Y12922D01*
X34754Y25883D02*
X34748Y25907D01*
X34732Y25925D01*
X34709Y25934D01*
X34685Y25931D01*
X34665Y25917D01*
X34654Y25895D01*
Y25871D01*
X34665Y25849D01*
X34685Y25836D01*
X34709Y25833D01*
X34732Y25841D01*
X34748Y25860D01*
X34754Y25883D01*
X19796Y16618D02*
X19790Y16642D01*
X19774Y16660D01*
X19751Y16668D01*
X19727Y16666D01*
X19707Y16652D01*
X19696Y16630D01*
Y16606D01*
X19707Y16584D01*
X19727Y16571D01*
X19751Y16568D01*
X19774Y16576D01*
X19790Y16594D01*
X19796Y16618D01*
X34714Y23590D02*
X34709Y23613D01*
X34693Y23631D01*
X34670Y23640D01*
X34646Y23637D01*
X34626Y23623D01*
X34614Y23602D01*
Y23578D01*
X34626Y23556D01*
X34646Y23542D01*
X34670Y23539D01*
X34693Y23548D01*
X34709Y23566D01*
X34714Y23590D01*
X27729Y23795D02*
X27723Y23819D01*
X27707Y23837D01*
X27685Y23846D01*
X27660Y23843D01*
X27640Y23829D01*
X27629Y23808D01*
Y23783D01*
X27640Y23762D01*
X27660Y23748D01*
X27685Y23745D01*
X27707Y23754D01*
X27723Y23772D01*
X27729Y23795D01*
Y21774D02*
X27723Y21797D01*
X27707Y21816D01*
X27685Y21824D01*
X27660Y21821D01*
X27640Y21807D01*
X27629Y21786D01*
Y21762D01*
X27640Y21740D01*
X27660Y21726D01*
X27685Y21723D01*
X27707Y21732D01*
X27723Y21750D01*
X27729Y21774D01*
Y22448D02*
X27723Y22471D01*
X27707Y22489D01*
X27685Y22498D01*
X27660Y22495D01*
X27640Y22481D01*
X27629Y22460D01*
Y22435D01*
X27640Y22414D01*
X27660Y22400D01*
X27685Y22397D01*
X27707Y22406D01*
X27723Y22424D01*
X27729Y22448D01*
Y23122D02*
X27723Y23145D01*
X27707Y23163D01*
X27685Y23172D01*
X27660Y23169D01*
X27640Y23155D01*
X27629Y23134D01*
Y23109D01*
X27640Y23088D01*
X27660Y23074D01*
X27685Y23071D01*
X27707Y23080D01*
X27723Y23098D01*
X27729Y23122D01*
X18595Y23852D02*
X18589Y23876D01*
X18573Y23894D01*
X18550Y23902D01*
X18526Y23899D01*
X18506Y23886D01*
X18494Y23864D01*
Y23840D01*
X18506Y23818D01*
X18526Y23804D01*
X18550Y23802D01*
X18573Y23810D01*
X18589Y23828D01*
X18595Y23852D01*
X18341Y23598D02*
X18335Y23622D01*
X18319Y23640D01*
X18296Y23648D01*
X18272Y23645D01*
X18252Y23632D01*
X18240Y23610D01*
Y23586D01*
X18252Y23564D01*
X18272Y23550D01*
X18296Y23548D01*
X18319Y23556D01*
X18335Y23574D01*
X18341Y23598D01*
X18595D02*
X18589Y23622D01*
X18573Y23640D01*
X18550Y23648D01*
X18526Y23645D01*
X18506Y23632D01*
X18494Y23610D01*
Y23586D01*
X18506Y23564D01*
X18526Y23550D01*
X18550Y23548D01*
X18573Y23556D01*
X18589Y23574D01*
X18595Y23598D01*
X18341Y23344D02*
X18335Y23368D01*
X18319Y23386D01*
X18296Y23394D01*
X18272Y23391D01*
X18252Y23378D01*
X18240Y23356D01*
Y23332D01*
X18252Y23310D01*
X18272Y23296D01*
X18296Y23294D01*
X18319Y23302D01*
X18335Y23320D01*
X18341Y23344D01*
X18595D02*
X18589Y23368D01*
X18573Y23386D01*
X18550Y23394D01*
X18526Y23391D01*
X18506Y23378D01*
X18494Y23356D01*
Y23332D01*
X18506Y23310D01*
X18526Y23296D01*
X18550Y23294D01*
X18573Y23302D01*
X18589Y23320D01*
X18595Y23344D01*
X18341Y23090D02*
X18335Y23114D01*
X18319Y23132D01*
X18296Y23140D01*
X18272Y23137D01*
X18252Y23124D01*
X18240Y23102D01*
Y23078D01*
X18252Y23056D01*
X18272Y23042D01*
X18296Y23040D01*
X18319Y23048D01*
X18335Y23066D01*
X18341Y23090D01*
X18595D02*
X18589Y23114D01*
X18573Y23132D01*
X18550Y23140D01*
X18526Y23137D01*
X18506Y23124D01*
X18494Y23102D01*
Y23078D01*
X18506Y23056D01*
X18526Y23042D01*
X18550Y23040D01*
X18573Y23048D01*
X18589Y23066D01*
X18595Y23090D01*
X18341Y22836D02*
X18335Y22860D01*
X18319Y22878D01*
X18296Y22886D01*
X18272Y22883D01*
X18252Y22870D01*
X18240Y22848D01*
Y22824D01*
X18252Y22802D01*
X18272Y22788D01*
X18296Y22786D01*
X18319Y22794D01*
X18335Y22812D01*
X18341Y22836D01*
X18595D02*
X18589Y22860D01*
X18573Y22878D01*
X18550Y22886D01*
X18526Y22883D01*
X18506Y22870D01*
X18494Y22848D01*
Y22824D01*
X18506Y22802D01*
X18526Y22788D01*
X18550Y22786D01*
X18573Y22794D01*
X18589Y22812D01*
X18595Y22836D01*
X18341Y22582D02*
X18335Y22606D01*
X18319Y22624D01*
X18296Y22632D01*
X18272Y22629D01*
X18252Y22616D01*
X18240Y22594D01*
Y22570D01*
X18252Y22548D01*
X18272Y22534D01*
X18296Y22532D01*
X18319Y22540D01*
X18335Y22558D01*
X18341Y22582D01*
X18595D02*
X18589Y22606D01*
X18573Y22624D01*
X18550Y22632D01*
X18526Y22629D01*
X18506Y22616D01*
X18494Y22594D01*
Y22570D01*
X18506Y22548D01*
X18526Y22534D01*
X18550Y22532D01*
X18573Y22540D01*
X18589Y22558D01*
X18595Y22582D01*
X18341Y22328D02*
X18335Y22352D01*
X18319Y22370D01*
X18296Y22378D01*
X18272Y22375D01*
X18252Y22362D01*
X18240Y22340D01*
Y22316D01*
X18252Y22294D01*
X18272Y22280D01*
X18296Y22278D01*
X18319Y22286D01*
X18335Y22304D01*
X18341Y22328D01*
X18595D02*
X18589Y22352D01*
X18573Y22370D01*
X18550Y22378D01*
X18526Y22375D01*
X18506Y22362D01*
X18494Y22340D01*
Y22316D01*
X18506Y22294D01*
X18526Y22280D01*
X18550Y22278D01*
X18573Y22286D01*
X18589Y22304D01*
X18595Y22328D01*
X18341Y22074D02*
X18335Y22098D01*
X18319Y22116D01*
X18296Y22124D01*
X18272Y22121D01*
X18252Y22108D01*
X18240Y22086D01*
Y22062D01*
X18252Y22040D01*
X18272Y22026D01*
X18296Y22024D01*
X18319Y22032D01*
X18335Y22050D01*
X18341Y22074D01*
X18341Y21566D02*
X18335Y21590D01*
X18319Y21608D01*
X18296Y21616D01*
X18272Y21613D01*
X18252Y21600D01*
X18240Y21578D01*
Y21554D01*
X18252Y21532D01*
X18272Y21518D01*
X18296Y21516D01*
X18319Y21524D01*
X18335Y21542D01*
X18341Y21566D01*
X18595D02*
X18589Y21590D01*
X18573Y21608D01*
X18550Y21616D01*
X18526Y21613D01*
X18506Y21600D01*
X18494Y21578D01*
Y21554D01*
X18506Y21532D01*
X18526Y21518D01*
X18550Y21516D01*
X18573Y21524D01*
X18589Y21542D01*
X18595Y21566D01*
X18341Y21312D02*
X18335Y21336D01*
X18319Y21354D01*
X18296Y21362D01*
X18272Y21359D01*
X18252Y21346D01*
X18240Y21324D01*
Y21300D01*
X18252Y21278D01*
X18272Y21264D01*
X18296Y21262D01*
X18319Y21270D01*
X18335Y21288D01*
X18341Y21312D01*
X18595D02*
X18589Y21336D01*
X18573Y21354D01*
X18550Y21362D01*
X18526Y21359D01*
X18506Y21346D01*
X18494Y21324D01*
Y21300D01*
X18506Y21278D01*
X18526Y21264D01*
X18550Y21262D01*
X18573Y21270D01*
X18589Y21288D01*
X18595Y21312D01*
X18341Y21058D02*
X18335Y21082D01*
X18319Y21100D01*
X18296Y21108D01*
X18272Y21105D01*
X18252Y21092D01*
X18240Y21070D01*
Y21046D01*
X18252Y21024D01*
X18272Y21010D01*
X18296Y21008D01*
X18319Y21016D01*
X18335Y21034D01*
X18341Y21058D01*
X18595D02*
X18589Y21082D01*
X18573Y21100D01*
X18550Y21108D01*
X18526Y21105D01*
X18506Y21092D01*
X18494Y21070D01*
Y21046D01*
X18506Y21024D01*
X18526Y21010D01*
X18550Y21008D01*
X18573Y21016D01*
X18589Y21034D01*
X18595Y21058D01*
Y20804D02*
X18589Y20828D01*
X18573Y20846D01*
X18550Y20854D01*
X18526Y20851D01*
X18506Y20838D01*
X18494Y20816D01*
Y20792D01*
X18506Y20770D01*
X18526Y20756D01*
X18550Y20754D01*
X18573Y20762D01*
X18589Y20780D01*
X18595Y20804D01*
Y20550D02*
X18589Y20574D01*
X18573Y20592D01*
X18550Y20600D01*
X18526Y20597D01*
X18506Y20584D01*
X18494Y20562D01*
Y20538D01*
X18506Y20516D01*
X18526Y20502D01*
X18550Y20500D01*
X18573Y20508D01*
X18589Y20526D01*
X18595Y20550D01*
Y20296D02*
X18589Y20320D01*
X18573Y20338D01*
X18550Y20346D01*
X18526Y20343D01*
X18506Y20330D01*
X18494Y20308D01*
Y20284D01*
X18506Y20262D01*
X18526Y20248D01*
X18550Y20246D01*
X18573Y20254D01*
X18589Y20272D01*
X18595Y20296D01*
X18341Y20042D02*
X18335Y20066D01*
X18319Y20084D01*
X18296Y20092D01*
X18272Y20089D01*
X18252Y20076D01*
X18240Y20054D01*
Y20030D01*
X18252Y20008D01*
X18272Y19994D01*
X18296Y19992D01*
X18319Y20000D01*
X18335Y20018D01*
X18341Y20042D01*
X18595D02*
X18589Y20066D01*
X18573Y20084D01*
X18550Y20092D01*
X18526Y20089D01*
X18506Y20076D01*
X18494Y20054D01*
Y20030D01*
X18506Y20008D01*
X18526Y19994D01*
X18550Y19992D01*
X18573Y20000D01*
X18589Y20018D01*
X18595Y20042D01*
X18341Y19788D02*
X18335Y19812D01*
X18319Y19830D01*
X18296Y19838D01*
X18272Y19835D01*
X18252Y19822D01*
X18240Y19800D01*
Y19776D01*
X18252Y19754D01*
X18272Y19740D01*
X18296Y19738D01*
X18319Y19746D01*
X18335Y19764D01*
X18341Y19788D01*
X18595D02*
X18589Y19812D01*
X18573Y19830D01*
X18550Y19838D01*
X18526Y19835D01*
X18506Y19822D01*
X18494Y19800D01*
Y19776D01*
X18506Y19754D01*
X18526Y19740D01*
X18550Y19738D01*
X18573Y19746D01*
X18589Y19764D01*
X18595Y19788D01*
X18341Y19534D02*
X18335Y19558D01*
X18319Y19576D01*
X18296Y19584D01*
X18272Y19581D01*
X18252Y19568D01*
X18240Y19546D01*
Y19522D01*
X18252Y19500D01*
X18272Y19486D01*
X18296Y19484D01*
X18319Y19492D01*
X18335Y19510D01*
X18341Y19534D01*
X18595Y19534D02*
X18589Y19558D01*
X18573Y19576D01*
X18550Y19584D01*
X18526Y19581D01*
X18506Y19568D01*
X18494Y19546D01*
Y19522D01*
X18506Y19500D01*
X18526Y19486D01*
X18550Y19484D01*
X18573Y19492D01*
X18589Y19510D01*
X18595Y19534D01*
X18341Y19280D02*
X18335Y19304D01*
X18319Y19322D01*
X18296Y19330D01*
X18272Y19327D01*
X18252Y19314D01*
X18240Y19292D01*
Y19268D01*
X18252Y19246D01*
X18272Y19232D01*
X18296Y19230D01*
X18319Y19238D01*
X18335Y19256D01*
X18341Y19280D01*
X18595D02*
X18589Y19304D01*
X18573Y19322D01*
X18550Y19330D01*
X18526Y19327D01*
X18506Y19314D01*
X18494Y19292D01*
Y19268D01*
X18506Y19246D01*
X18526Y19232D01*
X18550Y19230D01*
X18573Y19238D01*
X18589Y19256D01*
X18595Y19280D01*
X18341Y19026D02*
X18335Y19050D01*
X18319Y19068D01*
X18296Y19076D01*
X18272Y19073D01*
X18252Y19060D01*
X18240Y19038D01*
Y19014D01*
X18252Y18992D01*
X18272Y18978D01*
X18296Y18976D01*
X18319Y18984D01*
X18335Y19002D01*
X18341Y19026D01*
X18595Y18772D02*
X18589Y18796D01*
X18573Y18814D01*
X18550Y18822D01*
X18526Y18819D01*
X18506Y18806D01*
X18494Y18784D01*
Y18760D01*
X18506Y18738D01*
X18526Y18724D01*
X18550Y18722D01*
X18573Y18730D01*
X18589Y18748D01*
X18595Y18772D01*
X18341Y18518D02*
X18335Y18542D01*
X18319Y18560D01*
X18296Y18568D01*
X18272Y18565D01*
X18252Y18552D01*
X18240Y18530D01*
Y18506D01*
X18252Y18484D01*
X18272Y18470D01*
X18296Y18468D01*
X18319Y18476D01*
X18335Y18494D01*
X18341Y18518D01*
X18595D02*
X18589Y18542D01*
X18573Y18560D01*
X18550Y18568D01*
X18526Y18565D01*
X18506Y18552D01*
X18494Y18530D01*
Y18506D01*
X18506Y18484D01*
X18526Y18470D01*
X18550Y18468D01*
X18573Y18476D01*
X18589Y18494D01*
X18595Y18518D01*
X18341Y18264D02*
X18335Y18288D01*
X18319Y18306D01*
X18296Y18314D01*
X18272Y18311D01*
X18252Y18298D01*
X18240Y18276D01*
Y18252D01*
X18252Y18230D01*
X18272Y18216D01*
X18296Y18214D01*
X18319Y18222D01*
X18335Y18240D01*
X18341Y18264D01*
X18595D02*
X18589Y18288D01*
X18573Y18306D01*
X18550Y18314D01*
X18526Y18311D01*
X18506Y18298D01*
X18494Y18276D01*
Y18252D01*
X18506Y18230D01*
X18526Y18216D01*
X18550Y18214D01*
X18573Y18222D01*
X18589Y18240D01*
X18595Y18264D01*
X18341Y18010D02*
X18335Y18034D01*
X18319Y18052D01*
X18296Y18060D01*
X18272Y18057D01*
X18252Y18044D01*
X18240Y18022D01*
Y17998D01*
X18252Y17976D01*
X18272Y17962D01*
X18296Y17960D01*
X18319Y17968D01*
X18335Y17986D01*
X18341Y18010D01*
X18595D02*
X18589Y18034D01*
X18573Y18052D01*
X18550Y18060D01*
X18526Y18057D01*
X18506Y18044D01*
X18494Y18022D01*
Y17998D01*
X18506Y17976D01*
X18526Y17962D01*
X18550Y17960D01*
X18573Y17968D01*
X18589Y17986D01*
X18595Y18010D01*
X18341Y17756D02*
X18335Y17780D01*
X18319Y17798D01*
X18296Y17806D01*
X18272Y17803D01*
X18252Y17790D01*
X18240Y17768D01*
Y17744D01*
X18252Y17722D01*
X18272Y17708D01*
X18296Y17706D01*
X18319Y17714D01*
X18335Y17732D01*
X18341Y17756D01*
X19288Y16618D02*
X19282Y16642D01*
X19266Y16660D01*
X19243Y16668D01*
X19219Y16666D01*
X19199Y16652D01*
X19188Y16630D01*
Y16606D01*
X19199Y16584D01*
X19219Y16571D01*
X19243Y16568D01*
X19266Y16576D01*
X19282Y16594D01*
X19288Y16618D01*
Y16872D02*
X19282Y16896D01*
X19266Y16914D01*
X19243Y16922D01*
X19219Y16920D01*
X19199Y16906D01*
X19188Y16884D01*
Y16860D01*
X19199Y16838D01*
X19219Y16825D01*
X19243Y16822D01*
X19266Y16830D01*
X19282Y16848D01*
X19288Y16872D01*
X24876D02*
X24870Y16896D01*
X24854Y16914D01*
X24831Y16922D01*
X24807Y16920D01*
X24787Y16906D01*
X24776Y16884D01*
Y16860D01*
X24787Y16838D01*
X24807Y16825D01*
X24831Y16822D01*
X24854Y16830D01*
X24870Y16848D01*
X24876Y16872D01*
X25130Y16618D02*
X25124Y16642D01*
X25108Y16660D01*
X25085Y16668D01*
X25061Y16666D01*
X25041Y16652D01*
X25030Y16630D01*
Y16606D01*
X25041Y16584D01*
X25061Y16571D01*
X25085Y16568D01*
X25108Y16576D01*
X25124Y16594D01*
X25130Y16618D01*
X25591Y24802D02*
X25585Y24826D01*
X25569Y24844D01*
X25547Y24853D01*
X25522Y24850D01*
X25502Y24836D01*
X25491Y24814D01*
Y24790D01*
X25502Y24768D01*
X25522Y24755D01*
X25547Y24752D01*
X25569Y24760D01*
X25585Y24778D01*
X25591Y24802D01*
Y24548D02*
X25585Y24572D01*
X25569Y24590D01*
X25547Y24599D01*
X25522Y24596D01*
X25502Y24582D01*
X25491Y24560D01*
Y24536D01*
X25502Y24514D01*
X25522Y24501D01*
X25547Y24498D01*
X25569Y24506D01*
X25585Y24524D01*
X25591Y24548D01*
X25337Y24802D02*
X25331Y24826D01*
X25315Y24844D01*
X25293Y24853D01*
X25268Y24850D01*
X25248Y24836D01*
X25237Y24814D01*
Y24790D01*
X25248Y24768D01*
X25268Y24755D01*
X25293Y24752D01*
X25315Y24760D01*
X25331Y24778D01*
X25337Y24802D01*
Y24548D02*
X25331Y24572D01*
X25315Y24590D01*
X25293Y24599D01*
X25268Y24596D01*
X25248Y24582D01*
X25237Y24560D01*
Y24536D01*
X25248Y24514D01*
X25268Y24501D01*
X25293Y24498D01*
X25315Y24506D01*
X25331Y24524D01*
X25337Y24548D01*
X25083Y24802D02*
X25077Y24826D01*
X25061Y24844D01*
X25039Y24853D01*
X25014Y24850D01*
X24994Y24836D01*
X24983Y24814D01*
Y24790D01*
X24994Y24768D01*
X25014Y24755D01*
X25039Y24752D01*
X25061Y24760D01*
X25077Y24778D01*
X25083Y24802D01*
X24321Y24548D02*
X24315Y24572D01*
X24299Y24590D01*
X24277Y24599D01*
X24252Y24596D01*
X24232Y24582D01*
X24221Y24560D01*
Y24536D01*
X24232Y24514D01*
X24252Y24501D01*
X24277Y24498D01*
X24299Y24506D01*
X24315Y24524D01*
X24321Y24548D01*
X24067Y24802D02*
X24061Y24826D01*
X24045Y24844D01*
X24023Y24853D01*
X23998Y24850D01*
X23978Y24836D01*
X23967Y24814D01*
Y24790D01*
X23978Y24768D01*
X23998Y24755D01*
X24023Y24752D01*
X24045Y24760D01*
X24061Y24778D01*
X24067Y24802D01*
X23813Y24548D02*
X23807Y24572D01*
X23791Y24590D01*
X23769Y24599D01*
X23744Y24596D01*
X23724Y24582D01*
X23713Y24560D01*
Y24536D01*
X23724Y24514D01*
X23744Y24501D01*
X23769Y24498D01*
X23791Y24506D01*
X23807Y24524D01*
X23813Y24548D01*
X23559Y24802D02*
X23553Y24826D01*
X23537Y24844D01*
X23515Y24853D01*
X23490Y24850D01*
X23470Y24836D01*
X23459Y24814D01*
Y24790D01*
X23470Y24768D01*
X23490Y24755D01*
X23515Y24752D01*
X23537Y24760D01*
X23553Y24778D01*
X23559Y24802D01*
X21781Y24548D02*
X21775Y24572D01*
X21759Y24590D01*
X21737Y24599D01*
X21712Y24596D01*
X21692Y24582D01*
X21681Y24560D01*
Y24536D01*
X21692Y24514D01*
X21712Y24501D01*
X21737Y24498D01*
X21759Y24506D01*
X21775Y24524D01*
X21781Y24548D01*
X21527Y24802D02*
X21521Y24826D01*
X21505Y24844D01*
X21483Y24853D01*
X21458Y24850D01*
X21438Y24836D01*
X21427Y24814D01*
Y24790D01*
X21438Y24768D01*
X21458Y24755D01*
X21483Y24752D01*
X21505Y24760D01*
X21521Y24778D01*
X21527Y24802D01*
Y24548D02*
X21521Y24572D01*
X21505Y24590D01*
X21483Y24599D01*
X21458Y24596D01*
X21438Y24582D01*
X21427Y24560D01*
Y24536D01*
X21438Y24514D01*
X21458Y24501D01*
X21483Y24498D01*
X21505Y24506D01*
X21521Y24524D01*
X21527Y24548D01*
X20765D02*
X20759Y24572D01*
X20743Y24590D01*
X20721Y24599D01*
X20696Y24596D01*
X20676Y24582D01*
X20665Y24560D01*
Y24536D01*
X20676Y24514D01*
X20696Y24501D01*
X20721Y24498D01*
X20743Y24506D01*
X20759Y24524D01*
X20765Y24548D01*
X20511Y24802D02*
X20505Y24826D01*
X20489Y24844D01*
X20467Y24853D01*
X20442Y24850D01*
X20422Y24836D01*
X20411Y24814D01*
Y24790D01*
X20422Y24768D01*
X20442Y24755D01*
X20467Y24752D01*
X20489Y24760D01*
X20505Y24778D01*
X20511Y24802D01*
Y24548D02*
X20505Y24572D01*
X20489Y24590D01*
X20467Y24599D01*
X20442Y24596D01*
X20422Y24582D01*
X20411Y24560D01*
Y24536D01*
X20422Y24514D01*
X20442Y24501D01*
X20467Y24498D01*
X20489Y24506D01*
X20505Y24524D01*
X20511Y24548D01*
X20257Y24802D02*
X20251Y24826D01*
X20235Y24844D01*
X20213Y24853D01*
X20188Y24850D01*
X20168Y24836D01*
X20157Y24814D01*
Y24790D01*
X20168Y24768D01*
X20188Y24755D01*
X20213Y24752D01*
X20235Y24760D01*
X20251Y24778D01*
X20257Y24802D01*
X20003D02*
X19997Y24826D01*
X19981Y24844D01*
X19959Y24853D01*
X19934Y24850D01*
X19914Y24836D01*
X19903Y24814D01*
Y24790D01*
X19914Y24768D01*
X19934Y24755D01*
X19959Y24752D01*
X19981Y24760D01*
X19997Y24778D01*
X20003Y24802D01*
Y24548D02*
X19997Y24572D01*
X19981Y24590D01*
X19959Y24599D01*
X19934Y24596D01*
X19914Y24582D01*
X19903Y24560D01*
Y24536D01*
X19914Y24514D01*
X19934Y24501D01*
X19959Y24498D01*
X19981Y24506D01*
X19997Y24524D01*
X20003Y24548D01*
X19749Y24802D02*
X19743Y24826D01*
X19727Y24844D01*
X19705Y24853D01*
X19680Y24850D01*
X19660Y24836D01*
X19649Y24814D01*
Y24790D01*
X19660Y24768D01*
X19680Y24755D01*
X19705Y24752D01*
X19727Y24760D01*
X19743Y24778D01*
X19749Y24802D01*
Y24548D02*
X19743Y24572D01*
X19727Y24590D01*
X19705Y24599D01*
X19680Y24596D01*
X19660Y24582D01*
X19649Y24560D01*
Y24536D01*
X19660Y24514D01*
X19680Y24501D01*
X19705Y24498D01*
X19727Y24506D01*
X19743Y24524D01*
X19749Y24548D01*
X19495Y24802D02*
X19489Y24826D01*
X19473Y24844D01*
X19451Y24853D01*
X19426Y24850D01*
X19406Y24836D01*
X19395Y24814D01*
Y24790D01*
X19406Y24768D01*
X19426Y24755D01*
X19451Y24752D01*
X19473Y24760D01*
X19489Y24778D01*
X19495Y24802D01*
X23559Y24548D02*
X23553Y24572D01*
X23537Y24590D01*
X23515Y24599D01*
X23490Y24596D01*
X23470Y24582D01*
X23459Y24560D01*
Y24536D01*
X23470Y24514D01*
X23490Y24501D01*
X23515Y24498D01*
X23537Y24506D01*
X23553Y24524D01*
X23559Y24548D01*
X23305Y24548D02*
X23299Y24572D01*
X23283Y24590D01*
X23261Y24599D01*
X23236Y24596D01*
X23216Y24582D01*
X23205Y24560D01*
Y24536D01*
X23216Y24514D01*
X23236Y24501D01*
X23261Y24498D01*
X23283Y24506D01*
X23299Y24524D01*
X23305Y24548D01*
X19542Y16618D02*
X19536Y16642D01*
X19520Y16660D01*
X19497Y16668D01*
X19473Y16666D01*
X19453Y16652D01*
X19442Y16630D01*
Y16606D01*
X19453Y16584D01*
X19473Y16571D01*
X19497Y16568D01*
X19520Y16576D01*
X19536Y16594D01*
X19542Y16618D01*
X19495Y24548D02*
X19489Y24572D01*
X19473Y24590D01*
X19451Y24599D01*
X19426Y24596D01*
X19406Y24582D01*
X19395Y24560D01*
Y24536D01*
X19406Y24514D01*
X19426Y24501D01*
X19451Y24498D01*
X19473Y24506D01*
X19489Y24524D01*
X19495Y24548D01*
X24575Y24548D02*
X24569Y24572D01*
X24553Y24590D01*
X24531Y24599D01*
X24506Y24596D01*
X24486Y24582D01*
X24475Y24560D01*
Y24536D01*
X24486Y24514D01*
X24506Y24501D01*
X24531Y24498D01*
X24553Y24506D01*
X24569Y24524D01*
X24575Y24548D01*
X24321Y24802D02*
X24315Y24826D01*
X24299Y24844D01*
X24277Y24853D01*
X24252Y24850D01*
X24232Y24836D01*
X24221Y24814D01*
Y24790D01*
X24232Y24768D01*
X24252Y24755D01*
X24277Y24752D01*
X24299Y24760D01*
X24315Y24778D01*
X24321Y24802D01*
X23051Y24802D02*
X23045Y24826D01*
X23029Y24844D01*
X23007Y24853D01*
X22982Y24850D01*
X22962Y24836D01*
X22951Y24814D01*
Y24790D01*
X22962Y24768D01*
X22982Y24755D01*
X23007Y24752D01*
X23029Y24760D01*
X23045Y24778D01*
X23051Y24802D01*
X22797D02*
X22791Y24826D01*
X22775Y24844D01*
X22753Y24853D01*
X22728Y24850D01*
X22708Y24836D01*
X22697Y24814D01*
Y24790D01*
X22708Y24768D01*
X22728Y24755D01*
X22753Y24752D01*
X22775Y24760D01*
X22791Y24778D01*
X22797Y24802D01*
Y24548D02*
X22791Y24572D01*
X22775Y24590D01*
X22753Y24599D01*
X22728Y24596D01*
X22708Y24582D01*
X22697Y24560D01*
Y24536D01*
X22708Y24514D01*
X22728Y24501D01*
X22753Y24498D01*
X22775Y24506D01*
X22791Y24524D01*
X22797Y24548D01*
X22543Y24802D02*
X22537Y24826D01*
X22521Y24844D01*
X22499Y24853D01*
X22474Y24850D01*
X22454Y24836D01*
X22443Y24814D01*
Y24790D01*
X22454Y24768D01*
X22474Y24755D01*
X22499Y24752D01*
X22521Y24760D01*
X22537Y24778D01*
X22543Y24802D01*
Y24548D02*
X22537Y24572D01*
X22521Y24590D01*
X22499Y24599D01*
X22474Y24596D01*
X22454Y24582D01*
X22443Y24560D01*
Y24536D01*
X22454Y24514D01*
X22474Y24501D01*
X22499Y24498D01*
X22521Y24506D01*
X22537Y24524D01*
X22543Y24548D01*
X22289Y24802D02*
X22283Y24826D01*
X22267Y24844D01*
X22245Y24853D01*
X22220Y24850D01*
X22200Y24836D01*
X22189Y24814D01*
Y24790D01*
X22200Y24768D01*
X22220Y24755D01*
X22245Y24752D01*
X22267Y24760D01*
X22283Y24778D01*
X22289Y24802D01*
Y24548D02*
X22283Y24572D01*
X22267Y24590D01*
X22245Y24599D01*
X22220Y24596D01*
X22200Y24582D01*
X22189Y24560D01*
Y24536D01*
X22200Y24514D01*
X22220Y24501D01*
X22245Y24498D01*
X22267Y24506D01*
X22283Y24524D01*
X22289Y24548D01*
X22035Y24802D02*
X22029Y24826D01*
X22013Y24844D01*
X21991Y24853D01*
X21966Y24850D01*
X21946Y24836D01*
X21935Y24814D01*
Y24790D01*
X21946Y24768D01*
X21966Y24755D01*
X21991Y24752D01*
X22013Y24760D01*
X22029Y24778D01*
X22035Y24802D01*
X19796Y16872D02*
X19790Y16896D01*
X19774Y16914D01*
X19751Y16922D01*
X19727Y16920D01*
X19707Y16906D01*
X19696Y16884D01*
Y16860D01*
X19707Y16838D01*
X19727Y16825D01*
X19751Y16822D01*
X19774Y16830D01*
X19790Y16848D01*
X19796Y16872D01*
X20050Y16618D02*
X20044Y16642D01*
X20028Y16660D01*
X20005Y16668D01*
X19981Y16666D01*
X19961Y16652D01*
X19950Y16630D01*
Y16606D01*
X19961Y16584D01*
X19981Y16571D01*
X20005Y16568D01*
X20028Y16576D01*
X20044Y16594D01*
X20050Y16618D01*
Y16872D02*
X20044Y16896D01*
X20028Y16914D01*
X20005Y16922D01*
X19981Y16920D01*
X19961Y16906D01*
X19950Y16884D01*
Y16860D01*
X19961Y16838D01*
X19981Y16825D01*
X20005Y16822D01*
X20028Y16830D01*
X20044Y16848D01*
X20050Y16872D01*
X20304Y16618D02*
X20298Y16642D01*
X20282Y16660D01*
X20259Y16668D01*
X20235Y16666D01*
X20215Y16652D01*
X20204Y16630D01*
Y16606D01*
X20215Y16584D01*
X20235Y16571D01*
X20259Y16568D01*
X20282Y16576D01*
X20298Y16594D01*
X20304Y16618D01*
X20558D02*
X20552Y16642D01*
X20536Y16660D01*
X20513Y16668D01*
X20489Y16666D01*
X20469Y16652D01*
X20458Y16630D01*
Y16606D01*
X20469Y16584D01*
X20489Y16571D01*
X20513Y16568D01*
X20536Y16576D01*
X20552Y16594D01*
X20558Y16618D01*
Y16872D02*
X20552Y16896D01*
X20536Y16914D01*
X20513Y16922D01*
X20489Y16920D01*
X20469Y16906D01*
X20458Y16884D01*
Y16860D01*
X20469Y16838D01*
X20489Y16825D01*
X20513Y16822D01*
X20536Y16830D01*
X20552Y16848D01*
X20558Y16872D01*
X20812D02*
X20806Y16896D01*
X20790Y16914D01*
X20767Y16922D01*
X20743Y16920D01*
X20723Y16906D01*
X20712Y16884D01*
Y16860D01*
X20723Y16838D01*
X20743Y16825D01*
X20767Y16822D01*
X20790Y16830D01*
X20806Y16848D01*
X20812Y16872D01*
X21066Y16618D02*
X21060Y16642D01*
X21044Y16660D01*
X21021Y16668D01*
X20997Y16666D01*
X20977Y16652D01*
X20966Y16630D01*
Y16606D01*
X20977Y16584D01*
X20997Y16571D01*
X21021Y16568D01*
X21044Y16576D01*
X21060Y16594D01*
X21066Y16618D01*
Y16872D02*
X21060Y16896D01*
X21044Y16914D01*
X21021Y16922D01*
X20997Y16920D01*
X20977Y16906D01*
X20966Y16884D01*
Y16860D01*
X20977Y16838D01*
X20997Y16825D01*
X21021Y16822D01*
X21044Y16830D01*
X21060Y16848D01*
X21066Y16872D01*
X21320Y16618D02*
X21314Y16642D01*
X21298Y16660D01*
X21275Y16668D01*
X21251Y16666D01*
X21231Y16652D01*
X21220Y16630D01*
Y16606D01*
X21231Y16584D01*
X21251Y16571D01*
X21275Y16568D01*
X21298Y16576D01*
X21314Y16594D01*
X21320Y16618D01*
Y16872D02*
X21314Y16896D01*
X21298Y16914D01*
X21275Y16922D01*
X21251Y16920D01*
X21231Y16906D01*
X21220Y16884D01*
Y16860D01*
X21231Y16838D01*
X21251Y16825D01*
X21275Y16822D01*
X21298Y16830D01*
X21314Y16848D01*
X21320Y16872D01*
X21828Y16618D02*
X21822Y16642D01*
X21806Y16660D01*
X21783Y16668D01*
X21759Y16666D01*
X21739Y16652D01*
X21728Y16630D01*
Y16606D01*
X21739Y16584D01*
X21759Y16571D01*
X21783Y16568D01*
X21806Y16576D01*
X21822Y16594D01*
X21828Y16618D01*
Y16872D02*
X21822Y16896D01*
X21806Y16914D01*
X21783Y16922D01*
X21759Y16920D01*
X21739Y16906D01*
X21728Y16884D01*
Y16860D01*
X21739Y16838D01*
X21759Y16825D01*
X21783Y16822D01*
X21806Y16830D01*
X21822Y16848D01*
X21828Y16872D01*
X22082Y16618D02*
X22076Y16642D01*
X22060Y16660D01*
X22037Y16668D01*
X22013Y16666D01*
X21993Y16652D01*
X21982Y16630D01*
Y16606D01*
X21993Y16584D01*
X22013Y16571D01*
X22037Y16568D01*
X22060Y16576D01*
X22076Y16594D01*
X22082Y16618D01*
Y16872D02*
X22076Y16896D01*
X22060Y16914D01*
X22037Y16922D01*
X22013Y16920D01*
X21993Y16906D01*
X21982Y16884D01*
Y16860D01*
X21993Y16838D01*
X22013Y16825D01*
X22037Y16822D01*
X22060Y16830D01*
X22076Y16848D01*
X22082Y16872D01*
X22336Y16618D02*
X22330Y16642D01*
X22314Y16660D01*
X22291Y16668D01*
X22267Y16666D01*
X22247Y16652D01*
X22236Y16630D01*
Y16606D01*
X22247Y16584D01*
X22267Y16571D01*
X22291Y16568D01*
X22314Y16576D01*
X22330Y16594D01*
X22336Y16618D01*
X23305Y24802D02*
X23299Y24826D01*
X23283Y24844D01*
X23261Y24853D01*
X23236Y24850D01*
X23216Y24836D01*
X23205Y24814D01*
Y24790D01*
X23216Y24768D01*
X23236Y24755D01*
X23261Y24752D01*
X23283Y24760D01*
X23299Y24778D01*
X23305Y24802D01*
X24575Y24802D02*
X24569Y24826D01*
X24553Y24844D01*
X24531Y24853D01*
X24506Y24850D01*
X24486Y24836D01*
X24475Y24814D01*
Y24790D01*
X24486Y24768D01*
X24506Y24755D01*
X24531Y24752D01*
X24553Y24760D01*
X24569Y24778D01*
X24575Y24802D01*
X24829Y24548D02*
X24823Y24572D01*
X24807Y24590D01*
X24785Y24599D01*
X24760Y24596D01*
X24740Y24582D01*
X24729Y24560D01*
Y24536D01*
X24740Y24514D01*
X24760Y24501D01*
X24785Y24498D01*
X24807Y24506D01*
X24823Y24524D01*
X24829Y24548D01*
Y24802D02*
X24823Y24826D01*
X24807Y24844D01*
X24785Y24853D01*
X24760Y24850D01*
X24740Y24836D01*
X24729Y24814D01*
Y24790D01*
X24740Y24768D01*
X24760Y24755D01*
X24785Y24752D01*
X24807Y24760D01*
X24823Y24778D01*
X24829Y24802D01*
X19542Y16872D02*
X19536Y16896D01*
X19520Y16914D01*
X19497Y16922D01*
X19473Y16920D01*
X19453Y16906D01*
X19442Y16884D01*
Y16860D01*
X19453Y16838D01*
X19473Y16825D01*
X19497Y16822D01*
X19520Y16830D01*
X19536Y16848D01*
X19542Y16872D01*
X21273Y24548D02*
X21267Y24572D01*
X21251Y24590D01*
X21229Y24599D01*
X21204Y24596D01*
X21184Y24582D01*
X21173Y24560D01*
Y24536D01*
X21184Y24514D01*
X21204Y24501D01*
X21229Y24498D01*
X21251Y24506D01*
X21267Y24524D01*
X21273Y24548D01*
Y24802D02*
X21267Y24826D01*
X21251Y24844D01*
X21229Y24853D01*
X21204Y24850D01*
X21184Y24836D01*
X21173Y24814D01*
Y24790D01*
X21184Y24768D01*
X21204Y24755D01*
X21229Y24752D01*
X21251Y24760D01*
X21267Y24778D01*
X21273Y24802D01*
X22336Y16872D02*
X22330Y16896D01*
X22314Y16914D01*
X22291Y16922D01*
X22267Y16920D01*
X22247Y16906D01*
X22236Y16884D01*
Y16860D01*
X22247Y16838D01*
X22267Y16825D01*
X22291Y16822D01*
X22314Y16830D01*
X22330Y16848D01*
X22336Y16872D01*
X22590Y16618D02*
X22584Y16642D01*
X22568Y16660D01*
X22545Y16668D01*
X22521Y16666D01*
X22501Y16652D01*
X22490Y16630D01*
Y16606D01*
X22501Y16584D01*
X22521Y16571D01*
X22545Y16568D01*
X22568Y16576D01*
X22584Y16594D01*
X22590Y16618D01*
Y16872D02*
X22584Y16896D01*
X22568Y16914D01*
X22545Y16922D01*
X22521Y16920D01*
X22501Y16906D01*
X22490Y16884D01*
Y16860D01*
X22501Y16838D01*
X22521Y16825D01*
X22545Y16822D01*
X22568Y16830D01*
X22584Y16848D01*
X22590Y16872D01*
X22844D02*
X22838Y16896D01*
X22822Y16914D01*
X22799Y16922D01*
X22775Y16920D01*
X22755Y16906D01*
X22744Y16884D01*
Y16860D01*
X22755Y16838D01*
X22775Y16825D01*
X22799Y16822D01*
X22822Y16830D01*
X22838Y16848D01*
X22844Y16872D01*
X23098Y16618D02*
X23092Y16642D01*
X23076Y16660D01*
X23053Y16668D01*
X23029Y16666D01*
X23009Y16652D01*
X22998Y16630D01*
Y16606D01*
X23009Y16584D01*
X23029Y16571D01*
X23053Y16568D01*
X23076Y16576D01*
X23092Y16594D01*
X23098Y16618D01*
Y16872D02*
X23092Y16896D01*
X23076Y16914D01*
X23053Y16922D01*
X23029Y16920D01*
X23009Y16906D01*
X22998Y16884D01*
Y16860D01*
X23009Y16838D01*
X23029Y16825D01*
X23053Y16822D01*
X23076Y16830D01*
X23092Y16848D01*
X23098Y16872D01*
X23352Y16618D02*
X23346Y16642D01*
X23330Y16660D01*
X23307Y16668D01*
X23283Y16666D01*
X23263Y16652D01*
X23252Y16630D01*
Y16606D01*
X23263Y16584D01*
X23283Y16571D01*
X23307Y16568D01*
X23330Y16576D01*
X23346Y16594D01*
X23352Y16618D01*
Y16872D02*
X23346Y16896D01*
X23330Y16914D01*
X23307Y16922D01*
X23283Y16920D01*
X23263Y16906D01*
X23252Y16884D01*
Y16860D01*
X23263Y16838D01*
X23283Y16825D01*
X23307Y16822D01*
X23330Y16830D01*
X23346Y16848D01*
X23352Y16872D01*
X23606Y16618D02*
X23600Y16642D01*
X23584Y16660D01*
X23561Y16668D01*
X23537Y16666D01*
X23517Y16652D01*
X23506Y16630D01*
Y16606D01*
X23517Y16584D01*
X23537Y16571D01*
X23561Y16568D01*
X23584Y16576D01*
X23600Y16594D01*
X23606Y16618D01*
X23860Y16872D02*
X23854Y16896D01*
X23838Y16914D01*
X23815Y16922D01*
X23791Y16920D01*
X23771Y16906D01*
X23760Y16884D01*
Y16860D01*
X23771Y16838D01*
X23791Y16825D01*
X23815Y16822D01*
X23838Y16830D01*
X23854Y16848D01*
X23860Y16872D01*
X24114Y16618D02*
X24108Y16642D01*
X24092Y16660D01*
X24069Y16668D01*
X24045Y16666D01*
X24025Y16652D01*
X24014Y16630D01*
Y16606D01*
X24025Y16584D01*
X24045Y16571D01*
X24069Y16568D01*
X24092Y16576D01*
X24108Y16594D01*
X24114Y16618D01*
Y16872D02*
X24108Y16896D01*
X24092Y16914D01*
X24069Y16922D01*
X24045Y16920D01*
X24025Y16906D01*
X24014Y16884D01*
Y16860D01*
X24025Y16838D01*
X24045Y16825D01*
X24069Y16822D01*
X24092Y16830D01*
X24108Y16848D01*
X24114Y16872D01*
X24368Y16618D02*
X24362Y16642D01*
X24346Y16660D01*
X24323Y16668D01*
X24299Y16666D01*
X24279Y16652D01*
X24268Y16630D01*
Y16606D01*
X24279Y16584D01*
X24299Y16571D01*
X24323Y16568D01*
X24346Y16576D01*
X24362Y16594D01*
X24368Y16618D01*
Y16872D02*
X24362Y16896D01*
X24346Y16914D01*
X24323Y16922D01*
X24299Y16920D01*
X24279Y16906D01*
X24268Y16884D01*
Y16860D01*
X24279Y16838D01*
X24299Y16825D01*
X24323Y16822D01*
X24346Y16830D01*
X24362Y16848D01*
X24368Y16872D01*
X24622Y16618D02*
X24616Y16642D01*
X24600Y16660D01*
X24577Y16668D01*
X24553Y16666D01*
X24533Y16652D01*
X24522Y16630D01*
Y16606D01*
X24533Y16584D01*
X24553Y16571D01*
X24577Y16568D01*
X24600Y16576D01*
X24616Y16594D01*
X24622Y16618D01*
Y16872D02*
X24616Y16896D01*
X24600Y16914D01*
X24577Y16922D01*
X24553Y16920D01*
X24533Y16906D01*
X24522Y16884D01*
Y16860D01*
X24533Y16838D01*
X24553Y16825D01*
X24577Y16822D01*
X24600Y16830D01*
X24616Y16848D01*
X24622Y16872D01*
X25384Y16618D02*
X25378Y16642D01*
X25362Y16660D01*
X25339Y16668D01*
X25315Y16666D01*
X25295Y16652D01*
X25284Y16630D01*
Y16606D01*
X25295Y16584D01*
X25315Y16571D01*
X25339Y16568D01*
X25362Y16576D01*
X25378Y16594D01*
X25384Y16618D01*
X33151Y24998D02*
X33145Y25022D01*
X33129Y25040D01*
X33106Y25049D01*
X33082Y25046D01*
X33062Y25032D01*
X33051Y25011D01*
Y24986D01*
X33062Y24965D01*
X33082Y24951D01*
X33106Y24948D01*
X33129Y24957D01*
X33145Y24975D01*
X33151Y24998D01*
X35008Y25629D02*
X35002Y25653D01*
X34986Y25671D01*
X34963Y25680D01*
X34939Y25677D01*
X34919Y25663D01*
X34908Y25641D01*
Y25617D01*
X34919Y25595D01*
X34939Y25582D01*
X34963Y25579D01*
X34986Y25587D01*
X35002Y25606D01*
X35008Y25629D01*
X33151Y25252D02*
X33145Y25276D01*
X33129Y25294D01*
X33106Y25303D01*
X33082Y25300D01*
X33062Y25286D01*
X33051Y25265D01*
Y25240D01*
X33062Y25219D01*
X33082Y25205D01*
X33106Y25202D01*
X33129Y25211D01*
X33145Y25229D01*
X33151Y25252D01*
Y24744D02*
X33145Y24768D01*
X33129Y24786D01*
X33106Y24795D01*
X33082Y24792D01*
X33062Y24778D01*
X33051Y24757D01*
Y24732D01*
X33062Y24711D01*
X33082Y24697D01*
X33106Y24694D01*
X33129Y24703D01*
X33145Y24721D01*
X33151Y24744D01*
X25384Y16872D02*
X25378Y16896D01*
X25362Y16914D01*
X25339Y16922D01*
X25315Y16920D01*
X25295Y16906D01*
X25284Y16884D01*
Y16860D01*
X25295Y16838D01*
X25315Y16825D01*
X25339Y16822D01*
X25362Y16830D01*
X25378Y16848D01*
X25384Y16872D01*
X33151Y26788D02*
X33145Y26812D01*
X33129Y26830D01*
X33106Y26838D01*
X33082Y26835D01*
X33062Y26822D01*
X33051Y26800D01*
Y26776D01*
X33062Y26754D01*
X33082Y26740D01*
X33106Y26738D01*
X33129Y26746D01*
X33145Y26764D01*
X33151Y26788D01*
X35008Y26645D02*
X35002Y26669D01*
X34986Y26687D01*
X34963Y26696D01*
X34939Y26693D01*
X34919Y26679D01*
X34908Y26657D01*
Y26633D01*
X34919Y26611D01*
X34939Y26598D01*
X34963Y26595D01*
X34986Y26603D01*
X35002Y26622D01*
X35008Y26645D01*
X33151Y27042D02*
X33145Y27066D01*
X33129Y27084D01*
X33106Y27092D01*
X33082Y27089D01*
X33062Y27076D01*
X33051Y27054D01*
Y27030D01*
X33062Y27008D01*
X33082Y26994D01*
X33106Y26992D01*
X33129Y27000D01*
X33145Y27018D01*
X33151Y27042D01*
Y26534D02*
X33145Y26558D01*
X33129Y26576D01*
X33106Y26584D01*
X33082Y26581D01*
X33062Y26568D01*
X33051Y26546D01*
Y26522D01*
X33062Y26500D01*
X33082Y26486D01*
X33106Y26484D01*
X33129Y26492D01*
X33145Y26510D01*
X33151Y26534D01*
X35008Y25883D02*
X35002Y25907D01*
X34986Y25925D01*
X34963Y25934D01*
X34939Y25931D01*
X34919Y25917D01*
X34908Y25895D01*
Y25871D01*
X34919Y25849D01*
X34939Y25836D01*
X34963Y25833D01*
X34986Y25841D01*
X35002Y25860D01*
X35008Y25883D01*
X25638Y16618D02*
X25632Y16642D01*
X25616Y16660D01*
X25593Y16668D01*
X25569Y16666D01*
X25549Y16652D01*
X25538Y16630D01*
Y16606D01*
X25549Y16584D01*
X25569Y16571D01*
X25593Y16568D01*
X25616Y16576D01*
X25632Y16594D01*
X25638Y16618D01*
X33151Y25893D02*
X33145Y25917D01*
X33129Y25935D01*
X33106Y25944D01*
X33082Y25941D01*
X33062Y25927D01*
X33051Y25905D01*
Y25881D01*
X33062Y25859D01*
X33082Y25846D01*
X33106Y25843D01*
X33129Y25851D01*
X33145Y25870D01*
X33151Y25893D01*
X35008Y26137D02*
X35002Y26161D01*
X34986Y26179D01*
X34963Y26188D01*
X34939Y26185D01*
X34919Y26171D01*
X34908Y26149D01*
Y26125D01*
X34919Y26103D01*
X34939Y26090D01*
X34963Y26087D01*
X34986Y26095D01*
X35002Y26114D01*
X35008Y26137D01*
X33151Y26147D02*
X33145Y26171D01*
X33129Y26189D01*
X33106Y26198D01*
X33082Y26195D01*
X33062Y26181D01*
X33051Y26159D01*
Y26135D01*
X33062Y26113D01*
X33082Y26100D01*
X33106Y26097D01*
X33129Y26105D01*
X33145Y26124D01*
X33151Y26147D01*
Y25639D02*
X33145Y25663D01*
X33129Y25681D01*
X33106Y25690D01*
X33082Y25687D01*
X33062Y25673D01*
X33051Y25651D01*
Y25627D01*
X33062Y25605D01*
X33082Y25592D01*
X33106Y25589D01*
X33129Y25597D01*
X33145Y25616D01*
X33151Y25639D01*
X34754Y26391D02*
X34748Y26415D01*
X34732Y26433D01*
X34709Y26442D01*
X34685Y26439D01*
X34665Y26425D01*
X34654Y26403D01*
Y26379D01*
X34665Y26357D01*
X34685Y26344D01*
X34709Y26341D01*
X34732Y26349D01*
X34748Y26368D01*
X34754Y26391D01*
X21019Y24548D02*
X21013Y24572D01*
X20997Y24590D01*
X20975Y24599D01*
X20950Y24596D01*
X20930Y24582D01*
X20919Y24560D01*
Y24536D01*
X20930Y24514D01*
X20950Y24501D01*
X20975Y24498D01*
X20997Y24506D01*
X21013Y24524D01*
X21019Y24548D01*
Y24802D02*
X21013Y24826D01*
X20997Y24844D01*
X20975Y24853D01*
X20950Y24850D01*
X20930Y24836D01*
X20919Y24814D01*
Y24790D01*
X20930Y24768D01*
X20950Y24755D01*
X20975Y24752D01*
X20997Y24760D01*
X21013Y24778D01*
X21019Y24802D01*
X34968Y23590D02*
X34963Y23613D01*
X34947Y23631D01*
X34924Y23640D01*
X34900Y23637D01*
X34880Y23623D01*
X34868Y23602D01*
Y23578D01*
X34880Y23556D01*
X34900Y23542D01*
X34924Y23539D01*
X34947Y23548D01*
X34963Y23566D01*
X34968Y23590D01*
X27475Y23795D02*
X27469Y23819D01*
X27453Y23837D01*
X27431Y23846D01*
X27406Y23843D01*
X27386Y23829D01*
X27375Y23808D01*
Y23783D01*
X27386Y23762D01*
X27406Y23748D01*
X27431Y23745D01*
X27453Y23754D01*
X27469Y23772D01*
X27475Y23795D01*
Y21774D02*
X27469Y21797D01*
X27453Y21816D01*
X27431Y21824D01*
X27406Y21821D01*
X27386Y21807D01*
X27375Y21786D01*
Y21762D01*
X27386Y21740D01*
X27406Y21726D01*
X27431Y21723D01*
X27453Y21732D01*
X27469Y21750D01*
X27475Y21774D01*
Y22448D02*
X27469Y22471D01*
X27453Y22489D01*
X27431Y22498D01*
X27406Y22495D01*
X27386Y22481D01*
X27375Y22460D01*
Y22435D01*
X27386Y22414D01*
X27406Y22400D01*
X27431Y22397D01*
X27453Y22406D01*
X27469Y22424D01*
X27475Y22448D01*
Y23122D02*
X27469Y23145D01*
X27453Y23163D01*
X27431Y23172D01*
X27406Y23169D01*
X27386Y23155D01*
X27375Y23134D01*
Y23109D01*
X27386Y23088D01*
X27406Y23074D01*
X27431Y23071D01*
X27453Y23080D01*
X27469Y23098D01*
X27475Y23122D01*
X24067Y24548D02*
X24061Y24572D01*
X24045Y24590D01*
X24023Y24599D01*
X23998Y24596D01*
X23978Y24582D01*
X23967Y24560D01*
Y24536D01*
X23978Y24514D01*
X23998Y24501D01*
X24023Y24498D01*
X24045Y24506D01*
X24061Y24524D01*
X24067Y24548D01*
X22035D02*
X22029Y24572D01*
X22013Y24590D01*
X21991Y24599D01*
X21966Y24596D01*
X21946Y24582D01*
X21935Y24560D01*
Y24536D01*
X21946Y24514D01*
X21966Y24501D01*
X21991Y24498D01*
X22013Y24506D01*
X22029Y24524D01*
X22035Y24548D01*
X20257D02*
X20251Y24572D01*
X20235Y24590D01*
X20213Y24599D01*
X20188Y24596D01*
X20168Y24582D01*
X20157Y24560D01*
Y24536D01*
X20168Y24514D01*
X20188Y24501D01*
X20213Y24498D01*
X20235Y24506D01*
X20251Y24524D01*
X20257Y24548D01*
X19241D02*
X19235Y24572D01*
X19219Y24590D01*
X19197Y24599D01*
X19172Y24596D01*
X19152Y24582D01*
X19141Y24560D01*
Y24536D01*
X19152Y24514D01*
X19172Y24501D01*
X19197Y24498D01*
X19219Y24506D01*
X19235Y24524D01*
X19241Y24548D01*
X27475Y24049D02*
X27469Y24073D01*
X27453Y24091D01*
X27431Y24100D01*
X27406Y24097D01*
X27386Y24083D01*
X27375Y24062D01*
Y24037D01*
X27386Y24016D01*
X27406Y24002D01*
X27431Y23999D01*
X27453Y24008D01*
X27469Y24026D01*
X27475Y24049D01*
X27729Y24049D02*
X27723Y24073D01*
X27707Y24091D01*
X27685Y24100D01*
X27660Y24097D01*
X27640Y24083D01*
X27629Y24062D01*
Y24037D01*
X27640Y24016D01*
X27660Y24002D01*
X27685Y23999D01*
X27707Y24008D01*
X27723Y24026D01*
X27729Y24049D01*
X27983Y24049D02*
X27977Y24073D01*
X27961Y24091D01*
X27939Y24100D01*
X27914Y24097D01*
X27894Y24083D01*
X27883Y24062D01*
Y24037D01*
X27894Y24016D01*
X27914Y24002D01*
X27939Y23999D01*
X27961Y24008D01*
X27977Y24026D01*
X27983Y24049D01*
X27475Y22028D02*
X27469Y22051D01*
X27453Y22070D01*
X27431Y22078D01*
X27406Y22075D01*
X27386Y22061D01*
X27375Y22040D01*
Y22016D01*
X27386Y21994D01*
X27406Y21980D01*
X27431Y21977D01*
X27453Y21986D01*
X27469Y22004D01*
X27475Y22028D01*
X27729D02*
X27723Y22051D01*
X27707Y22070D01*
X27685Y22078D01*
X27660Y22075D01*
X27640Y22061D01*
X27629Y22040D01*
Y22016D01*
X27640Y21994D01*
X27660Y21980D01*
X27685Y21977D01*
X27707Y21986D01*
X27723Y22004D01*
X27729Y22028D01*
X27983D02*
X27977Y22051D01*
X27961Y22070D01*
X27939Y22078D01*
X27914Y22075D01*
X27894Y22061D01*
X27883Y22040D01*
Y22016D01*
X27894Y21994D01*
X27914Y21980D01*
X27939Y21977D01*
X27961Y21986D01*
X27977Y22004D01*
X27983Y22028D01*
X20304Y16872D02*
X20298Y16896D01*
X20282Y16914D01*
X20259Y16922D01*
X20235Y16920D01*
X20215Y16906D01*
X20204Y16884D01*
Y16860D01*
X20215Y16838D01*
X20235Y16825D01*
X20259Y16822D01*
X20282Y16830D01*
X20298Y16848D01*
X20304Y16872D01*
X21574D02*
X21568Y16896D01*
X21552Y16914D01*
X21529Y16922D01*
X21505Y16920D01*
X21485Y16906D01*
X21474Y16884D01*
Y16860D01*
X21485Y16838D01*
X21505Y16825D01*
X21529Y16822D01*
X21552Y16830D01*
X21568Y16848D01*
X21574Y16872D01*
X23860Y16618D02*
X23854Y16642D01*
X23838Y16660D01*
X23815Y16668D01*
X23791Y16666D01*
X23771Y16652D01*
X23760Y16630D01*
Y16606D01*
X23771Y16584D01*
X23791Y16571D01*
X23815Y16568D01*
X23838Y16576D01*
X23854Y16594D01*
X23860Y16618D01*
X25638Y16872D02*
X25632Y16896D01*
X25616Y16914D01*
X25593Y16922D01*
X25569Y16920D01*
X25549Y16906D01*
X25538Y16884D01*
Y16860D01*
X25549Y16838D01*
X25569Y16825D01*
X25593Y16822D01*
X25616Y16830D01*
X25632Y16848D01*
X25638Y16872D01*
X27475Y22702D02*
X27469Y22725D01*
X27453Y22743D01*
X27431Y22752D01*
X27406Y22749D01*
X27386Y22735D01*
X27375Y22714D01*
Y22689D01*
X27386Y22668D01*
X27406Y22654D01*
X27431Y22651D01*
X27453Y22660D01*
X27469Y22678D01*
X27475Y22702D01*
X27729D02*
X27723Y22725D01*
X27707Y22743D01*
X27685Y22752D01*
X27660Y22749D01*
X27640Y22735D01*
X27629Y22714D01*
Y22689D01*
X27640Y22668D01*
X27660Y22654D01*
X27685Y22651D01*
X27707Y22660D01*
X27723Y22678D01*
X27729Y22702D01*
X27983D02*
X27977Y22725D01*
X27961Y22743D01*
X27939Y22752D01*
X27914Y22749D01*
X27894Y22735D01*
X27883Y22714D01*
Y22689D01*
X27894Y22668D01*
X27914Y22654D01*
X27939Y22651D01*
X27961Y22660D01*
X27977Y22678D01*
X27983Y22702D01*
X18595Y21820D02*
X18589Y21844D01*
X18573Y21862D01*
X18550Y21870D01*
X18526Y21867D01*
X18506Y21854D01*
X18494Y21832D01*
Y21808D01*
X18506Y21786D01*
X18526Y21772D01*
X18550Y21770D01*
X18573Y21778D01*
X18589Y21796D01*
X18595Y21820D01*
Y19026D02*
X18589Y19050D01*
X18573Y19068D01*
X18550Y19076D01*
X18526Y19073D01*
X18506Y19060D01*
X18494Y19038D01*
Y19014D01*
X18506Y18992D01*
X18526Y18978D01*
X18550Y18976D01*
X18573Y18984D01*
X18589Y19002D01*
X18595Y19026D01*
Y17756D02*
X18589Y17780D01*
X18573Y17798D01*
X18550Y17806D01*
X18526Y17803D01*
X18506Y17790D01*
X18494Y17768D01*
Y17744D01*
X18506Y17722D01*
X18526Y17708D01*
X18550Y17706D01*
X18573Y17714D01*
X18589Y17732D01*
X18595Y17756D01*
X27475Y23376D02*
X27469Y23399D01*
X27453Y23417D01*
X27431Y23426D01*
X27406Y23423D01*
X27386Y23409D01*
X27375Y23388D01*
Y23363D01*
X27386Y23342D01*
X27406Y23328D01*
X27431Y23325D01*
X27453Y23334D01*
X27469Y23352D01*
X27475Y23376D01*
X27729D02*
X27723Y23399D01*
X27707Y23417D01*
X27685Y23426D01*
X27660Y23423D01*
X27640Y23409D01*
X27629Y23388D01*
Y23363D01*
X27640Y23342D01*
X27660Y23328D01*
X27685Y23325D01*
X27707Y23334D01*
X27723Y23352D01*
X27729Y23376D01*
X27983D02*
X27977Y23399D01*
X27961Y23417D01*
X27939Y23426D01*
X27914Y23423D01*
X27894Y23409D01*
X27883Y23388D01*
Y23363D01*
X27894Y23342D01*
X27914Y23328D01*
X27939Y23325D01*
X27961Y23334D01*
X27977Y23352D01*
X27983Y23376D01*
X18595Y22074D02*
X18589Y22098D01*
X18573Y22116D01*
X18550Y22124D01*
X18526Y22121D01*
X18506Y22108D01*
X18494Y22086D01*
Y22062D01*
X18506Y22040D01*
X18526Y22026D01*
X18550Y22024D01*
X18573Y22032D01*
X18589Y22050D01*
X18595Y22074D01*
X18341Y20550D02*
X18335Y20574D01*
X18319Y20592D01*
X18296Y20600D01*
X18272Y20597D01*
X18252Y20584D01*
X18240Y20562D01*
Y20538D01*
X18252Y20516D01*
X18272Y20502D01*
X18296Y20500D01*
X18319Y20508D01*
X18335Y20526D01*
X18341Y20550D01*
X21574Y16618D02*
X21568Y16642D01*
X21552Y16660D01*
X21529Y16668D01*
X21505Y16666D01*
X21485Y16652D01*
X21474Y16630D01*
Y16606D01*
X21485Y16584D01*
X21505Y16571D01*
X21529Y16568D01*
X21552Y16576D01*
X21568Y16594D01*
X21574Y16618D01*
X23606Y16872D02*
X23600Y16896D01*
X23584Y16914D01*
X23561Y16922D01*
X23537Y16920D01*
X23517Y16906D01*
X23506Y16884D01*
Y16860D01*
X23517Y16838D01*
X23537Y16825D01*
X23561Y16822D01*
X23584Y16830D01*
X23600Y16848D01*
X23606Y16872D01*
X23813Y24802D02*
X23807Y24826D01*
X23791Y24844D01*
X23769Y24853D01*
X23744Y24850D01*
X23724Y24836D01*
X23713Y24814D01*
Y24790D01*
X23724Y24768D01*
X23744Y24755D01*
X23769Y24752D01*
X23791Y24760D01*
X23807Y24778D01*
X23813Y24802D01*
X21781D02*
X21775Y24826D01*
X21759Y24844D01*
X21737Y24853D01*
X21712Y24850D01*
X21692Y24836D01*
X21681Y24814D01*
Y24790D01*
X21692Y24768D01*
X21712Y24755D01*
X21737Y24752D01*
X21759Y24760D01*
X21775Y24778D01*
X21781Y24802D01*
X34460Y23590D02*
X34455Y23613D01*
X34439Y23631D01*
X34416Y23640D01*
X34392Y23637D01*
X34372Y23623D01*
X34360Y23602D01*
Y23578D01*
X34372Y23556D01*
X34392Y23542D01*
X34416Y23539D01*
X34439Y23548D01*
X34455Y23566D01*
X34460Y23590D01*
X27983Y23795D02*
X27977Y23819D01*
X27961Y23837D01*
X27939Y23846D01*
X27914Y23843D01*
X27894Y23829D01*
X27883Y23808D01*
Y23783D01*
X27894Y23762D01*
X27914Y23748D01*
X27939Y23745D01*
X27961Y23754D01*
X27977Y23772D01*
X27983Y23795D01*
Y21774D02*
X27977Y21797D01*
X27961Y21816D01*
X27939Y21824D01*
X27914Y21821D01*
X27894Y21807D01*
X27883Y21786D01*
Y21762D01*
X27894Y21740D01*
X27914Y21726D01*
X27939Y21723D01*
X27961Y21732D01*
X27977Y21750D01*
X27983Y21774D01*
Y22448D02*
X27977Y22471D01*
X27961Y22489D01*
X27939Y22498D01*
X27914Y22495D01*
X27894Y22481D01*
X27883Y22460D01*
Y22435D01*
X27894Y22414D01*
X27914Y22400D01*
X27939Y22397D01*
X27961Y22406D01*
X27977Y22424D01*
X27983Y22448D01*
Y23122D02*
X27977Y23145D01*
X27961Y23163D01*
X27939Y23172D01*
X27914Y23169D01*
X27894Y23155D01*
X27883Y23134D01*
Y23109D01*
X27894Y23088D01*
X27914Y23074D01*
X27939Y23071D01*
X27961Y23080D01*
X27977Y23098D01*
X27983Y23122D01*
X34754Y26645D02*
X34748Y26669D01*
X34732Y26687D01*
X34709Y26696D01*
X34685Y26693D01*
X34665Y26679D01*
X34654Y26657D01*
Y26633D01*
X34665Y26611D01*
X34685Y26598D01*
X34709Y26595D01*
X34732Y26603D01*
X34748Y26622D01*
X34754Y26645D01*
Y25629D02*
X34748Y25653D01*
X34732Y25671D01*
X34709Y25680D01*
X34685Y25677D01*
X34665Y25663D01*
X34654Y25641D01*
Y25617D01*
X34665Y25595D01*
X34685Y25582D01*
X34709Y25579D01*
X34732Y25587D01*
X34748Y25606D01*
X34754Y25629D01*
X18341Y23852D02*
X18335Y23876D01*
X18319Y23894D01*
X18296Y23902D01*
X18272Y23899D01*
X18252Y23886D01*
X18240Y23864D01*
Y23840D01*
X18252Y23818D01*
X18272Y23804D01*
X18296Y23802D01*
X18319Y23810D01*
X18335Y23828D01*
X18341Y23852D01*
Y21820D02*
X18335Y21844D01*
X18319Y21862D01*
X18296Y21870D01*
X18272Y21867D01*
X18252Y21854D01*
X18240Y21832D01*
Y21808D01*
X18252Y21786D01*
X18272Y21772D01*
X18296Y21770D01*
X18319Y21778D01*
X18335Y21796D01*
X18341Y21820D01*
Y20804D02*
X18335Y20828D01*
X18319Y20846D01*
X18296Y20854D01*
X18272Y20851D01*
X18252Y20838D01*
X18240Y20816D01*
Y20792D01*
X18252Y20770D01*
X18272Y20756D01*
X18296Y20754D01*
X18319Y20762D01*
X18335Y20780D01*
X18341Y20804D01*
Y20296D02*
X18335Y20320D01*
X18319Y20338D01*
X18296Y20346D01*
X18272Y20343D01*
X18252Y20330D01*
X18240Y20308D01*
Y20284D01*
X18252Y20262D01*
X18272Y20248D01*
X18296Y20246D01*
X18319Y20254D01*
X18335Y20272D01*
X18341Y20296D01*
Y18772D02*
X18335Y18796D01*
X18319Y18814D01*
X18296Y18822D01*
X18272Y18819D01*
X18252Y18806D01*
X18240Y18784D01*
Y18760D01*
X18252Y18738D01*
X18272Y18724D01*
X18296Y18722D01*
X18319Y18730D01*
X18335Y18748D01*
X18341Y18772D01*
Y17502D02*
X18335Y17526D01*
X18319Y17544D01*
X18296Y17552D01*
X18272Y17549D01*
X18252Y17536D01*
X18240Y17514D01*
Y17490D01*
X18252Y17468D01*
X18272Y17454D01*
X18296Y17452D01*
X18319Y17460D01*
X18335Y17478D01*
X18341Y17502D01*
X18595Y17502D02*
X18589Y17526D01*
X18573Y17544D01*
X18550Y17552D01*
X18526Y17549D01*
X18506Y17536D01*
X18494Y17514D01*
Y17490D01*
X18506Y17468D01*
X18526Y17454D01*
X18550Y17452D01*
X18573Y17460D01*
X18589Y17478D01*
X18595Y17502D01*
X20812Y16618D02*
X20806Y16642D01*
X20790Y16660D01*
X20767Y16668D01*
X20743Y16666D01*
X20723Y16652D01*
X20712Y16630D01*
Y16606D01*
X20723Y16584D01*
X20743Y16571D01*
X20767Y16568D01*
X20790Y16576D01*
X20806Y16594D01*
X20812Y16618D01*
X22844D02*
X22838Y16642D01*
X22822Y16660D01*
X22799Y16668D01*
X22775Y16666D01*
X22755Y16652D01*
X22744Y16630D01*
Y16606D01*
X22755Y16584D01*
X22775Y16571D01*
X22799Y16568D01*
X22822Y16576D01*
X22838Y16594D01*
X22844Y16618D01*
X24876D02*
X24870Y16642D01*
X24854Y16660D01*
X24831Y16668D01*
X24807Y16666D01*
X24787Y16652D01*
X24776Y16630D01*
Y16606D01*
X24787Y16584D01*
X24807Y16571D01*
X24831Y16568D01*
X24854Y16576D01*
X24870Y16594D01*
X24876Y16618D01*
X25130Y16872D02*
X25124Y16896D01*
X25108Y16914D01*
X25085Y16922D01*
X25061Y16920D01*
X25041Y16906D01*
X25030Y16884D01*
Y16860D01*
X25041Y16838D01*
X25061Y16825D01*
X25085Y16822D01*
X25108Y16830D01*
X25124Y16848D01*
X25130Y16872D01*
X23051Y24548D02*
X23045Y24572D01*
X23029Y24590D01*
X23007Y24599D01*
X22982Y24596D01*
X22962Y24582D01*
X22951Y24560D01*
Y24536D01*
X22962Y24514D01*
X22982Y24501D01*
X23007Y24498D01*
X23029Y24506D01*
X23045Y24524D01*
X23051Y24548D01*
X20765Y24802D02*
X20759Y24826D01*
X20743Y24844D01*
X20721Y24853D01*
X20696Y24850D01*
X20676Y24836D01*
X20665Y24814D01*
Y24790D01*
X20676Y24768D01*
X20696Y24755D01*
X20721Y24752D01*
X20743Y24760D01*
X20759Y24778D01*
X20765Y24802D01*
X19241D02*
X19235Y24826D01*
X19219Y24844D01*
X19197Y24853D01*
X19172Y24850D01*
X19152Y24836D01*
X19141Y24814D01*
Y24790D01*
X19152Y24768D01*
X19172Y24755D01*
X19197Y24752D01*
X19219Y24760D01*
X19235Y24778D01*
X19241Y24802D01*
X25083Y24548D02*
X25077Y24572D01*
X25061Y24590D01*
X25039Y24599D01*
X25014Y24596D01*
X24994Y24582D01*
X24983Y24560D01*
Y24536D01*
X24994Y24514D01*
X25014Y24501D01*
X25039Y24498D01*
X25061Y24506D01*
X25077Y24524D01*
X25083Y24548D01*
X34754Y26137D02*
X34748Y26161D01*
X34732Y26179D01*
X34709Y26188D01*
X34685Y26185D01*
X34665Y26171D01*
X34654Y26149D01*
Y26125D01*
X34665Y26103D01*
X34685Y26090D01*
X34709Y26087D01*
X34732Y26095D01*
X34748Y26114D01*
X34754Y26137D01*
X34460Y23844D02*
X34455Y23867D01*
X34439Y23885D01*
X34416Y23894D01*
X34392Y23891D01*
X34372Y23877D01*
X34360Y23856D01*
Y23832D01*
X34372Y23810D01*
X34392Y23796D01*
X34416Y23793D01*
X34439Y23802D01*
X34455Y23820D01*
X34460Y23844D01*
X34714D02*
X34709Y23867D01*
X34693Y23885D01*
X34670Y23894D01*
X34646Y23891D01*
X34626Y23877D01*
X34614Y23856D01*
Y23832D01*
X34626Y23810D01*
X34646Y23796D01*
X34670Y23793D01*
X34693Y23802D01*
X34709Y23820D01*
X34714Y23844D01*
X34968D02*
X34963Y23867D01*
X34947Y23885D01*
X34924Y23894D01*
X34900Y23891D01*
X34880Y23877D01*
X34868Y23856D01*
Y23832D01*
X34880Y23810D01*
X34900Y23796D01*
X34924Y23793D01*
X34947Y23802D01*
X34963Y23820D01*
X34968Y23844D01*
X35008Y26391D02*
X35002Y26415D01*
X34986Y26433D01*
X34963Y26442D01*
X34939Y26439D01*
X34919Y26425D01*
X34908Y26403D01*
Y26379D01*
X34919Y26357D01*
X34939Y26344D01*
X34963Y26341D01*
X34986Y26349D01*
X35002Y26368D01*
X35008Y26391D01*
X33556Y12922D02*
X33551Y12945D01*
X33535Y12964D01*
X33512Y12972D01*
X33488Y12969D01*
X33468Y12955D01*
X33456Y12934D01*
Y12910D01*
X33468Y12888D01*
X33488Y12874D01*
X33512Y12871D01*
X33535Y12880D01*
X33551Y12898D01*
X33556Y12922D01*
X32806D02*
X32801Y12945D01*
X32785Y12964D01*
X32762Y12972D01*
X32738Y12969D01*
X32718Y12955D01*
X32706Y12934D01*
Y12910D01*
X32718Y12888D01*
X32738Y12874D01*
X32762Y12871D01*
X32785Y12880D01*
X32801Y12898D01*
X32806Y12922D01*
X33556Y13372D02*
X33551Y13395D01*
X33535Y13414D01*
X33512Y13422D01*
X33488Y13419D01*
X33468Y13405D01*
X33456Y13384D01*
Y13360D01*
X33468Y13338D01*
X33488Y13324D01*
X33512Y13321D01*
X33535Y13330D01*
X33551Y13348D01*
X33556Y13372D01*
X32806D02*
X32801Y13395D01*
X32785Y13414D01*
X32762Y13422D01*
X32738Y13419D01*
X32718Y13405D01*
X32706Y13384D01*
Y13360D01*
X32718Y13338D01*
X32738Y13324D01*
X32762Y13321D01*
X32785Y13330D01*
X32801Y13348D01*
X32806Y13372D01*
X21406Y25836D02*
X21400Y25859D01*
X21384Y25878D01*
X21361Y25886D01*
X21337Y25883D01*
X21317Y25869D01*
X21305Y25848D01*
Y25824D01*
X21317Y25802D01*
X21337Y25788D01*
X21361Y25785D01*
X21384Y25794D01*
X21400Y25812D01*
X21406Y25836D01*
X20898D02*
X20892Y25859D01*
X20876Y25878D01*
X20853Y25886D01*
X20829Y25883D01*
X20809Y25869D01*
X20797Y25848D01*
Y25824D01*
X20809Y25802D01*
X20829Y25788D01*
X20853Y25785D01*
X20876Y25794D01*
X20892Y25812D01*
X20898Y25836D01*
X26727Y25814D02*
X26721Y25838D01*
X26705Y25856D01*
X26682Y25865D01*
X26658Y25862D01*
X26638Y25848D01*
X26627Y25826D01*
Y25802D01*
X26638Y25780D01*
X26658Y25767D01*
X26682Y25764D01*
X26705Y25772D01*
X26721Y25791D01*
X26727Y25814D01*
X26219D02*
X26213Y25838D01*
X26197Y25856D01*
X26174Y25865D01*
X26150Y25862D01*
X26130Y25848D01*
X26119Y25826D01*
Y25802D01*
X26130Y25780D01*
X26150Y25767D01*
X26174Y25764D01*
X26197Y25772D01*
X26213Y25791D01*
X26219Y25814D01*
X24017Y25836D02*
X24011Y25859D01*
X23995Y25878D01*
X23972Y25886D01*
X23948Y25883D01*
X23928Y25869D01*
X23917Y25848D01*
Y25824D01*
X23928Y25802D01*
X23948Y25788D01*
X23972Y25785D01*
X23995Y25794D01*
X24011Y25812D01*
X24017Y25836D01*
X23509D02*
X23503Y25859D01*
X23487Y25878D01*
X23464Y25886D01*
X23440Y25883D01*
X23420Y25869D01*
X23409Y25848D01*
Y25824D01*
X23420Y25802D01*
X23440Y25788D01*
X23464Y25785D01*
X23487Y25794D01*
X23503Y25812D01*
X23509Y25836D01*
X17337Y25780D02*
X17331Y25803D01*
X17315Y25821D01*
X17292Y25830D01*
X17268Y25827D01*
X17248Y25813D01*
X17237Y25792D01*
Y25767D01*
X17248Y25746D01*
X17268Y25732D01*
X17292Y25729D01*
X17315Y25738D01*
X17331Y25756D01*
X17337Y25780D01*
Y25272D02*
X17331Y25295D01*
X17315Y25313D01*
X17292Y25322D01*
X17268Y25319D01*
X17248Y25305D01*
X17237Y25284D01*
Y25259D01*
X17248Y25238D01*
X17268Y25224D01*
X17292Y25221D01*
X17315Y25230D01*
X17331Y25248D01*
X17337Y25272D01*
X17577Y26339D02*
X17572Y26362D01*
X17555Y26381D01*
X17533Y26389D01*
X17509Y26386D01*
X17489Y26372D01*
X17477Y26351D01*
Y26327D01*
X17489Y26305D01*
X17509Y26291D01*
X17533Y26288D01*
X17555Y26297D01*
X17572Y26315D01*
X17577Y26339D01*
Y27355D02*
X17572Y27378D01*
X17555Y27397D01*
X17533Y27405D01*
X17509Y27402D01*
X17489Y27388D01*
X17477Y27367D01*
Y27343D01*
X17489Y27321D01*
X17509Y27307D01*
X17533Y27304D01*
X17555Y27313D01*
X17572Y27331D01*
X17577Y27355D01*
X17913Y26339D02*
X17907Y26362D01*
X17891Y26381D01*
X17868Y26389D01*
X17844Y26386D01*
X17824Y26372D01*
X17813Y26351D01*
Y26327D01*
X17824Y26305D01*
X17844Y26291D01*
X17868Y26288D01*
X17891Y26297D01*
X17907Y26315D01*
X17913Y26339D01*
Y27355D02*
X17907Y27378D01*
X17891Y27397D01*
X17868Y27405D01*
X17844Y27402D01*
X17824Y27388D01*
X17813Y27367D01*
Y27343D01*
X17824Y27321D01*
X17844Y27307D01*
X17868Y27304D01*
X17891Y27313D01*
X17907Y27331D01*
X17913Y27355D01*
X17242Y26339D02*
X17236Y26362D01*
X17220Y26381D01*
X17197Y26389D01*
X17173Y26386D01*
X17153Y26372D01*
X17142Y26351D01*
Y26327D01*
X17153Y26305D01*
X17173Y26291D01*
X17197Y26288D01*
X17220Y26297D01*
X17236Y26315D01*
X17242Y26339D01*
Y27355D02*
X17236Y27378D01*
X17220Y27397D01*
X17197Y27405D01*
X17173Y27402D01*
X17153Y27388D01*
X17142Y27367D01*
Y27343D01*
X17153Y27321D01*
X17173Y27307D01*
X17197Y27304D01*
X17220Y27313D01*
X17236Y27331D01*
X17242Y27355D01*
X16907Y26339D02*
X16901Y26362D01*
X16885Y26381D01*
X16862Y26389D01*
X16838Y26386D01*
X16818Y26372D01*
X16807Y26351D01*
Y26327D01*
X16818Y26305D01*
X16838Y26291D01*
X16862Y26288D01*
X16885Y26297D01*
X16901Y26315D01*
X16907Y26339D01*
Y27355D02*
X16901Y27378D01*
X16885Y27397D01*
X16862Y27405D01*
X16838Y27402D01*
X16818Y27388D01*
X16807Y27367D01*
Y27343D01*
X16818Y27321D01*
X16838Y27307D01*
X16862Y27304D01*
X16885Y27313D01*
X16901Y27331D01*
X16907Y27355D01*
X18403Y26246D02*
X18397Y26270D01*
X18381Y26288D01*
X18359Y26296D01*
X18334Y26293D01*
X18314Y26280D01*
X18303Y26258D01*
Y26234D01*
X18314Y26212D01*
X18334Y26198D01*
X18359Y26195D01*
X18381Y26204D01*
X18397Y26222D01*
X18403Y26246D01*
X19927D02*
X19921Y26270D01*
X19905Y26288D01*
X19883Y26296D01*
X19858Y26293D01*
X19838Y26280D01*
X19827Y26258D01*
Y26234D01*
X19838Y26212D01*
X19858Y26198D01*
X19883Y26195D01*
X19905Y26204D01*
X19921Y26222D01*
X19927Y26246D01*
Y25484D02*
X19921Y25508D01*
X19905Y25526D01*
X19883Y25534D01*
X19858Y25531D01*
X19838Y25518D01*
X19827Y25496D01*
Y25472D01*
X19838Y25450D01*
X19858Y25436D01*
X19883Y25433D01*
X19905Y25442D01*
X19921Y25460D01*
X19927Y25484D01*
X18403D02*
X18397Y25508D01*
X18381Y25526D01*
X18359Y25534D01*
X18334Y25531D01*
X18314Y25518D01*
X18303Y25496D01*
Y25472D01*
X18314Y25450D01*
X18334Y25436D01*
X18359Y25433D01*
X18381Y25442D01*
X18397Y25460D01*
X18403Y25484D01*
X26475Y25042D02*
X26469Y25066D01*
X26453Y25084D01*
X26430Y25093D01*
X26406Y25090D01*
X26386Y25076D01*
X26375Y25055D01*
Y25030D01*
X26386Y25009D01*
X26406Y24995D01*
X26430Y24992D01*
X26453Y25001D01*
X26469Y25019D01*
X26475Y25042D01*
X27491D02*
X27485Y25066D01*
X27469Y25084D01*
X27446Y25093D01*
X27422Y25090D01*
X27402Y25076D01*
X27391Y25055D01*
Y25030D01*
X27402Y25009D01*
X27422Y24995D01*
X27446Y24992D01*
X27469Y25001D01*
X27485Y25019D01*
X27491Y25042D01*
X16209Y25870D02*
X16203Y25893D01*
X16187Y25911D01*
X16164Y25920D01*
X16140Y25917D01*
X16120Y25903D01*
X16108Y25882D01*
Y25857D01*
X16120Y25836D01*
X16140Y25822D01*
X16164Y25819D01*
X16187Y25828D01*
X16203Y25846D01*
X16209Y25870D01*
Y25593D02*
X16203Y25616D01*
X16187Y25635D01*
X16164Y25643D01*
X16140Y25640D01*
X16120Y25626D01*
X16108Y25605D01*
Y25581D01*
X16120Y25559D01*
X16140Y25545D01*
X16164Y25542D01*
X16187Y25551D01*
X16203Y25569D01*
X16209Y25593D01*
Y25316D02*
X16203Y25340D01*
X16187Y25358D01*
X16164Y25366D01*
X16140Y25363D01*
X16120Y25350D01*
X16108Y25328D01*
Y25304D01*
X16120Y25282D01*
X16140Y25268D01*
X16164Y25265D01*
X16187Y25274D01*
X16203Y25292D01*
X16209Y25316D01*
Y25039D02*
X16203Y25063D01*
X16187Y25081D01*
X16164Y25089D01*
X16140Y25087D01*
X16120Y25073D01*
X16108Y25051D01*
Y25027D01*
X16120Y25005D01*
X16140Y24992D01*
X16164Y24989D01*
X16187Y24997D01*
X16203Y25015D01*
X16209Y25039D01*
X16463Y26007D02*
X16457Y26030D01*
X16441Y26049D01*
X16418Y26057D01*
X16394Y26054D01*
X16374Y26040D01*
X16362Y26019D01*
Y25995D01*
X16374Y25973D01*
X16394Y25959D01*
X16418Y25956D01*
X16441Y25965D01*
X16457Y25983D01*
X16463Y26007D01*
Y25730D02*
X16457Y25754D01*
X16441Y25772D01*
X16418Y25780D01*
X16394Y25777D01*
X16374Y25764D01*
X16362Y25742D01*
Y25718D01*
X16374Y25696D01*
X16394Y25682D01*
X16418Y25680D01*
X16441Y25688D01*
X16457Y25706D01*
X16463Y25730D01*
Y25453D02*
X16457Y25477D01*
X16441Y25495D01*
X16418Y25504D01*
X16394Y25501D01*
X16374Y25487D01*
X16362Y25465D01*
Y25441D01*
X16374Y25419D01*
X16394Y25406D01*
X16418Y25403D01*
X16441Y25411D01*
X16457Y25429D01*
X16463Y25453D01*
Y25176D02*
X16457Y25200D01*
X16441Y25218D01*
X16418Y25227D01*
X16394Y25224D01*
X16374Y25210D01*
X16362Y25188D01*
Y25164D01*
X16374Y25143D01*
X16394Y25129D01*
X16418Y25126D01*
X16441Y25134D01*
X16457Y25153D01*
X16463Y25176D01*
Y24899D02*
X16457Y24923D01*
X16441Y24941D01*
X16418Y24950D01*
X16394Y24947D01*
X16374Y24933D01*
X16362Y24912D01*
Y24887D01*
X16374Y24866D01*
X16394Y24852D01*
X16418Y24849D01*
X16441Y24858D01*
X16457Y24876D01*
X16463Y24899D01*
X16201Y22183D02*
X16195Y22207D01*
X16179Y22225D01*
X16156Y22234D01*
X16132Y22231D01*
X16112Y22217D01*
X16101Y22195D01*
Y22171D01*
X16112Y22149D01*
X16132Y22136D01*
X16156Y22133D01*
X16179Y22141D01*
X16195Y22159D01*
X16201Y22183D01*
Y21906D02*
X16195Y21930D01*
X16179Y21948D01*
X16156Y21957D01*
X16132Y21954D01*
X16112Y21940D01*
X16101Y21918D01*
Y21894D01*
X16112Y21873D01*
X16132Y21859D01*
X16156Y21856D01*
X16179Y21864D01*
X16195Y21883D01*
X16201Y21906D01*
Y21629D02*
X16195Y21653D01*
X16179Y21671D01*
X16156Y21680D01*
X16132Y21677D01*
X16112Y21663D01*
X16101Y21642D01*
Y21617D01*
X16112Y21596D01*
X16132Y21582D01*
X16156Y21579D01*
X16179Y21588D01*
X16195Y21606D01*
X16201Y21629D01*
Y21352D02*
X16195Y21376D01*
X16179Y21394D01*
X16156Y21403D01*
X16132Y21400D01*
X16112Y21386D01*
X16101Y21365D01*
Y21340D01*
X16112Y21319D01*
X16132Y21305D01*
X16156Y21302D01*
X16179Y21311D01*
X16195Y21329D01*
X16201Y21352D01*
X16455Y22320D02*
X16449Y22344D01*
X16433Y22362D01*
X16410Y22371D01*
X16386Y22368D01*
X16366Y22354D01*
X16355Y22332D01*
Y22308D01*
X16366Y22287D01*
X16386Y22273D01*
X16410Y22270D01*
X16433Y22278D01*
X16449Y22297D01*
X16455Y22320D01*
Y22043D02*
X16449Y22067D01*
X16433Y22085D01*
X16410Y22094D01*
X16386Y22091D01*
X16366Y22077D01*
X16355Y22056D01*
Y22031D01*
X16366Y22010D01*
X16386Y21996D01*
X16410Y21993D01*
X16433Y22002D01*
X16449Y22020D01*
X16455Y22043D01*
Y21767D02*
X16449Y21790D01*
X16433Y21808D01*
X16410Y21817D01*
X16386Y21814D01*
X16366Y21800D01*
X16355Y21779D01*
Y21754D01*
X16366Y21733D01*
X16386Y21719D01*
X16410Y21716D01*
X16433Y21725D01*
X16449Y21743D01*
X16455Y21767D01*
Y21490D02*
X16449Y21513D01*
X16433Y21531D01*
X16410Y21540D01*
X16386Y21537D01*
X16366Y21523D01*
X16355Y21502D01*
Y21478D01*
X16366Y21456D01*
X16386Y21442D01*
X16410Y21439D01*
X16433Y21448D01*
X16449Y21466D01*
X16455Y21490D01*
Y21213D02*
X16449Y21236D01*
X16433Y21255D01*
X16410Y21263D01*
X16386Y21260D01*
X16366Y21246D01*
X16355Y21225D01*
Y21201D01*
X16366Y21179D01*
X16386Y21165D01*
X16410Y21162D01*
X16433Y21171D01*
X16449Y21189D01*
X16455Y21213D01*
X29769Y23080D02*
X29764Y23104D01*
X29747Y23122D01*
X29725Y23130D01*
X29701Y23127D01*
X29681Y23114D01*
X29669Y23092D01*
Y23068D01*
X29681Y23046D01*
X29701Y23032D01*
X29725Y23030D01*
X29747Y23038D01*
X29764Y23056D01*
X29769Y23080D01*
X29777Y23801D02*
X29771Y23825D01*
X29755Y23843D01*
X29732Y23852D01*
X29708Y23849D01*
X29688Y23835D01*
X29677Y23813D01*
Y23789D01*
X29688Y23768D01*
X29708Y23754D01*
X29732Y23751D01*
X29755Y23760D01*
X29771Y23778D01*
X29777Y23801D01*
X29754Y24330D02*
X29748Y24353D01*
X29732Y24371D01*
X29709Y24380D01*
X29685Y24377D01*
X29665Y24363D01*
X29654Y24342D01*
Y24318D01*
X29665Y24296D01*
X29685Y24282D01*
X29709Y24279D01*
X29732Y24288D01*
X29748Y24306D01*
X29754Y24330D01*
X29731Y24858D02*
X29725Y24882D01*
X29709Y24900D01*
X29687Y24908D01*
X29662Y24905D01*
X29642Y24892D01*
X29631Y24870D01*
Y24846D01*
X29642Y24824D01*
X29662Y24810D01*
X29687Y24808D01*
X29709Y24816D01*
X29725Y24834D01*
X29731Y24858D01*
X34672Y22727D02*
X34666Y22751D01*
X34650Y22769D01*
X34627Y22777D01*
X34603Y22774D01*
X34583Y22761D01*
X34571Y22739D01*
Y22715D01*
X34583Y22693D01*
X34603Y22679D01*
X34627Y22676D01*
X34650Y22685D01*
X34666Y22703D01*
X34672Y22727D01*
Y22155D02*
X34666Y22179D01*
X34650Y22197D01*
X34627Y22206D01*
X34603Y22203D01*
X34583Y22189D01*
X34571Y22168D01*
Y22143D01*
X34583Y22122D01*
X34603Y22108D01*
X34627Y22105D01*
X34650Y22114D01*
X34666Y22132D01*
X34672Y22155D01*
X34679Y21586D02*
X34673Y21610D01*
X34657Y21628D01*
X34635Y21637D01*
X34610Y21634D01*
X34590Y21620D01*
X34579Y21599D01*
Y21574D01*
X34590Y21553D01*
X34610Y21539D01*
X34635Y21536D01*
X34657Y21545D01*
X34673Y21563D01*
X34679Y21586D01*
X18187Y16143D02*
X18181Y16167D01*
X18165Y16185D01*
X18142Y16194D01*
X18118Y16191D01*
X18098Y16177D01*
X18087Y16155D01*
Y16131D01*
X18098Y16110D01*
X18118Y16096D01*
X18142Y16093D01*
X18165Y16101D01*
X18181Y16120D01*
X18187Y16143D01*
X17118Y19585D02*
X17112Y19609D01*
X17096Y19627D01*
X17073Y19635D01*
X17049Y19632D01*
X17029Y19619D01*
X17018Y19597D01*
Y19573D01*
X17029Y19551D01*
X17049Y19537D01*
X17073Y19535D01*
X17096Y19543D01*
X17112Y19561D01*
X17118Y19585D01*
M02*
