%FSLAX42Y42*%
%MOMM*%
G71*
G01*
G75*
%ADD10C,0.20*%
%ADD11R,1.90X2.29*%
%ADD12R,1.52X1.52*%
%ADD13R,0.28X1.78*%
%ADD14R,1.78X0.28*%
%ADD15R,1.78X0.28*%
%ADD16O,1.78X0.28*%
%ADD17C,1.00*%
%ADD18C,0.40*%
%ADD19C,0.50*%
%ADD20C,0.80*%
%ADD21C,0.70*%
%ADD22C,0.20*%
%ADD23C,0.25*%
%ADD24C,0.30*%
%ADD25C,1.00*%
%ADD26C,0.70*%
%ADD27C,0.65*%
%ADD28O,2.00X1.50*%
%ADD29C,2.00*%
%ADD30C,4.00*%
%ADD31O,1.75X2.00*%
%ADD32R,1.75X2.00*%
%ADD33O,2.00X1.70*%
%ADD34O,2.00X1.70*%
%ADD35R,2.00X1.70*%
%ADD36C,1.52*%
%ADD37R,1.70X2.00*%
%ADD38O,1.70X2.00*%
%ADD39O,1.60X2.00*%
%ADD40R,1.60X2.00*%
%ADD41R,1.70X2.00*%
%ADD42O,1.70X2.00*%
%ADD43C,1.50*%
%ADD44R,2.00X1.75*%
%ADD45O,2.00X1.75*%
%ADD46O,2.00X1.60*%
%ADD47R,2.00X1.60*%
%ADD48O,2.00X1.60*%
%ADD49R,1.75X2.00*%
%ADD50O,1.75X2.00*%
%ADD51C,3.50*%
%ADD52C,3.50*%
%ADD53C,2.25*%
%ADD54C,3.50*%
%ADD55C,2.50*%
%ADD56C,1.75*%
%ADD57C,1.50*%
%ADD58R,1.75X2.20*%
%ADD59R,1.75X2.20*%
%ADD60C,3.00*%
%ADD61R,5.00X2.50*%
%ADD62R,2.50X5.00*%
%ADD63C,2.00*%
%ADD64R,2.00X2.00*%
%ADD65O,2.00X2.50*%
%ADD66C,1.27*%
%ADD67R,0.91X0.91*%
%ADD68R,0.91X1.27*%
%ADD69O,0.61X3.05*%
%ADD70O,0.61X6.10*%
%ADD71O,3.81X0.80*%
%ADD72C,0.30*%
%ADD73C,0.25*%
%ADD74C,0.31*%
%ADD75C,0.54*%
%ADD76C,0.35*%
%ADD77R,2.11X2.49*%
%ADD78R,1.73X1.73*%
%ADD79R,0.48X1.98*%
%ADD80R,1.98X0.48*%
%ADD81R,1.98X0.48*%
%ADD82O,1.98X0.48*%
%ADD83O,2.20X1.70*%
%ADD84C,2.20*%
%ADD85C,4.20*%
%ADD86O,1.95X2.20*%
%ADD87R,1.95X2.20*%
%ADD88O,2.20X1.90*%
%ADD89O,2.20X1.90*%
%ADD90R,2.20X1.90*%
%ADD91C,1.73*%
%ADD92R,1.90X2.20*%
%ADD93O,1.90X2.20*%
%ADD94O,1.80X2.20*%
%ADD95R,1.80X2.20*%
%ADD96R,1.90X2.20*%
%ADD97O,1.90X2.20*%
%ADD98C,1.70*%
%ADD99R,2.20X1.95*%
%ADD100O,2.20X1.95*%
%ADD101O,2.20X1.80*%
%ADD102R,2.20X1.80*%
%ADD103O,2.20X1.80*%
%ADD104R,1.95X2.20*%
%ADD105O,1.95X2.20*%
%ADD106C,3.70*%
%ADD107C,3.70*%
%ADD108C,2.45*%
%ADD109C,3.70*%
%ADD110C,2.70*%
%ADD111C,1.95*%
%ADD112C,1.70*%
%ADD113R,1.95X2.40*%
%ADD114R,1.95X2.40*%
%ADD115C,3.20*%
%ADD116R,5.20X2.70*%
%ADD117R,2.70X5.20*%
%ADD118C,2.53*%
%ADD119C,2.20*%
%ADD120R,2.20X2.20*%
%ADD121O,2.20X2.70*%
%ADD122C,1.47*%
%ADD123R,1.12X1.12*%
%ADD124R,1.12X1.47*%
%ADD125O,0.81X3.25*%
%ADD126O,0.81X6.30*%
%ADD127O,4.01X1.00*%
%ADD128C,0.15*%
D22*
X15035Y11823D02*
X15635D01*
X15335Y11523D02*
Y12123D01*
X35035Y11828D02*
X35635D01*
X35335Y11528D02*
Y12128D01*
X35035Y28823D02*
X35635D01*
X35335Y28523D02*
Y29123D01*
X15035Y28823D02*
X15635D01*
X15335Y28523D02*
Y29123D01*
D23*
X35335Y11553D02*
X35335Y11503D01*
X15335Y11548D02*
X15335Y11498D01*
X35182Y11477D02*
X35335Y11528D01*
X35182Y11579D02*
X35335Y11528D01*
X15335Y11523D02*
X15487Y11472D01*
X15335Y11523D02*
X15487Y11574D01*
X26340Y11526D02*
X35335Y11528D01*
X15335Y11523D02*
X24329Y11525D01*
X35609Y28823D02*
X35660D01*
X35609Y11828D02*
X35660D01*
X35635Y28823D02*
X35686Y28671D01*
X35584D02*
X35635Y28823D01*
Y11828D02*
X35686Y11980D01*
X35584D02*
X35635Y11828D01*
Y21255D02*
Y28823D01*
Y11828D02*
Y19396D01*
D128*
X24354Y11434D02*
X24405D01*
X24380D01*
Y11586D01*
X24354Y11561D01*
X24481Y11459D02*
X24507Y11434D01*
X24558D01*
X24583Y11459D01*
Y11561D01*
X24558Y11586D01*
X24507D01*
X24481Y11561D01*
Y11535D01*
X24507Y11510D01*
X24583D01*
X24634Y11459D02*
X24659Y11434D01*
X24710D01*
X24735Y11459D01*
Y11561D01*
X24710Y11586D01*
X24659D01*
X24634Y11561D01*
Y11535D01*
X24659Y11510D01*
X24735D01*
X24786Y11434D02*
Y11459D01*
X24811D01*
Y11434D01*
X24786D01*
X24913Y11459D02*
X24938Y11434D01*
X24989D01*
X25015Y11459D01*
Y11561D01*
X24989Y11586D01*
X24938D01*
X24913Y11561D01*
Y11535D01*
X24938Y11510D01*
X25015D01*
X25065Y11459D02*
X25091Y11434D01*
X25142D01*
X25167Y11459D01*
Y11561D01*
X25142Y11586D01*
X25091D01*
X25065Y11561D01*
Y11535D01*
X25091Y11510D01*
X25167D01*
X25218Y11459D02*
X25243Y11434D01*
X25294D01*
X25319Y11459D01*
Y11561D01*
X25294Y11586D01*
X25243D01*
X25218Y11561D01*
Y11535D01*
X25243Y11510D01*
X25319D01*
X25472Y11586D02*
X25421Y11561D01*
X25370Y11510D01*
Y11459D01*
X25396Y11434D01*
X25446D01*
X25472Y11459D01*
Y11485D01*
X25446Y11510D01*
X25370D01*
X25522Y11434D02*
X25573D01*
X25548D01*
Y11586D01*
X25522Y11561D01*
X25853Y11434D02*
X25802Y11485D01*
Y11535D01*
X25853Y11586D01*
X25929Y11434D02*
Y11535D01*
X25954D01*
X25980Y11510D01*
Y11434D01*
Y11510D01*
X26005Y11535D01*
X26030Y11510D01*
Y11434D01*
X26081D02*
Y11535D01*
X26106D01*
X26132Y11510D01*
Y11434D01*
Y11510D01*
X26157Y11535D01*
X26183Y11510D01*
Y11434D01*
X26233D02*
X26284Y11485D01*
Y11535D01*
X26233Y11586D01*
X35726Y19421D02*
Y19472D01*
Y19447D01*
X35574D01*
X35599Y19421D01*
X35574Y19650D02*
X35599Y19599D01*
X35650Y19548D01*
X35701D01*
X35726Y19574D01*
Y19625D01*
X35701Y19650D01*
X35675D01*
X35650Y19625D01*
Y19548D01*
X35701Y19701D02*
X35726Y19726D01*
Y19777D01*
X35701Y19802D01*
X35599D01*
X35574Y19777D01*
Y19726D01*
X35599Y19701D01*
X35625D01*
X35650Y19726D01*
Y19802D01*
X35726Y19853D02*
X35701D01*
Y19878D01*
X35726D01*
Y19853D01*
X35701Y19980D02*
X35726Y20005D01*
Y20056D01*
X35701Y20082D01*
X35599D01*
X35574Y20056D01*
Y20005D01*
X35599Y19980D01*
X35625D01*
X35650Y20005D01*
Y20082D01*
X35574Y20234D02*
Y20132D01*
X35650D01*
X35625Y20183D01*
Y20209D01*
X35650Y20234D01*
X35701D01*
X35726Y20209D01*
Y20158D01*
X35701Y20132D01*
X35726Y20285D02*
Y20336D01*
Y20310D01*
X35574D01*
X35599Y20285D01*
X35726Y20488D02*
X35574D01*
X35650Y20412D01*
Y20513D01*
X35726Y20767D02*
X35675Y20716D01*
X35625D01*
X35574Y20767D01*
X35726Y20843D02*
X35625D01*
Y20869D01*
X35650Y20894D01*
X35726D01*
X35650D01*
X35625Y20920D01*
X35650Y20945D01*
X35726D01*
Y20996D02*
X35625D01*
Y21021D01*
X35650Y21046D01*
X35726D01*
X35650D01*
X35625Y21072D01*
X35650Y21097D01*
X35726D01*
Y21148D02*
X35675Y21199D01*
X35625D01*
X35574Y21148D01*
M02*
